<svg width="92" height="233" viewBox="0 0 92 233" fill="none" xmlns="http://www.w3.org/2000/svg">
<path d="M31.3573 224.265C31.2865 225.977 30.6493 229.614 28.2067 231.34C27.3306 231.952 26.3149 232.291 25.2717 232.319C24.2285 232.347 23.1983 232.064 22.2949 231.501C21.2753 230.882 19.1655 229.079 19.2646 223.425L31.3573 224.265Z" fill="#455A64"/>
<path d="M31.5558 220.445C31.6997 222.837 31.3491 225.232 30.5292 227.459C29.7787 229.346 27.768 231.768 25.644 231.768C23.52 231.768 21.2332 231.057 19.8951 227.444C18.7835 224.426 19.3287 221.286 19.7039 219.215L31.5558 220.445Z" fill="#EBEBEB"/>
<path d="M64.2371 166.064C64.2371 166.064 63.1893 193.186 63.4512 195.86C63.6919 198.374 64.5345 199.68 65.993 202.087C67.9754 205.387 70.5949 207.626 73.8305 210.055C73.3915 211.331 69.5471 211.346 67.6355 210.414C65.13 209.106 62.7309 207.572 60.4635 205.83C57.8085 203.851 54.0915 202.285 54.0207 199.214C54.0033 198.991 54.02 198.766 54.0702 198.549C53.9499 195.967 51.8188 185.691 50.0983 176.6C48.3779 167.508 48.5974 157.729 49.8222 152.77L45.7087 126.955L64.938 124.747C65.5681 140.287 64.5345 157.859 64.2371 166.064Z" fill="#FFA8A7"/>
<path d="M78.7439 215.35C78.8926 216.06 78.8643 216.557 76.4925 217.642C74.1207 218.727 70.4603 218.963 67.3239 218.406C64.1874 217.848 61.3271 215.097 59.9111 213.142C58.4951 211.186 55.7339 209.444 53.9356 208.558C52.1373 207.671 51.7479 207.305 51.847 206.678C51.9461 206.052 52.3355 204.386 52.3355 204.386L78.7439 215.35Z" fill="#EBEBEB"/>
<path d="M51.9534 201.804C52.2649 199.734 53.0366 198.748 52.9375 197.082C52.8384 195.417 53.6951 195.638 53.6951 195.638L53.8438 196.578C53.9641 197.189 54.3181 197.411 54.6296 197.869C55.3376 198.901 55.3376 199.665 56.2226 199.917C57.1076 200.169 57.143 198.595 58.0918 198.526C58.4589 198.543 58.8072 198.706 59.0688 198.985C58.9278 198.578 58.8793 198.14 58.9272 197.709C59.1325 196.7 61.4406 196.357 63.069 195.921C64.6974 195.486 64.0319 196.8 64.7116 198.442C65.3912 200.085 69.1649 205.448 70.6658 207.076C72.0249 208.249 73.443 209.341 74.9138 210.345C76.9812 211.721 77.6963 212.133 78.2981 212.485C78.8999 212.836 79.1194 214.28 78.8645 215.159C78.6096 216.037 74.1846 218.429 69.2994 217.603C64.4142 216.778 62.8849 214.677 61.0441 212.057C59.6573 210.086 57.8238 208.534 55.72 207.549C54.4158 207.035 53.2143 206.257 52.1799 205.257C51.8385 204.145 51.7606 202.957 51.9534 201.804Z" fill="#08915C"/>
<path opacity="0.1" d="M70.6658 207.075C69.1648 205.448 65.3983 200.077 64.7115 198.442C64.0247 196.807 64.7115 195.493 63.0689 195.921C61.4264 196.349 59.1324 196.685 58.9271 197.709C58.7218 198.733 59.6351 200.994 61.6034 203.744C63.5716 206.495 67.2037 209.169 67.2037 209.169L70.6658 207.075Z" fill="black"/>
<path d="M77.9794 213.432C77.1227 213.73 76.181 214.036 76.1669 214.395C76.1527 214.754 76.2377 216.687 75.8058 217.405C75.5955 217.717 75.3212 217.972 75.0044 218.151C74.6875 218.33 74.3367 218.428 73.9792 218.436C71.8029 218.717 69.6009 218.668 67.4372 218.291C65.1114 217.738 62.9884 216.457 61.3343 214.609C59.366 212.485 58.9695 211.415 56.442 209.857C53.9144 208.298 52.994 208.084 51.84 207.091C51.7701 207.364 51.7203 207.642 51.6913 207.924C52.0071 208.317 52.4051 208.623 52.8524 208.817C54.4806 209.51 56.0491 210.356 57.5394 211.346C58.8095 212.519 59.9931 213.796 61.0794 215.166C62.8184 217.046 65.0365 218.326 67.4514 218.841C70.2268 219.376 73.9933 219.231 76.3934 218.146C78.7936 217.061 78.8927 216.519 79.0839 216.19C79.2644 215.33 79.2644 214.437 79.0839 213.577C78.921 213.134 78.5953 213.195 77.9794 213.432Z" fill="#455A64"/>
<path d="M66.3894 208.428C68.0744 207.014 69.5541 206.441 70.2338 206.587C70.5409 206.728 70.7917 206.983 70.9418 207.305C70.9418 207.305 69.6178 207.305 67.2248 209.169C67.2036 209.169 66.4744 209.131 66.3894 208.428Z" fill="#455A64"/>
<path d="M68.7754 204.707C67.501 204.799 65.9434 205.471 64.1238 206.808C63.9393 206.78 63.7672 206.692 63.6306 206.555C63.4939 206.419 63.3992 206.24 63.3591 206.044C63.3591 206.044 65.7876 203.882 68.2019 203.89C68.2019 203.92 68.7825 204.203 68.7754 204.707Z" fill="#455A64"/>
<path d="M66.9133 202.079C65.8159 201.727 62.8352 203.5 61.9573 204.463C61.8557 204.464 61.7549 204.443 61.6609 204.401C61.5668 204.36 61.4814 204.299 61.4095 204.221C61.3377 204.143 61.2809 204.051 61.2424 203.95C61.204 203.848 61.1846 203.74 61.1856 203.63C61.1856 203.63 63.5291 201.132 66.2336 201.078C66.2478 201.078 67.0195 201.391 66.9133 202.079Z" fill="#455A64"/>
<path d="M65.2919 199.581C64.7539 199.512 61.7519 199.818 60.0669 201.644C59.894 201.58 59.7424 201.463 59.6315 201.306C59.5206 201.15 59.4552 200.962 59.4438 200.765C60.1549 200.042 60.9929 199.479 61.9085 199.11C62.824 198.742 63.7987 198.574 64.7751 198.618C65.0502 198.86 65.234 199.203 65.2919 199.581Z" fill="#455A64"/>
<path d="M36.3065 178.998C34.3171 187.937 31.4072 200.452 31.039 205.67C30.9257 206.915 29.8283 219.261 29.3115 222.065C28.7946 224.869 23.343 225.037 22.8899 220.232C22.5855 217.038 22.8404 206.938 22.8899 205.402C23.3289 197.25 22.7696 184.828 22.8899 174.43C23.0103 164.032 24.6812 159.15 24.9148 154.352C25.1484 149.554 26.1396 119.972 26.1396 120.102C26.1396 120.232 46.0982 124.38 46.0982 124.38C46.0982 124.38 41.4608 153.489 40.8307 157.92C40.2005 162.351 38.296 170.052 36.3065 178.998Z" fill="#FFA8A7"/>
<path d="M23.0436 202.797C22.2011 202.866 22.0736 206.227 21.4152 210.437C20.7921 214.433 20.5797 214.517 19.9638 217.779C19.3478 221.041 18.9796 223.127 20.2965 226.267C22.7321 232.089 27.7093 230.851 29.7696 227.283C31.8299 223.715 31.6741 221.171 31.4121 217.351C31.136 213.47 31.5396 212.003 31.6529 209.062C31.7591 206.243 32.0777 203.485 31.3413 203.179C31.2989 203.439 31.1856 203.89 31.0935 204.6C30.959 205.555 31.0369 206.357 30.5625 206.38L30.6263 205.295C30.6263 204.975 30.6263 204.623 30.3785 204.432C29.9537 204.119 28.3182 204.142 26.888 204.012C25.8824 203.913 24.8705 203.913 23.8649 204.012C23.6999 204.044 23.551 204.139 23.4447 204.279C23.3384 204.419 23.2816 204.595 23.2843 204.776C23.2843 205.288 23.1993 205.983 23.1993 205.983C22.9515 205.983 22.9232 205.662 22.9161 205.57C22.9161 205.12 22.9586 204.806 22.9728 204.256C22.9798 204.096 23.0294 203.034 23.0436 202.797Z" fill="#08915C"/>
<path d="M28.0795 230.798C27.5344 231.18 26.6069 230.515 26.6635 229.552C26.7202 228.59 25.8139 228.689 24.8015 228.62C23.789 228.552 23.0386 228.261 22.9324 229.224C22.8262 230.187 22.3589 230.698 21.658 230.263C21.658 230.263 22.2952 231.714 24.674 231.951C27.0529 232.188 28.0795 230.798 28.0795 230.798Z" fill="#455A64"/>
<path opacity="0.1" d="M23.2864 204.86C23.2836 204.679 23.3405 204.503 23.4468 204.363C23.5531 204.223 23.702 204.128 23.8669 204.096C24.8726 203.997 25.8845 203.997 26.8901 204.096C28.3061 204.226 29.9558 204.203 30.3806 204.516C30.6496 204.707 30.6425 205.059 30.6284 205.379L30.5646 206.464C30.3947 208.474 29.0354 217.504 28.7876 218.986C28.7876 218.986 25.6582 218.52 22.4722 218.398C22.4722 218.077 23.1802 206.105 23.1802 206.105C23.1802 206.105 23.258 205.372 23.2864 204.86Z" fill="black"/>
<path d="M29.0565 219.544C26.7731 218.984 24.4237 218.803 22.0898 219.009C21.9733 218.557 21.9733 218.079 22.0898 217.626C24.4989 217.504 26.9124 217.722 29.2689 218.276C29.3142 218.492 29.3187 218.715 29.2822 218.933C29.2457 219.151 29.169 219.359 29.0565 219.544Z" fill="#455A64"/>
<path d="M29.4601 216.052C27.1008 215.452 24.6696 215.248 22.2527 215.449C22.1312 215.242 22.0667 215.002 22.0667 214.757C22.0667 214.513 22.1312 214.273 22.2527 214.066C24.7496 213.94 27.2511 214.166 29.6938 214.738C29.7554 214.962 29.7663 215.198 29.7256 215.426C29.685 215.655 29.5939 215.87 29.4601 216.052Z" fill="#455A64"/>
<path d="M29.892 212.569C27.4576 211.922 24.9438 211.695 22.4438 211.896C22.3119 211.446 22.3119 210.963 22.4438 210.513C25.0238 210.387 27.6082 210.621 30.1327 211.209C30.1946 211.44 30.2051 211.683 30.1633 211.92C30.1214 212.156 30.0285 212.378 29.892 212.569Z" fill="#455A64"/>
<path d="M30.8194 208.924C28.1118 208.291 25.3325 208.093 22.5712 208.336C22.4411 208.136 22.3713 207.897 22.3713 207.652C22.3713 207.408 22.4411 207.169 22.5712 206.969C25.4137 206.78 28.2669 206.967 31.0672 207.526C31.1232 207.765 31.1301 208.013 31.0873 208.255C31.0444 208.497 30.953 208.725 30.8194 208.924Z" fill="#455A64"/>
<path d="M25.644 110.498C26.267 98.2055 27.768 94.6453 30.0973 88.9076L63.8406 88.2277C65.1433 103.508 65.8159 131.852 65.4973 149.63C65.5327 159.02 63.7273 191.757 63.7273 191.757C63.7273 191.757 62.9839 193.377 58.1695 193.446C53.3551 193.514 52.7816 192.812 52.7816 192.812C52.7816 192.812 49.6664 176.913 48.8735 171.244C47.9247 164.521 48.6186 157.347 49.3053 152.64L45.6946 127.864C45.6946 127.864 44.0449 142.38 42.2183 153.993C40.4766 165.063 32.9435 197.044 32.9435 197.044C32.9435 197.044 32.37 198.878 27.7326 198.626C23.0952 198.373 22.4722 196.418 22.4722 196.418C22.4722 196.418 22.3023 184.087 22.3235 176.233C22.2989 169.785 22.8346 163.35 23.9236 157.011C24.7095 152.388 24.4546 133.304 25.644 110.498Z" fill="#37474F"/>
<path d="M45.6946 127.864L47.6062 113.348C47.6062 113.348 54.8349 111.927 58.7289 106.969C58.7289 106.969 57.3837 112.783 49.801 115.373L47.5495 127.849L49.2771 152.694L45.6946 127.864Z" fill="#263238"/>
<path d="M52.2081 42.2272C57.0155 41.2264 57.1146 39.813 64.3716 40.3249C65.3415 40.088 67.7133 38.6746 70.2834 37.9565C73.611 37.0168 75.7704 37.3987 78.1564 37.2536C79.7635 37.0167 86.1638 37.0932 87.0347 37.9488C87.7002 38.6059 87.8914 39.3699 88.21 40.8902L89.803 47.2314C87.7604 48.4076 85.5642 49.2422 83.2894 49.7068C79.4803 50.5854 75.7916 52.0675 71.0056 53.1142C65.5256 54.3137 64.1875 55.8111 63.9255 59.6006C56.088 53.3205 52.2081 42.2272 52.2081 42.2272Z" fill="#FFA8A7"/>
<path d="M78.39 38.2621C77.6324 35.3818 78.1351 29.4532 77.9086 25.5186C77.7316 22.4626 77.2006 20.438 76.6342 19.8115C75.855 20.1034 75.0267 20.2102 74.2057 20.1247C72.4003 19.9567 71.9118 19.3073 71.9118 19.3073C71.9118 19.3073 71.3525 20.2928 70.4958 20.0178C69.6391 19.7427 69.3276 19.3913 68.2868 18.9405C67.2461 18.4898 66.6868 17.9855 66.6301 17.466C66.6188 17.0781 66.6941 16.6929 66.8496 16.3429C66.8496 16.3429 65.7876 14.8149 65.3486 14.2725C64.9097 13.7301 65.3132 13.0883 65.7168 12.4236C66.1204 11.7589 68.209 8.67238 68.5984 7.83961C68.9878 7.00685 69.7524 7.51873 70.5029 7.64861C71.2534 7.77849 73.7314 6.88462 75.0128 7.46526C76.2943 8.0459 77.5121 9.79545 78.6095 10.972C79.5065 11.8898 80.5225 12.6619 81.6256 13.264C82.6876 13.9211 82.8929 15.09 83.3389 16.1596C83.785 17.2292 85.8948 22.0806 87.9692 26.8556C90.426 32.5016 91.5092 39.1407 91.1836 42.9836C90.9004 45.9862 91.2473 47.4149 86.9356 48.1254C83.9195 48.6449 78.39 38.2621 78.39 38.2621Z" fill="#FFA8A7"/>
<path d="M80.776 18.0314C80.2257 18.672 79.5228 19.1372 78.7441 19.376C78.3331 19.4791 77.9074 19.4947 77.4909 19.4218C77.0511 19.3523 76.6373 19.1541 76.2944 18.8488C75.6988 18.1987 75.2969 17.3713 75.1404 16.4728L74.9775 15.8769L74.8005 15.2733C74.7275 14.917 74.5297 14.6049 74.2483 14.4024L73.7314 14.0433L74.3262 13.944C74.7627 13.8676 75.1855 13.7181 75.5793 13.5009C75.9849 13.2756 76.3162 12.9207 76.528 12.4847C76.4728 12.7365 76.3744 12.975 76.2377 13.1876C76.0901 13.398 75.9189 13.5879 75.728 13.753C75.3324 14.0714 74.8825 14.3024 74.404 14.4329L74.4819 13.9745C74.6891 14.0848 74.8706 14.2441 75.0129 14.4406C75.1445 14.6335 75.2472 14.8475 75.3174 15.0747L75.5297 15.6706C75.6007 15.8734 75.6621 16.08 75.7138 16.2895C75.8627 17.0619 76.1972 17.7786 76.6838 18.3675C76.9378 18.6199 77.2514 18.7917 77.59 18.8641C77.9441 18.9581 78.3108 18.984 78.6733 18.9405C79.4257 18.8006 80.1422 18.4908 80.776 18.0314Z" fill="#F28F8F"/>
<path d="M75.7491 17.3132C75.3089 17.5405 74.8164 17.6229 74.3331 17.5501C74.0874 17.5237 73.8478 17.4513 73.6251 17.3361C73.4201 17.218 73.2317 17.0688 73.0658 16.893C72.4504 16.2328 71.9216 15.4847 71.4941 14.6698C71.3996 14.4611 71.3581 14.2291 71.3737 13.9975C71.4075 13.7796 71.477 13.5701 71.579 13.3786C71.74 13.0009 71.9294 12.638 72.1454 12.2937C72.6189 11.6502 72.992 10.9277 73.2499 10.1545C73.04 10.95 72.7073 11.7017 72.2658 12.3778C72.079 12.7315 71.9157 13.0992 71.7773 13.4779C71.7007 13.6488 71.6504 13.832 71.6286 14.0204C71.6281 14.2026 71.6721 14.3818 71.756 14.5399C72.2116 15.2865 72.7568 15.9647 73.3774 16.5569C73.6503 16.8345 74.0078 16.9948 74.3827 17.0076C74.7458 17.0384 75.1094 16.9562 75.4305 16.7708L75.7491 17.3132Z" fill="#F28F8F"/>
<path d="M71.5223 14.1426C72.0443 14.1657 72.5621 14.2529 73.0658 14.4023C72.5645 14.3618 72.0604 14.3875 71.5648 14.4787L71.5223 14.1426Z" fill="#F28F8F"/>
<path d="M69.0728 14.0967C69.5951 14.1161 70.1133 14.2033 70.6163 14.3565C70.1125 14.3161 69.6062 14.3418 69.1082 14.4329L69.0728 14.0967Z" fill="#F28F8F"/>
<path d="M67.1965 13.9287C67.6815 14.0302 68.1559 14.1837 68.6125 14.3871C68.1454 14.2964 67.6711 14.2555 67.1965 14.2649V13.9287Z" fill="#F28F8F"/>
<path d="M73.7031 17.382C73.3066 17.382 72.8889 17.5118 72.4216 17.5271C71.9406 17.5404 71.4685 17.3849 71.0764 17.084C70.7106 16.8075 70.3859 16.4726 70.1135 16.0908C69.8445 15.7088 69.632 15.3268 69.3701 14.9677C69.2244 14.7726 69.1139 14.5498 69.0444 14.3107C68.9889 14.0498 69.0295 13.7758 69.1577 13.5467C69.398 13.1731 69.668 12.8229 69.9648 12.5C70.553 11.8275 71.0318 11.0526 71.3808 10.208C71.0704 11.0655 70.6328 11.8629 70.0852 12.5688C69.8205 12.913 69.5837 13.2811 69.3772 13.6689C69.3014 13.8551 69.2846 14.063 69.3294 14.2605C69.3742 14.458 69.4781 14.6341 69.625 14.7614C69.9082 15.1052 70.156 15.5254 70.425 15.8234C70.6943 16.1481 71.0041 16.4309 71.3454 16.6638C71.6633 16.8818 72.0397 16.9787 72.4145 16.9388C72.7897 16.9388 73.2004 16.7784 73.6535 16.7173L73.7031 17.382Z" fill="#F28F8F"/>
<path d="M71.0764 17.084C70.6866 17.1017 70.2962 17.0889 69.9082 17.0458L69.3347 16.9465C69.1096 16.9205 68.8935 16.8367 68.7046 16.702C68.4035 16.4119 68.1477 16.0714 67.947 15.6935C67.7558 15.3497 67.5222 15.0441 67.3027 14.6927C67.176 14.5083 67.0934 14.2932 67.062 14.0662C67.0505 13.8317 67.1075 13.5993 67.2248 13.4015C67.4247 13.0515 67.647 12.717 67.8904 12.4007C68.3815 11.7824 68.8333 11.1289 69.2426 10.4448C68.8778 11.1589 68.4686 11.8455 68.0178 12.5C67.6355 13.1494 66.9912 13.9058 67.5576 14.5017C67.7771 14.7996 68.0461 15.1129 68.2656 15.449C68.4627 15.7624 68.7012 16.043 68.9736 16.2818C69.2891 16.4042 69.6225 16.4637 69.9577 16.4575C70.3206 16.4878 70.6852 16.4878 71.0481 16.4575L71.0764 17.084Z" fill="#F28F8F"/>
<path d="M71.9117 19.3072C72.0191 18.9397 72.0552 18.5522 72.0179 18.1689C72.0039 17.9832 71.9658 17.8006 71.9047 17.6264C71.8538 17.4321 71.7724 17.2486 71.6639 17.084C71.859 17.1513 72.0249 17.2924 72.1312 17.4813C72.238 17.6703 72.3078 17.8809 72.3366 18.1001C72.368 18.3238 72.3455 18.5524 72.271 18.7639C72.1966 18.9753 72.0729 19.1625 71.9117 19.3072Z" fill="#F28F8F"/>
<path d="M66.8496 16.32C67.1587 16.5626 67.5375 16.679 67.9187 16.6485C68.0986 16.6424 68.277 16.6116 68.4497 16.5568C68.5934 16.5134 68.7248 16.432 68.832 16.32L69.2002 16.8624C68.981 16.9841 68.7387 17.0495 68.4922 17.0534C68.2779 17.0616 68.0635 17.0385 67.855 16.9847C67.4597 16.8925 67.1052 16.6581 66.8496 16.32Z" fill="#F28F8F"/>
<path d="M83.8134 41.2646C83.8134 41.2646 83.0204 36.864 78.036 35.4888C78.0856 36.1611 78.1139 36.9175 78.1564 37.2536C80.4376 37.7878 82.4536 39.2172 83.8134 41.2646Z" fill="#F28F8F"/>
<path d="M62.0989 53.9241C61.0935 47.728 56.0597 42.2807 48.746 41.4403L38.919 41.2646C38.919 41.2646 36.3843 41.723 32.0018 42.7162C27.6193 43.7094 25.3466 45.9403 24.9572 49.7144C24.7023 52.2433 24.7944 53.6872 25.5873 57.8739L26.5502 65.109C26.5502 65.109 29.9415 75.1709 30.2318 79.0291C30.6339 84.1516 29.9061 89.304 28.1078 94.0646C41.0501 100.177 53.1073 102.14 63.1255 94.3473C64.584 84.9272 64.8318 70.8619 62.0989 53.9241Z" fill="#FFA8A7"/>
<path d="M64.7114 63.5046C64.1875 48.1635 54.2047 41.723 54.2047 41.723C54.2047 41.723 47.1247 40.3096 42.1262 40.6305C38.6338 40.9401 35.1824 41.6547 31.8319 42.762C31.8319 42.762 34.6639 58.1643 26.5502 65.109C26.5502 65.109 27.159 67.8518 28.5609 73.513C29.9627 79.1743 30.9893 86.7608 26.7342 95.7531C26.7342 95.7531 30.3167 99.5731 43.9033 100.604C57.4898 101.636 64.322 94.821 64.322 94.821C64.322 94.821 65.2282 78.4332 64.7114 63.5046Z" fill="#08915C"/>
<path opacity="0.1" d="M42.1262 95.6079C42.0554 93.6674 36.0657 93.5222 34.8409 92.7582C33.616 91.9942 34.0479 85.7294 33.6019 80.687C33.1558 75.6446 30.2247 67.2788 28.7733 63.2525L29.099 62.1906C28.3841 63.2908 27.5256 64.2737 26.5502 65.109C26.5502 65.109 27.159 67.8518 28.5609 73.513C29.9627 79.1743 30.9893 86.7608 26.7342 95.7531C26.7342 95.7531 29.6087 98.8091 39.9385 100.192C40.0361 99.919 40.2223 99.6937 40.4624 99.5578C40.6952 99.4538 40.9033 99.2945 41.0713 99.0918C41.2695 98.7862 41.227 98.3278 41.3828 98.0222C41.5386 97.7166 41.7793 97.5714 41.928 97.304C42.0607 97.0292 42.1149 96.7182 42.0837 96.4101C42.0766 96.1351 42.1404 95.883 42.1262 95.6079Z" fill="black"/>
<path d="M31.8319 42.762C31.8319 42.762 26.2245 41.1652 22.5288 43.526C19.4844 45.4666 17.3462 47.5294 15.9161 52.2127C13.7921 55.07 11.0733 56.8578 9.20422 59.6082C5.84122 64.5742 3.78803 69.9222 1.89767 73.1081C0.878149 74.8271 -0.127215 77.2337 0.212625 78.8992C0.551616 80.2673 1.2239 81.5124 2.15963 82.5053L13.0628 77.9977C16.0931 74.4374 22.0473 70.0903 26.1962 64.2915L26.5502 65.1166C28.3178 63.9286 29.7958 62.3006 30.8601 60.3691C31.9245 58.4376 32.5442 56.2589 32.6673 54.0157C33.1629 44.8401 31.8319 42.762 31.8319 42.762Z" fill="#FFA8A7"/>
<path d="M0.864014 80.5876C1.82689 82.2837 3.85885 84.7208 7.44841 88.0366C10.1813 90.5578 14.2735 93.3846 16.9214 95.2793C20.1145 97.5713 21.1694 98.236 24.4616 100.368C26.26 101.529 30.4301 103.546 32.1859 103.546C33.1134 103.546 36.4339 103.401 37.1419 102.728C37.4891 102.416 37.8047 102.065 38.0836 101.682C38.184 101.525 38.3004 101.382 38.4305 101.254C38.5464 101.163 38.6696 101.084 38.7986 101.017C39.2655 100.72 39.6061 100.237 39.7474 99.6723C39.7752 99.4969 39.8328 99.3285 39.9173 99.1757C40.0665 99.0325 40.2362 98.9163 40.42 98.8319C40.6065 98.7227 40.7697 98.5724 40.899 98.3908C41.0283 98.2092 41.1208 98.0003 41.1704 97.7776C41.2248 97.6361 41.2697 97.4905 41.305 97.3421C41.305 97.3421 42.0767 97.174 42.3174 97.0976C42.7139 96.983 42.4165 96.2038 42.3174 95.944C41.8714 94.9584 40.1368 94.8056 39.4075 94.7216C38.0426 94.5803 36.6694 94.5573 35.3011 94.6528C32.1505 94.1715 30.4796 93.079 29.446 92.1011C28.8017 91.4822 28.6176 90.8787 28.738 90.4661C28.9783 89.701 29.163 88.9168 29.2902 88.1206C28.3336 88.1005 27.3795 88.2318 26.4582 88.5103C24.9431 88.9381 23.782 88.8999 21.6934 86.4704C18.7552 83.0477 18.4436 80.1216 14.493 76.5384C10.5424 72.9552 0.864014 80.5876 0.864014 80.5876Z" fill="#FFA8A7"/>
<path d="M41.2837 97.3422C40.5341 97.5216 39.7752 97.6517 39.011 97.7319L36.7171 98.0298C36.3261 98.068 35.9328 98.068 35.5418 98.0298C35.1562 97.9644 34.7753 97.87 34.4019 97.7472C33.6568 97.5271 32.9298 97.2409 32.2284 96.8915C32.9364 97.1207 33.7152 97.3269 34.4586 97.5027C34.8338 97.5714 35.2091 97.6937 35.5701 97.7242C35.9448 97.7547 36.3211 97.7547 36.6958 97.7242C37.4463 97.6631 38.218 97.5409 38.9827 97.5027C39.7473 97.4645 40.5119 97.4186 41.2837 97.3422Z" fill="#F28F8F"/>
<path d="M28.7026 61.9155C28.7734 60.716 28.7592 60.1354 28.7592 60.1354C27.974 61.569 27.1185 62.9563 26.1963 64.2915L26.5503 65.109C27.3613 64.5945 28.1084 63.9706 28.7734 63.2525C28.7058 62.8108 28.682 62.3626 28.7026 61.9155Z" fill="#F28F8F"/>
<path d="M14.4505 76.485C13.0911 74.85 9.74938 73.7881 8.44666 74.277C8.44666 74.277 11.1725 72.5962 15.7957 75.1709L14.4505 76.485Z" fill="#F28F8F"/>
<path d="M35.4145 9.44397C34.6672 9.66937 33.9862 10.0984 33.437 10.6897C32.8877 11.2811 32.4886 12.015 32.278 12.8208C31.7258 14.7767 32.0444 18.4592 33.1772 23.28C33.885 26.4671 34.9576 29.5468 36.3703 32.448C36.8081 33.2671 37.52 33.874 38.3598 34.1441L38.1969 28.4141L37.9845 24.4184C37.9845 24.4184 40.3422 20.904 40.59 18.0313C40.9015 14.3336 40.1722 12.8285 40.1722 12.8285L35.4145 9.44397Z" fill="#37474F"/>
<path d="M35.648 10.7428L31.7045 9.87946C31.7997 9.2809 32.1111 8.74759 32.5704 8.39663C33.0297 8.04568 33.5993 7.90577 34.1541 8.00765C34.4195 8.07971 34.669 8.20793 34.8882 8.38486C35.1073 8.5618 35.2917 8.78392 35.4307 9.03836C35.5697 9.29279 35.6604 9.57448 35.6977 9.86706C35.735 10.1596 35.7181 10.4573 35.648 10.7428Z" fill="#37474F"/>
<path d="M35.7259 9.65027L32.7665 6.70887C33.1344 6.25135 33.6552 5.96961 34.215 5.92523C34.7749 5.88085 35.3283 6.07744 35.7542 6.47204C35.9493 6.68057 36.1037 6.92923 36.2082 7.20329C36.3127 7.47736 36.3652 7.77127 36.3625 8.06761C36.3599 8.36396 36.3022 8.65672 36.1928 8.92856C36.0835 9.20041 35.9247 9.44582 35.7259 9.65027Z" fill="#37474F"/>
<path d="M56.5626 24.3058C60.7249 21.7822 62.2033 16.0953 59.8646 11.6037C57.526 7.11218 52.2559 5.51686 48.0936 8.04049C43.9312 10.5641 42.4529 16.251 44.7915 20.7426C47.1302 25.2341 52.4003 26.8294 56.5626 24.3058Z" fill="#37474F"/>
<path d="M38.1189 23.8148C37.2339 24.6552 36.4976 22.4931 35.74 21.6604C34.9825 20.8276 32.5257 19.6892 31.3292 22.4778C30.1327 25.2664 32.4407 29.2621 34.324 30.0491C34.7635 30.2614 35.2477 30.3422 35.7261 30.2831C36.2044 30.2239 36.6592 30.027 37.0428 29.7129L37.1135 41.8681C38.4092 44.588 43.4855 48.11 49.3265 47.0328C51.8187 46.5744 50.6576 43.2892 49.3265 41.4556L49.277 36.9709C50.7573 37.2131 52.2575 37.2823 53.7515 37.1772C56.1871 36.7417 57.4544 34.7477 58.1695 31.8979C59.3164 27.3139 59.7412 19.6052 58.0633 10.7275C55.3162 8.4355 45.8503 8.90155 40.1438 12.8591C40.6394 20.7435 39.011 22.9744 38.1189 23.8148Z" fill="#FFA8A7"/>
<path d="M59.4156 4.41687C59.3865 4.33839 59.3382 4.26992 59.2759 4.21878C59.2135 4.16764 59.1395 4.13576 59.0616 4.12655C58.9371 4.13786 58.8197 4.19442 58.7288 4.28699C58.0482 4.87982 57.3236 5.41131 56.5624 5.87611C56.7535 4.81903 56.7535 3.73204 56.5624 2.67495C56.4491 2.03319 56.2721 0.528114 55.5287 0.382954C55.0826 0.291274 54.7003 0.688557 54.3746 1.02472C51.4081 4.08072 47.507 2.69023 43.9175 2.83539C40.9155 2.95763 37.2977 4.30228 35.9595 7.46523C35.3507 8.90919 35.2515 10.4296 36.4835 11.4151C37.5827 12.2044 38.8394 12.7018 40.1509 12.8667C46.1406 13.9516 54.7286 16.5492 59.1182 10.5059C59.7644 9.60399 60.0886 8.4814 60.0316 7.34299C60.0302 6.34506 59.8196 5.36039 59.4156 4.46272V4.41687Z" fill="#37474F"/>
<path d="M49.3054 36.948C49.3054 36.948 43.8538 35.8249 41.9422 34.7476C40.6607 34.0295 38.9474 32.8606 38.6288 32.0507C38.6974 32.7767 38.9077 33.4787 39.2457 34.1108C39.5837 34.7428 40.0418 35.2905 40.5899 35.7179C43.5352 38.0634 49.3266 38.8503 49.3266 38.8503L49.3054 36.948Z" fill="#F28F8F"/>
<path d="M47.8186 21.5763C47.8186 21.8883 47.7037 22.1876 47.4992 22.4083C47.2947 22.6289 47.0174 22.7529 46.7282 22.7529C46.4391 22.7529 46.1617 22.6289 45.9573 22.4083C45.7528 22.1876 45.6379 21.8883 45.6379 21.5763C45.6322 21.4189 45.6557 21.2618 45.707 21.1143C45.7583 20.9668 45.8363 20.8319 45.9365 20.7173C46.0367 20.6028 46.1571 20.5109 46.2906 20.4472C46.4242 20.3835 46.5681 20.3492 46.7141 20.3463C46.8616 20.3482 47.0073 20.3817 47.1427 20.4447C47.2782 20.5077 47.4008 20.599 47.5035 20.7133C47.6061 20.8276 47.6868 20.9627 47.7409 21.1108C47.795 21.2589 47.8214 21.4171 47.8186 21.5763Z" fill="#263238"/>
<path d="M47.2097 17.9855L44.7601 19.185C44.6241 18.8231 44.6218 18.4188 44.7534 18.0551C44.8851 17.6914 45.1408 17.3958 45.4681 17.2292C45.628 17.1517 45.8007 17.1098 45.976 17.1061C46.1513 17.1024 46.3254 17.1369 46.488 17.2075C46.6506 17.2781 46.7984 17.3834 46.9224 17.5171C47.0464 17.6508 47.1441 17.8101 47.2097 17.9855Z" fill="#263238"/>
<path d="M47.9601 29.1246L52.3285 30.8436C52.2375 31.1599 52.0882 31.4531 51.8896 31.7056C51.691 31.9581 51.4473 32.1647 51.1729 32.3131C50.8985 32.4615 50.5992 32.5486 50.2929 32.5692C49.9866 32.5897 49.6796 32.5433 49.3903 32.4328C48.8012 32.1887 48.3229 31.7074 48.0561 31.0904C47.7893 30.4733 47.7549 29.7686 47.9601 29.1246Z" fill="#B16668"/>
<path d="M49.3904 32.4327C49.7772 32.5776 50.1931 32.6066 50.594 32.5168C50.5649 31.9303 50.3284 31.3783 49.9332 30.9746C49.538 30.5708 49.0142 30.3462 48.47 30.347C48.2679 30.3509 48.0675 30.387 47.8752 30.454C47.9446 30.8983 48.1212 31.3151 48.3872 31.6624C48.6531 32.0097 48.9991 32.2754 49.3904 32.4327Z" fill="#F28F8F"/>
<path d="M57.7376 18.7724L55.2101 17.7869C55.2619 17.6063 55.3471 17.4389 55.4606 17.2948C55.5741 17.1507 55.7135 17.033 55.8703 16.9487C56.0272 16.8645 56.1982 16.8154 56.3732 16.8045C56.5481 16.7936 56.7232 16.8211 56.888 16.8854C57.2261 17.0235 57.5024 17.2958 57.6604 17.6467C57.8183 17.9975 57.846 18.4003 57.7376 18.7724Z" fill="#263238"/>
<path d="M57.1782 21.2325C57.1713 21.4628 57.1018 21.6858 56.9785 21.8739C56.8552 22.0619 56.6834 22.2068 56.4845 22.2904C56.2855 22.3741 56.0682 22.3929 55.8595 22.3445C55.6507 22.2961 55.4597 22.1827 55.3102 22.0182C55.1607 21.8537 55.0592 21.6455 55.0183 21.4194C54.9775 21.1933 54.999 20.9592 55.0803 20.7461C55.1616 20.5331 55.2991 20.3505 55.4757 20.221C55.6523 20.0916 55.8603 20.0209 56.0738 20.0178C56.3692 20.0218 56.6512 20.1518 56.8581 20.3794C57.0651 20.607 57.1801 20.9137 57.1782 21.2325Z" fill="#263238"/>
<path d="M51.1958 19.9185L51.8755 27.3751L55.5217 26.0305L51.1958 19.9185Z" fill="#F28F8F"/>
</svg>
