<svg width="209" height="202" viewBox="0 0 209 202" fill="none" xmlns="http://www.w3.org/2000/svg">
<path d="M175.132 52.7129C172.777 51.0654 171.711 52.4417 170.85 51.0654C169.99 49.689 173.205 46.116 166.785 42.5429C166.785 42.5429 166.357 34.8476 157.582 34.5764C148.806 34.3052 151.166 42.2717 148.812 44.1904C146.457 46.1092 145.812 43.0921 143.458 45.0176C141.103 46.9431 142.175 50.7874 140.247 51.3433C138.32 51.8993 135.754 48.8686 133.383 50.7874C131.013 52.7061 131.044 54.3604 129.972 54.3604C128.901 54.3604 126.762 53.2553 125.479 54.3604C124.196 55.4656 122.697 56.8284 122.697 56.8284H176.854C176.854 56.8284 177.492 54.3605 175.132 52.7129Z" fill="#08915C"/>
<path opacity="0.5" d="M175.132 52.7129C172.777 51.0654 171.711 52.4417 170.85 51.0654C169.99 49.689 173.205 46.116 166.785 42.5429C166.785 42.5429 166.357 34.8476 157.582 34.5764C148.806 34.3052 151.166 42.2717 148.812 44.1904C146.457 46.1092 145.812 43.0921 143.458 45.0176C141.103 46.9431 142.175 50.7874 140.247 51.3433C138.32 51.8993 135.754 48.8686 133.383 50.7874C131.013 52.7061 131.044 54.3604 129.972 54.3604C128.901 54.3604 126.762 53.2553 125.479 54.3604C124.196 55.4656 122.697 56.8284 122.697 56.8284H176.854C176.854 56.8284 177.492 54.3605 175.132 52.7129Z" fill="#08915C"/>
<path d="M110.568 10.7786C109.175 9.79547 108.541 10.6159 108.034 9.79548C107.527 8.9751 109.428 6.86651 105.621 4.75115C105.621 4.75115 105.368 0.188215 100.167 0.00515501C94.9661 -0.177905 96.36 4.5681 94.9661 5.70714C93.5722 6.84618 93.1867 5.02914 91.7981 6.1953C90.4095 7.36146 91.0378 9.5853 89.8973 9.94464C88.7568 10.304 87.2309 8.47337 85.837 9.61241C84.4431 10.7515 84.4378 11.7346 83.8042 11.7346C83.1706 11.7346 81.9034 11.0566 81.1642 11.7346C80.425 12.4126 79.5115 13.199 79.5115 13.199H111.609C111.609 13.199 111.962 11.7549 110.568 10.7786Z" fill="#08915C"/>
<path opacity="0.5" d="M110.568 10.7786C109.175 9.79547 108.541 10.6159 108.034 9.79548C107.527 8.9751 109.428 6.86651 105.621 4.75115C105.621 4.75115 105.368 0.188215 100.167 0.00515501C94.9661 -0.177905 96.36 4.5681 94.9661 5.70714C93.5722 6.84618 93.1867 5.02914 91.7981 6.1953C90.4095 7.36146 91.0378 9.5853 89.8973 9.94464C88.7568 10.304 87.2309 8.47337 85.837 9.61241C84.4431 10.7515 84.4378 11.7346 83.8042 11.7346C83.1706 11.7346 81.9034 11.0566 81.1642 11.7346C80.425 12.4126 79.5115 13.199 79.5115 13.199H111.609C111.609 13.199 111.962 11.7549 110.568 10.7786Z" fill="#08915C"/>
<path d="M94.2638 80.9177C92.8699 79.9414 92.2363 80.7549 91.7242 79.9413C91.212 79.1277 93.1234 77.0056 89.3165 74.8903C89.3165 74.8903 89.063 70.3273 83.8622 70.1443C78.6614 69.9612 80.0554 74.7072 78.6614 75.8462C77.2675 76.9853 76.8821 75.1682 75.4934 76.3344C74.1048 77.5006 74.7331 79.7583 73.5874 80.0837C72.4416 80.4092 70.9474 78.6125 69.5323 79.7583C68.1173 80.9041 68.1331 81.8737 67.4995 81.8737C66.8659 81.8737 65.5987 81.1957 64.8595 81.8737C64.1203 82.5517 63.2122 83.3381 63.2122 83.3381H95.3093C95.3093 83.3381 95.6578 81.894 94.2638 80.9177Z" fill="#08915C"/>
<path opacity="0.5" d="M94.2638 80.9177C92.8699 79.9414 92.2363 80.7549 91.7242 79.9413C91.212 79.1277 93.1234 77.0056 89.3165 74.8903C89.3165 74.8903 89.063 70.3273 83.8622 70.1443C78.6614 69.9612 80.0554 74.7072 78.6614 75.8462C77.2675 76.9853 76.8821 75.1682 75.4934 76.3344C74.1048 77.5006 74.7331 79.7583 73.5874 80.0837C72.4416 80.4092 70.9474 78.6125 69.5323 79.7583C68.1173 80.9041 68.1331 81.8737 67.4995 81.8737C66.8659 81.8737 65.5987 81.1957 64.8595 81.8737C64.1203 82.5517 63.2122 83.3381 63.2122 83.3381H95.3093C95.3093 83.3381 95.6578 81.894 94.2638 80.9177Z" fill="#08915C"/>
<g opacity="0.5">
<path opacity="0.5" d="M175.132 52.7129C172.777 51.0654 171.711 52.4417 170.85 51.0654C169.99 49.689 173.205 46.116 166.785 42.5429C166.785 42.5429 166.357 34.8476 157.582 34.5764C148.806 34.3052 151.166 42.2717 148.812 44.1904C146.457 46.1092 145.812 43.0921 143.458 45.0176C141.103 46.9431 142.175 50.7874 140.247 51.3433C138.32 51.8993 135.754 48.8686 133.383 50.7874C131.013 52.7061 131.044 54.3604 129.972 54.3604C128.901 54.3604 126.762 53.2553 125.479 54.3604C124.196 55.4656 122.697 56.8284 122.697 56.8284H176.854C176.854 56.8284 177.492 54.3605 175.132 52.7129Z" fill="white"/>
<path opacity="0.5" d="M175.132 52.7129C172.777 51.0654 171.711 52.4417 170.85 51.0654C169.99 49.689 173.205 46.116 166.785 42.5429C166.785 42.5429 166.357 34.8476 157.582 34.5764C148.806 34.3052 151.166 42.2717 148.812 44.1904C146.457 46.1092 145.812 43.0921 143.458 45.0176C141.103 46.9431 142.175 50.7874 140.247 51.3433C138.32 51.8993 135.754 48.8686 133.383 50.7874C131.013 52.7061 131.044 54.3604 129.972 54.3604C128.901 54.3604 126.762 53.2553 125.479 54.3604C124.196 55.4656 122.697 56.8284 122.697 56.8284H176.854C176.854 56.8284 177.492 54.3605 175.132 52.7129Z" fill="white"/>
</g>
<g opacity="0.5">
<path opacity="0.5" d="M110.568 10.7786C109.175 9.79547 108.541 10.6159 108.034 9.79548C107.527 8.9751 109.428 6.86651 105.621 4.75115C105.621 4.75115 105.368 0.188215 100.167 0.00515501C94.9661 -0.177905 96.36 4.5681 94.9661 5.70714C93.5722 6.84618 93.1867 5.02914 91.7981 6.1953C90.4095 7.36146 91.0378 9.5853 89.8973 9.94464C88.7568 10.304 87.2309 8.47337 85.837 9.61241C84.4431 10.7515 84.4378 11.7346 83.8042 11.7346C83.1706 11.7346 81.9034 11.0566 81.1642 11.7346C80.425 12.4126 79.5115 13.199 79.5115 13.199H111.609C111.609 13.199 111.962 11.7549 110.568 10.7786Z" fill="white"/>
<path opacity="0.5" d="M110.568 10.7786C109.175 9.79547 108.541 10.6159 108.034 9.79548C107.527 8.9751 109.428 6.86651 105.621 4.75115C105.621 4.75115 105.368 0.188215 100.167 0.00515501C94.9661 -0.177905 96.36 4.5681 94.9661 5.70714C93.5722 6.84618 93.1867 5.02914 91.7981 6.1953C90.4095 7.36146 91.0378 9.5853 89.8973 9.94464C88.7568 10.304 87.2309 8.47337 85.837 9.61241C84.4431 10.7515 84.4378 11.7346 83.8042 11.7346C83.1706 11.7346 81.9034 11.0566 81.1642 11.7346C80.425 12.4126 79.5115 13.199 79.5115 13.199H111.609C111.609 13.199 111.962 11.7549 110.568 10.7786Z" fill="white"/>
</g>
<g opacity="0.5">
<path opacity="0.5" d="M94.2638 80.9177C92.8699 79.9414 92.2363 80.7549 91.7242 79.9413C91.212 79.1277 93.1234 77.0056 89.3165 74.8903C89.3165 74.8903 89.063 70.3273 83.8622 70.1443C78.6614 69.9612 80.0554 74.7072 78.6614 75.8462C77.2675 76.9853 76.8821 75.1682 75.4934 76.3344C74.1048 77.5006 74.7331 79.7583 73.5874 80.0837C72.4416 80.4092 70.9474 78.6125 69.5323 79.7583C68.1173 80.9041 68.1331 81.8737 67.4995 81.8737C66.8659 81.8737 65.5987 81.1957 64.8595 81.8737C64.1203 82.5517 63.2122 83.3381 63.2122 83.3381H95.3093C95.3093 83.3381 95.6578 81.894 94.2638 80.9177Z" fill="white"/>
<path opacity="0.5" d="M94.2638 80.9177C92.8699 79.9414 92.2363 80.7549 91.7242 79.9413C91.212 79.1277 93.1234 77.0056 89.3165 74.8903C89.3165 74.8903 89.063 70.3273 83.8622 70.1443C78.6614 69.9612 80.0554 74.7072 78.6614 75.8462C77.2675 76.9853 76.8821 75.1682 75.4934 76.3344C74.1048 77.5006 74.7331 79.7583 73.5874 80.0837C72.4416 80.4092 70.9474 78.6125 69.5323 79.7583C68.1173 80.9041 68.1331 81.8737 67.4995 81.8737C66.8659 81.8737 65.5987 81.1957 64.8595 81.8737C64.1203 82.5517 63.2122 83.3381 63.2122 83.3381H95.3093C95.3093 83.3381 95.6578 81.894 94.2638 80.9177Z" fill="white"/>
</g>
<path d="M6.46271 190.944L69.8861 88.5184C70.2426 87.9426 70.6973 87.4796 71.2151 87.165C71.7329 86.8504 72.3001 86.6926 72.8729 86.7037C73.4457 86.7148 74.0088 86.8946 74.519 87.2292C75.0292 87.5638 75.4727 88.0443 75.8155 88.6337L115.299 156.393L152.259 78.6942C152.603 77.9752 153.087 77.3846 153.664 76.9816C154.241 76.5785 154.89 76.3773 155.547 76.3979C156.204 76.4185 156.844 76.6602 157.405 77.0989C157.966 77.5376 158.428 78.1579 158.743 78.8976L206.184 190.422L6.46271 190.944Z" fill="#08915C"/>
<path opacity="0.4" d="M6.46271 190.944L69.8861 88.5184C70.2426 87.9426 70.6973 87.4796 71.2151 87.165C71.7329 86.8504 72.3001 86.6926 72.8729 86.7037C73.4457 86.7148 74.0088 86.8946 74.519 87.2292C75.0292 87.5638 75.4727 88.0443 75.8155 88.6337L115.299 156.393L152.259 78.6942C152.603 77.9752 153.087 77.3846 153.664 76.9816C154.241 76.5785 154.89 76.3773 155.547 76.3979C156.204 76.4185 156.844 76.6602 157.405 77.0989C157.966 77.5376 158.428 78.1579 158.743 78.8976L206.184 190.422L6.46271 190.944Z" fill="white"/>
<g opacity="0.2">
<path opacity="0.2" d="M74.1946 87.04L95.6208 190.706L135.696 190.605L75.8155 88.6333C75.4024 87.9174 74.8407 87.3652 74.1946 87.04Z" fill="black"/>
<path opacity="0.2" d="M158.764 78.8973C158.415 78.0704 157.884 77.394 157.236 76.9527C156.589 76.5113 155.856 76.3246 155.126 76.4158L186.384 190.469L206.205 190.422L158.764 78.8973Z" fill="black"/>
</g>
<path opacity="0.2" d="M46.1261 190.34L48.6024 172.739L39.7742 190.34H46.1261Z" fill="black"/>
<path d="M159.292 190.638H186.505C185.977 186.36 183.865 187.113 183.559 180.468C183.417 177.133 185.824 173.01 185.613 168.624C185.444 165.017 182.672 161.315 182.445 157.186C182.25 153.457 184.615 149.328 184.388 145.307C184.172 141.511 181.363 137.849 181.114 133.924C180.866 129.998 183.184 125.903 182.915 122.011C182.646 118.12 179.779 114.553 179.478 110.709C179.166 106.763 181.41 102.519 181.062 98.7423C180.697 94.7353 177.751 91.2843 177.366 87.5892C176.917 83.4738 179.003 79.0871 178.517 75.5344C177.92 71.1884 174.768 68.0425 174.103 64.8355C172.867 58.8624 173.047 53.1061 171.563 52.7265C169.979 52.3264 169.652 57.9742 168.474 64.2864C167.878 67.4526 164.778 70.6664 164.292 75.0191C163.881 78.5379 166.061 82.8229 165.702 86.918C165.385 90.5792 162.534 94.1048 162.233 98.0915C161.975 101.834 164.303 105.97 164.071 109.889C163.849 113.692 161.066 117.347 160.871 121.198C160.676 125.049 163.083 129.117 162.92 132.934C162.751 136.853 160.016 140.548 159.878 144.317C159.725 148.297 162.175 152.318 162.059 156.013C161.927 160.081 159.229 163.857 159.129 167.437C159.007 171.783 161.494 175.797 161.415 179.106C161.251 186.286 158.69 184.801 158.601 190.577L159.292 190.638Z" fill="#08915C"/>
<path d="M170.966 64.2593V189.045" stroke="#263238" stroke-miterlimit="10"/>
<path d="M175.212 77.3447L170.782 82.2534L167.16 76.0497" stroke="#263238" stroke-miterlimit="10"/>
<path d="M175.212 99.061L170.782 103.976L167.16 97.766" stroke="#263238" stroke-miterlimit="10"/>
<path d="M175.212 119.489L170.782 124.405L167.16 118.194" stroke="#263238" stroke-miterlimit="10"/>
<path d="M175.212 143.795L170.782 148.704L167.16 142.5" stroke="#263238" stroke-miterlimit="10"/>
<path d="M175.212 168.359L170.782 173.268L167.16 167.064" stroke="#263238" stroke-miterlimit="10"/>
<path d="M130.659 190.638H154.255C153.801 186.93 151.948 187.581 151.7 181.824C151.578 178.936 153.664 175.356 153.484 171.56C153.331 168.427 150.929 165.22 150.744 161.64C150.575 158.406 152.624 154.86 152.428 151.342C152.238 148.046 149.788 144.894 149.588 141.47C149.387 138.046 151.383 134.514 151.172 131.137C150.961 127.761 148.453 124.662 148.189 121.333C147.925 118.004 149.862 114.235 149.567 110.96C149.25 107.489 146.7 104.485 146.351 101.285C145.966 97.7253 147.777 93.9149 147.354 90.8368C146.826 87.0671 144.102 84.3416 143.526 81.5618C142.47 76.3819 142.586 71.3918 141.325 71.0596C139.973 70.7138 139.667 75.609 138.642 81.0804C138.114 83.7924 135.474 86.6129 135.015 90.3894C134.661 93.4404 136.551 97.1694 136.24 100.702C135.965 103.882 133.478 106.939 133.236 110.39C133.003 113.645 135.026 117.225 134.82 120.621C134.614 124.018 132.217 127.076 132.048 130.432C131.879 133.788 133.964 137.3 133.822 140.602C133.679 143.904 131.303 147.206 131.182 150.474C131.055 153.925 133.178 157.41 133.072 160.644C132.961 164.196 130.622 167.424 130.538 170.549C130.432 174.319 132.586 177.797 132.518 180.665C132.375 186.896 130.157 185.601 130.073 190.618L130.659 190.638Z" fill="#08915C"/>
<path d="M140.786 81.0533V189.262" stroke="#263238" stroke-miterlimit="10"/>
<path d="M144.471 92.3963L140.628 96.6541L137.486 91.2776" stroke="#263238" stroke-miterlimit="10"/>
<path d="M144.471 111.231L140.628 115.489L137.486 110.112" stroke="#263238" stroke-miterlimit="10"/>
<path d="M144.471 128.94L140.628 133.205L137.486 127.822" stroke="#263238" stroke-miterlimit="10"/>
<path d="M144.471 150.019L140.628 154.277L137.486 148.901" stroke="#263238" stroke-miterlimit="10"/>
<path d="M144.471 171.322L140.628 175.58L137.486 170.197" stroke="#263238" stroke-miterlimit="10"/>
<path d="M13.5643 190.638H37.1607C36.7066 186.93 34.8533 187.581 34.6104 181.824C34.4837 178.936 36.5693 175.356 36.3898 171.56C36.2419 168.427 33.8395 165.22 33.6495 161.64C33.4858 158.406 35.5344 154.86 35.3338 151.342C35.149 148.046 32.6938 144.894 32.4931 141.47C32.2925 138.046 34.2936 134.514 34.0771 131.137C33.8606 127.761 31.3632 124.662 31.0992 121.333C30.8352 118.004 32.773 114.235 32.4773 110.96C32.1605 107.489 29.605 104.485 29.2618 101.285C28.8763 97.7253 30.6821 93.9149 30.2597 90.8368C29.7317 87.0671 27.0072 84.3416 26.437 81.5618C25.381 76.3819 25.4971 71.3918 24.2352 71.0596C22.8835 70.7138 22.572 75.609 21.553 81.0804C21.025 83.7924 18.385 86.6129 17.9256 90.3894C17.5718 93.4404 19.4568 97.1694 19.1506 100.702C18.8707 103.882 16.3838 106.939 16.141 110.39C15.9139 113.645 17.9362 117.225 17.725 120.621C17.5138 124.018 15.1166 127.076 14.9477 130.432C14.7787 133.788 16.8643 137.3 16.7218 140.602C16.5792 143.904 14.2085 147.206 14.0818 150.474C13.9498 153.925 16.0723 157.41 15.972 160.644C15.8558 164.196 13.5168 167.424 13.4323 170.549C13.3267 174.319 15.4862 177.797 15.4176 180.665C15.275 186.896 13.0522 185.601 12.973 190.618L13.5643 190.638Z" fill="#08915C"/>
<path d="M23.7072 81.0533V189.262" stroke="#263238" stroke-miterlimit="10"/>
<path d="M27.3927 92.3963L23.5488 96.6541L20.4072 91.2776" stroke="#263238" stroke-miterlimit="10"/>
<path d="M27.3927 111.231L23.5488 115.489L20.4072 110.112" stroke="#263238" stroke-miterlimit="10"/>
<path d="M27.3927 128.94L23.5488 133.205L20.4072 127.822" stroke="#263238" stroke-miterlimit="10"/>
<path d="M27.3927 150.019L23.5488 154.277L20.4072 148.901" stroke="#263238" stroke-miterlimit="10"/>
<path d="M27.3927 171.322L23.5488 175.58L20.4072 170.197" stroke="#263238" stroke-miterlimit="10"/>
<path d="M141.059 190.496C151.981 187.243 158.781 173.236 156.248 159.211C153.714 145.186 142.806 136.453 131.884 139.707C120.961 142.96 114.161 156.967 116.695 170.992C119.228 185.018 130.137 193.75 141.059 190.496Z" fill="#263238"/>
<path d="M143.229 186.562C152.456 181.772 156.912 168.284 153.182 156.436C149.453 144.587 138.949 138.865 129.722 143.654C120.494 148.444 116.038 161.932 119.768 173.78C123.498 185.629 134.002 191.351 143.229 186.562Z" fill="white"/>
<path d="M136.483 185.255C139.528 185.252 142.507 184.112 145.056 181.974C147.606 179.836 149.617 176.793 150.844 173.214" stroke="#263238" stroke-linecap="round" stroke-linejoin="round"/>
<path d="M136.483 144.921C133.685 144.916 130.937 145.871 128.524 147.688C126.11 149.505 124.118 152.117 122.755 155.254" stroke="#263238" stroke-linecap="round" stroke-linejoin="round"/>
<path d="M136.483 146.941C133.965 146.941 131.492 147.804 129.321 149.442C127.15 151.079 125.358 153.432 124.133 156.257" stroke="#263238" stroke-linecap="round" stroke-linejoin="round"/>
<path d="M136.214 183.228H136.483C139.236 183.23 141.929 182.2 144.233 180.264C146.536 178.329 148.35 175.572 149.45 172.332" stroke="#263238" stroke-linecap="round" stroke-linejoin="round"/>
<path d="M136.483 149.185C134.273 149.184 132.103 149.942 130.199 151.381C128.295 152.82 126.725 154.888 125.653 157.369" stroke="#263238" stroke-linecap="round" stroke-linejoin="round"/>
<path d="M136.483 180.99C138.873 180.991 141.213 180.102 143.219 178.432C145.225 176.762 146.812 174.382 147.787 171.58" stroke="#263238" stroke-linecap="round" stroke-linejoin="round"/>
<path d="M136.483 151.653C134.623 151.653 132.797 152.289 131.192 153.496C129.587 154.703 128.262 156.438 127.354 158.522" stroke="#263238" stroke-linecap="round" stroke-linejoin="round"/>
<path d="M136.483 178.516C138.466 178.517 140.408 177.794 142.083 176.431C143.759 175.069 145.098 173.123 145.945 170.82" stroke="#263238" stroke-linecap="round" stroke-linejoin="round"/>
<path d="M86.597 183.518C94.5253 173.337 94.5253 156.831 86.597 146.651C78.6688 136.47 65.8145 136.47 57.8862 146.651C49.958 156.831 49.958 173.337 57.8862 183.518C65.8145 193.698 78.6688 193.698 86.597 183.518Z" fill="#263238"/>
<path d="M88.8279 174.116C92.7166 162.352 88.4424 148.767 79.281 143.774C70.1197 138.78 59.5405 144.269 55.6517 156.033C51.7629 167.797 56.0372 181.381 65.1986 186.375C74.3599 191.368 84.9391 185.88 88.8279 174.116Z" fill="white"/>
<path d="M72.241 185.255C75.2888 185.256 78.271 184.117 80.8238 181.979C83.3767 179.841 85.39 176.796 86.6184 173.214" stroke="#263238" stroke-linecap="round" stroke-linejoin="round"/>
<path d="M72.241 144.921C69.4432 144.915 66.6951 145.87 64.2814 147.687C61.8677 149.504 59.8761 152.116 58.513 155.254" stroke="#263238" stroke-linecap="round" stroke-linejoin="round"/>
<path d="M72.241 146.941C69.7229 146.941 67.2503 147.804 65.0791 149.442C62.9079 151.079 61.1168 153.432 59.8911 156.257" stroke="#263238" stroke-linecap="round" stroke-linejoin="round"/>
<path d="M71.9717 183.228H72.241C74.9939 183.231 77.6876 182.201 79.9913 180.266C82.295 178.33 84.1083 175.573 85.2087 172.332" stroke="#263238" stroke-linecap="round" stroke-linejoin="round"/>
<path d="M72.241 149.185C70.0315 149.185 67.8621 149.943 65.9579 151.382C64.0537 152.821 62.484 154.888 61.4117 157.369" stroke="#263238" stroke-linecap="round" stroke-linejoin="round"/>
<path d="M72.241 180.99C74.6322 180.99 76.9724 180.102 78.9792 178.432C80.9859 176.762 82.5736 174.382 83.5507 171.58" stroke="#263238" stroke-linecap="round" stroke-linejoin="round"/>
<path d="M72.241 151.653C70.3813 151.653 68.5552 152.29 66.9507 153.497C65.3461 154.704 64.0211 156.438 63.1119 158.522" stroke="#263238" stroke-linecap="round" stroke-linejoin="round"/>
<path d="M72.241 178.516C74.2241 178.517 76.1667 177.795 77.842 176.432C79.5174 175.07 80.8564 173.123 81.7027 170.82" stroke="#263238" stroke-linecap="round" stroke-linejoin="round"/>
<path d="M120.157 79.1414L117.712 65.2627C117.712 65.2627 114.808 63.9067 112.485 65.561C110.569 66.917 103.868 78.9312 101.587 83.0873L101.45 82.911C101.419 82.8435 101.375 82.7875 101.323 82.7486C101.27 82.7096 101.21 82.6891 101.149 82.6891C101.088 82.6891 101.028 82.7096 100.975 82.7486C100.923 82.7875 100.879 82.8435 100.848 82.911C100.848 82.911 99.264 84.7145 99.3274 85.3451C99.4869 85.7436 99.6896 86.1111 99.9293 86.4366L86.893 103.387C86.893 103.387 83.3765 103.488 82.7482 103.888C82.1199 104.288 82.1199 104.39 82.1199 105.922C82.1199 107.455 82.2783 108.838 82.5106 108.939C82.7429 109.041 84.158 109.441 84.3111 108.838C84.4642 108.234 83.9204 107.129 83.9204 107.129C83.9204 107.129 84.3111 105.827 85.0978 106.227C85.8845 106.627 86.5023 107.936 87.5213 107.434C88.5404 106.933 89.401 104.817 89.401 104.817L103.483 91.4199C103.752 91.7867 104.04 92.131 104.343 92.4505C104.845 92.8708 106.603 91.1691 106.577 90.3283C106.581 90.2969 106.581 90.2649 106.577 90.2334L120.157 79.1414Z" fill="#263238"/>
<path d="M86.5234 115.38C86.4001 115.38 86.279 115.338 86.1724 115.258C86.0658 115.178 85.9774 115.064 85.9162 114.926L82.6321 107.55C82.5403 107.343 82.5163 107.098 82.5653 106.868C82.6144 106.639 82.7324 106.444 82.8934 106.326C83.0544 106.208 83.2453 106.177 83.4241 106.24C83.6028 106.303 83.7547 106.455 83.8465 106.661L87.1306 114.024C87.1946 114.161 87.229 114.317 87.2302 114.477C87.2314 114.636 87.1994 114.793 87.1375 114.932C87.0756 115.07 86.986 115.184 86.878 115.263C86.7701 115.342 86.6476 115.383 86.5234 115.38Z" fill="white" stroke="#263238" stroke-linecap="round" stroke-linejoin="round"/>
<path d="M98.4826 85.4739L84.9605 103.102C84.9605 103.102 81.4388 103.204 80.8105 103.604C80.1821 104.004 80.1821 104.105 80.1821 105.638C80.1821 107.17 80.3405 108.546 80.5781 108.648C80.8157 108.75 82.2202 109.15 82.3733 108.546C82.5265 107.943 81.9826 106.838 81.9826 106.838C81.9826 106.838 82.3733 105.536 83.16 105.936C83.9468 106.336 84.5645 107.644 85.5836 107.143C86.6026 106.641 87.4633 104.532 87.4633 104.532L102.163 90.4978L98.4826 85.4739Z" fill="white" stroke="#263238" stroke-linecap="round" stroke-linejoin="round"/>
<path d="M84.8813 106.912C84.8824 106.499 84.7879 106.095 84.6098 105.75C84.4318 105.406 84.1781 105.137 83.8811 104.978C83.584 104.819 83.2569 104.777 82.9411 104.857C82.6253 104.936 82.335 105.135 82.107 105.426C81.8791 105.718 81.7237 106.09 81.6605 106.496C81.5973 106.901 81.6292 107.321 81.7521 107.703C81.8751 108.085 82.0835 108.412 82.351 108.641C82.6186 108.871 82.9332 108.994 83.2551 108.994C83.6855 108.994 84.0983 108.775 84.4031 108.384C84.708 107.994 84.8799 107.465 84.8813 106.912Z" fill="#263238"/>
<path d="M127.401 108.811C125.932 109.686 124.36 110.241 122.749 110.451C120.194 110.75 118.452 110.302 119.053 112.689C119.655 115.075 123.584 115.523 126.493 114.628C129.402 113.733 130.791 112.39 130.442 110.004C130.094 107.617 128.33 108.363 127.401 108.811Z" fill="#263238"/>
<path d="M118.219 103.583C118.219 103.583 100.32 120.601 99.8554 124.181C99.3907 127.761 102.643 154.921 102.643 154.921L105.431 156.115C105.431 156.115 106.946 131.937 108.456 127.313C109.967 122.689 124.962 111.794 125.31 106.295C125.659 100.797 121.936 100.749 118.219 103.583Z" fill="#263238"/>
<path d="M102.643 154.921C101.77 155.23 100.875 155.43 99.9716 155.518C98.4615 155.667 96.3706 154.623 96.3706 155.369C96.3706 156.115 98.9261 158.955 100.204 159.105C101.482 159.254 103.108 159.403 103.108 159.403L103.171 160.562L104.85 161.193L105.431 156.115L102.643 154.921Z" fill="#263238"/>
<path d="M103.186 160.568L97.6885 156.994L96.9015 158.99L102.399 162.564L103.186 160.568Z" fill="white" stroke="#263238" stroke-linecap="round" stroke-linejoin="round"/>
<path d="M100.03 159.776L107.063 165.966L107.749 163.783L100.204 159.105L100.03 159.776Z" fill="white" stroke="#263238" stroke-linecap="round" stroke-linejoin="round"/>
<path d="M136.873 163.593L122.702 117.875C122.665 117.758 122.609 117.652 122.538 117.564L123.288 115.028C123.321 114.918 123.336 114.801 123.333 114.683C123.331 114.566 123.31 114.45 123.273 114.342C123.235 114.235 123.181 114.138 123.115 114.058C123.048 113.977 122.97 113.914 122.884 113.872C122.798 113.83 122.707 113.81 122.616 113.814C122.524 113.817 122.434 113.844 122.35 113.892C122.267 113.94 122.191 114.009 122.128 114.094C122.066 114.18 122.016 114.281 121.984 114.391L120.347 119.93H86.2752C86.8824 116.716 87.1939 114.75 87.2098 114.675C87.2278 114.56 87.228 114.441 87.2103 114.326C87.1926 114.211 87.1573 114.101 87.1066 114.003C87.0558 113.905 86.9906 113.821 86.9145 113.755C86.8385 113.69 86.7531 113.644 86.6633 113.621C86.5735 113.598 86.481 113.598 86.3912 113.62C86.3013 113.643 86.2158 113.688 86.1396 113.754C86.0634 113.819 85.9979 113.903 85.9469 114C85.8958 114.098 85.8603 114.207 85.8423 114.323C85.7948 114.621 80.9952 144.751 71.6444 164.624C71.5507 164.827 71.5231 165.07 71.5676 165.3C71.612 165.529 71.7249 165.727 71.8819 165.851C72.0402 165.973 72.2298 166.009 72.4089 165.952C72.5881 165.895 72.7423 165.749 72.8376 165.546C77.8008 155.003 81.4916 141.639 83.8887 131.252L107.02 166.4C107.061 166.548 107.118 166.687 107.189 166.814C107.318 167.042 107.487 167.228 107.682 167.357C107.878 167.485 108.094 167.552 108.314 167.553H108.377L135.649 166.034C135.87 166.021 136.087 165.94 136.279 165.799C136.472 165.657 136.636 165.459 136.757 165.22C136.877 164.981 136.95 164.708 136.97 164.425C136.99 164.142 136.957 163.856 136.873 163.593ZM85.9268 121.72H119.819L107.321 164.095L84.3586 129.191C84.9869 126.391 85.5044 123.855 85.9268 121.72ZM108.319 165.79L121.841 119.957L135.569 164.264L108.319 165.79Z" fill="white" stroke="#263238" stroke-linecap="round" stroke-linejoin="round"/>
<path d="M88.1497 114.499C88.1497 114.086 88.0543 113.682 87.8756 113.339C87.6969 112.995 87.4429 112.728 87.1458 112.57C86.8486 112.412 86.5216 112.37 86.2062 112.451C85.8907 112.531 85.601 112.73 85.3735 113.022C85.1461 113.314 84.9912 113.687 84.9285 114.092C84.8657 114.497 84.8979 114.917 85.021 115.298C85.1441 115.68 85.3525 116.006 85.62 116.235C85.8874 116.465 86.2018 116.587 86.5234 116.587C86.9547 116.587 87.3684 116.367 87.6734 115.976C87.9783 115.584 88.1497 115.053 88.1497 114.499Z" fill="white" stroke="#263238" stroke-linecap="round" stroke-linejoin="round"/>
<path d="M74.5378 165.085C74.5378 164.501 74.4031 163.931 74.1507 163.446C73.8983 162.961 73.5396 162.583 73.12 162.36C72.7003 162.137 72.2385 162.078 71.7929 162.192C71.3474 162.306 70.9381 162.587 70.6169 162.999C70.2957 163.412 70.077 163.937 69.9883 164.509C69.8997 165.081 69.9452 165.674 70.119 166.213C70.2929 166.752 70.5873 167.213 70.965 167.537C71.3427 167.861 71.7867 168.034 72.241 168.034C72.8502 168.034 73.4344 167.723 73.8651 167.17C74.2958 166.617 74.5378 165.867 74.5378 165.085Z" fill="#263238"/>
<path d="M138.5 165.085C138.501 164.5 138.367 163.927 138.114 163.44C137.862 162.953 137.503 162.574 137.082 162.349C136.662 162.124 136.199 162.064 135.752 162.178C135.305 162.291 134.894 162.572 134.572 162.985C134.249 163.398 134.029 163.925 133.94 164.499C133.851 165.072 133.896 165.667 134.07 166.208C134.244 166.748 134.539 167.21 134.918 167.535C135.297 167.86 135.742 168.034 136.198 168.034C136.807 168.034 137.392 167.723 137.824 167.17C138.255 166.618 138.498 165.867 138.5 165.085Z" fill="#263238"/>
<path d="M112.601 165.085C112.601 163.878 112.323 162.698 111.8 161.695C111.278 160.691 110.536 159.909 109.668 159.447C108.8 158.985 107.844 158.864 106.922 159.1C106 159.335 105.154 159.916 104.489 160.77C103.825 161.623 103.372 162.711 103.189 163.894C103.005 165.078 103.099 166.305 103.459 167.42C103.819 168.535 104.428 169.488 105.209 170.158C105.991 170.829 106.909 171.187 107.849 171.187C109.11 171.187 110.318 170.544 111.209 169.399C112.101 168.255 112.601 166.703 112.601 165.085Z" fill="#263238"/>
<path d="M115.078 166.264L107.749 163.783C107.613 163.734 107.471 163.721 107.331 163.743C107.191 163.766 107.056 163.825 106.934 163.916C106.812 164.007 106.705 164.128 106.62 164.273C106.535 164.418 106.474 164.583 106.44 164.759C106.398 164.948 106.389 165.146 106.413 165.34C106.437 165.533 106.493 165.718 106.578 165.881C106.662 166.044 106.774 166.182 106.904 166.284C107.034 166.387 107.18 166.452 107.332 166.475L115.548 167.905L115.078 166.264Z" fill="white" stroke="#263238" stroke-linecap="round" stroke-linejoin="round"/>
<path d="M118.193 162.519L114.049 168.374L115.338 169.879L119.483 164.024L118.193 162.519Z" fill="white" stroke="#263238" stroke-linecap="round" stroke-linejoin="round"/>
<path d="M118.108 102.987C118.108 102.987 104.079 119.645 103.382 124.269C102.685 128.893 116.947 158.806 116.947 158.806L119.735 157.613C119.735 157.613 111.714 131.341 112.76 129.401C113.805 127.462 132.57 111.184 135.363 105.671C138.156 100.159 136.572 94.6472 134.482 92.1114C132.391 89.5757 118.108 102.987 118.108 102.987Z" fill="#263238"/>
<path d="M108.805 124.276L112.754 129.401L110.801 123.171" stroke="white" stroke-width="0.75" stroke-linecap="round" stroke-linejoin="round"/>
<path d="M106.091 134.364C106.091 134.364 103.235 125.381 104.09 122.628C104.945 119.876 118.937 106.316 118.937 106.316C118.937 106.316 125.933 103.292 130.648 104.478" stroke="white" stroke-width="0.75" stroke-linecap="round" stroke-linejoin="round"/>
<path d="M126.794 102.824C126.794 102.824 129.217 101.359 132.787 103.007" stroke="white" stroke-width="0.75" stroke-linecap="round" stroke-linejoin="round"/>
<path d="M116.941 158.806C116.941 158.806 115.664 160.596 114.381 162.237C113.098 163.878 111.477 164.325 112.057 164.773C112.638 165.22 113.568 165.668 115.315 164.922C117.063 164.176 119.265 161.64 119.265 161.64L119.613 162.386L121.588 161.03L119.729 157.599L116.941 158.806Z" fill="#263238"/>
<path d="M109.835 43.6277C108.879 42.3958 107.715 41.4638 106.433 40.904C105.15 40.3443 103.785 40.1719 102.443 40.4004C99.9558 40.9767 99.2746 45.3092 98.7994 47.9127L98.3612 50.2925L98.4034 52.1163L97.6114 55.9944C97.5865 56.1125 97.5816 56.236 97.5971 56.3567C97.6125 56.4774 97.648 56.5924 97.7011 56.6939C97.7541 56.7955 97.8236 56.8812 97.9046 56.9454C97.9857 57.0095 98.0766 57.0505 98.1711 57.0657L99.0582 57.2148C99.2113 58.4827 100.214 61.0049 100.346 61.8863C100.874 65.2763 102.601 65.039 103.726 64.5169C104.448 64.0752 105.123 63.5145 105.732 62.849L108.372 65.717L113.092 59.12L111.075 55.3775C111.075 55.3775 111.683 46.116 109.835 43.6277Z" fill="white" stroke="#263238" stroke-linecap="round" stroke-linejoin="round"/>
<path d="M100.23 53.0451C100.304 53.5807 100.23 54.0485 100.067 54.0824C99.9029 54.1163 99.7128 53.7163 99.6442 53.1807C99.5756 52.6451 99.6442 52.1773 99.8026 52.1434C99.961 52.1095 100.156 52.5095 100.23 53.0451Z" fill="#263238"/>
<path d="M98.9578 50.923C99.097 50.7605 99.2621 50.639 99.4416 50.5669C99.6211 50.4947 99.8108 50.4738 99.9972 50.5054C100.184 50.537 100.363 50.6205 100.521 50.75C100.68 50.8795 100.815 51.0519 100.917 51.2552" stroke="#263238" stroke-linecap="round" stroke-linejoin="round"/>
<path d="M102.886 47.1262C102.886 47.1262 101.476 49.2754 102.004 50.0687C102.728 50.9881 103.492 51.855 104.291 52.6654C104.291 52.6654 105.526 49.8382 107.284 50.9704C109.043 52.1027 107.638 54.8147 108.251 55.9401C108.863 57.0656 110.98 55.3774 111.155 54.8147C111.329 54.2519 114.502 46.0007 114.676 42.9497C114.851 39.8987 108.34 36.8477 105.526 36.1697C102.712 35.4917 100.595 37.0714 101.123 36.3934C101.651 35.7154 102.532 33.9052 100.859 33.6814C99.1848 33.4577 96.9884 36.7324 96.9884 38.6512C96.9877 39.1712 97.1422 39.6718 97.4201 40.0501C97.698 40.4284 98.0782 40.6557 98.4826 40.6852C98.4826 40.6852 94.2586 39.3292 95.4044 42.4954C96.5501 45.6617 98.4826 45.5464 100.246 45.6617C101.242 45.6864 102.19 46.2123 102.886 47.1262Z" fill="#263238"/>
<path d="M106.139 51.3094H106.081C105.942 51.289 105.816 51.1991 105.729 51.0594C105.642 50.9197 105.601 50.7415 105.616 50.5636L106.234 43.5531C106.242 43.4641 106.263 43.3779 106.297 43.2996C106.331 43.2212 106.377 43.1522 106.431 43.0965C106.486 43.0408 106.549 42.9995 106.616 42.9748C106.683 42.9502 106.753 42.9428 106.822 42.9531C106.892 42.9633 106.959 42.991 107.02 43.0345C107.081 43.0781 107.135 43.1366 107.178 43.2068C107.221 43.277 107.254 43.3575 107.273 43.4436C107.292 43.5298 107.298 43.62 107.29 43.709L106.677 50.7128C106.661 50.8805 106.598 51.0347 106.498 51.145C106.398 51.2554 106.27 51.314 106.139 51.3094Z" fill="white" stroke="#263238" stroke-miterlimit="10"/>
<path d="M105.901 57.9064C105.582 57.9072 105.267 57.8274 104.972 57.6714C104.677 57.5154 104.409 57.2863 104.184 56.9973C103.958 56.7082 103.779 56.3648 103.657 55.9868C103.535 55.6088 103.472 55.2036 103.472 54.7943V51.8789C103.474 51.0529 103.73 50.2614 104.185 49.678C104.641 49.0946 105.258 48.7669 105.901 48.7669C106.544 48.7669 107.161 49.0946 107.617 49.678C108.072 50.2614 108.328 51.0529 108.33 51.8789V54.7943C108.33 55.2036 108.267 55.6088 108.145 55.9868C108.023 56.3648 107.844 56.7082 107.618 56.9973C107.392 57.2863 107.125 57.5154 106.83 57.6714C106.535 57.8274 106.22 57.9072 105.901 57.9064Z" fill="white" stroke="#263238" stroke-miterlimit="10"/>
<path d="M106.524 36.7324L105.758 43.9463C105.738 44.1272 105.746 44.3115 105.782 44.4883C105.818 44.6651 105.882 44.8307 105.969 44.9751C106.056 45.1195 106.165 45.2397 106.29 45.3286C106.414 45.4175 106.551 45.4731 106.693 45.4922H106.756C106.896 45.5158 107.037 45.5036 107.173 45.4562C107.308 45.4087 107.435 45.3271 107.546 45.216C107.656 45.1048 107.748 44.9665 107.817 44.809C107.885 44.6516 107.929 44.4781 107.944 44.2989L108.647 37.0714C108.666 36.8921 108.657 36.7096 108.62 36.5348C108.584 36.36 108.52 36.1964 108.434 36.0536C108.347 35.9108 108.239 35.7917 108.116 35.7034C107.993 35.615 107.857 35.5591 107.717 35.5391C107.578 35.5145 107.436 35.526 107.299 35.573C107.163 35.6199 107.036 35.7014 106.925 35.8126C106.813 35.9239 106.721 36.0625 106.652 36.2205C106.583 36.3785 106.54 36.5525 106.524 36.7324Z" fill="white" stroke="#263238" stroke-miterlimit="10"/>
<path d="M113.8 56.3944C113.8 56.3944 105.352 66.2322 105.473 67.8729C105.595 69.5137 105.325 76.8361 108.462 85.0467C111.598 93.2573 115.357 100.159 116.751 103.292C118.145 106.424 122.206 104.105 122.206 104.105C122.206 104.105 130.743 100.261 133.531 96.8303C136.319 93.3996 133.531 87.1349 133.531 87.1349C133.531 87.1349 123.214 68.1848 119.845 63.5609C117.987 60.9631 115.965 58.5662 113.8 56.3944Z" fill="#08915C" stroke="#263238" stroke-linecap="round" stroke-linejoin="round"/>
<path d="M105.262 69.2764C105.262 69.2764 106.978 67.317 108.367 65.6966C109.755 64.0761 116.788 62.2727 118.547 62.7201C120.305 63.1676 120.748 65.2084 121.102 65.0931C121.456 64.9779 121.63 62.0421 119.782 58.0894C117.934 54.1367 115.115 52.4417 113.62 53.6824C112.126 54.9231 108.43 60.9167 106.846 63.3981C105.262 65.8796 104.644 67.3577 105.262 69.2764Z" fill="#08915C" stroke="#263238" stroke-linecap="round" stroke-linejoin="round"/>
<path d="M113.029 82.2465C113.029 82.2465 118.689 82.85 122.623 81.8397" stroke="#263238" stroke-linecap="round" stroke-linejoin="round"/>
<path d="M110.822 82.8364C110.822 82.8364 116.171 87.0807 121.678 87.4807" stroke="#263238" stroke-linecap="round" stroke-linejoin="round"/>
<path d="M115.78 64.9305C115.78 64.9305 112.871 63.5745 110.547 65.2288C108.224 66.8831 98.8733 84.1925 98.8733 84.1925L103.625 90.7216L118.198 78.8295" fill="#08915C"/>
<path d="M115.78 64.9305C115.78 64.9305 112.871 63.5745 110.547 65.2288C108.224 66.8831 98.8733 84.1925 98.8733 84.1925L103.625 90.7216L118.198 78.8295" stroke="#263238" stroke-linecap="round" stroke-linejoin="round"/>
<path d="M98.9103 82.5856C98.9103 82.5856 97.3263 84.389 97.3897 85.0196C97.453 85.6501 101.904 91.7047 102.406 92.1182C102.907 92.5318 104.666 90.8368 104.639 89.9961C104.613 89.1554 99.5122 82.5788 99.5122 82.5788C99.4811 82.5116 99.4368 82.4561 99.3837 82.4177C99.3306 82.3794 99.2706 82.3596 99.2097 82.3602C99.1489 82.3609 99.0892 82.3821 99.0366 82.4216C98.9841 82.4612 98.9405 82.5177 98.9103 82.5856Z" fill="#08915C" stroke="#263238" stroke-linecap="round" stroke-linejoin="round"/>
<path d="M1.12464 192.835H207.805C208.102 192.835 208.387 192.684 208.596 192.414C208.806 192.145 208.924 191.779 208.924 191.398C208.924 191.017 208.806 190.651 208.596 190.381C208.387 190.112 208.102 189.96 207.805 189.96H1.12464C0.977198 189.96 0.831075 189.996 0.694658 190.068C0.558241 190.14 0.434218 190.246 0.329716 190.379C0.225214 190.513 0.142292 190.671 0.0857086 190.846C0.0291256 191.021 -1.64022e-06 191.209 0 191.398C-1.64022e-06 191.587 0.0291256 191.775 0.0857086 191.949C0.142292 192.124 0.225214 192.283 0.329716 192.417C0.434218 192.55 0.558241 192.656 0.694658 192.728C0.831075 192.8 0.977198 192.836 1.12464 192.835Z" fill="#263238"/>
</svg>
