<svg width="190" height="183" viewBox="0 0 190 183" fill="none" xmlns="http://www.w3.org/2000/svg">
<path d="M46.5269 0L34.7996 25.8086L38.2989 25.9512L28.3624 46.4587H33.5848L25.4439 64.68H70.9544L60.9308 46.4587L65.7369 46.2317L56.1295 25.7347L59.682 25.5077L46.5269 0Z" fill="#455A64"/>
<path d="M48.5113 29.9376C48.5791 29.9376 48.5113 41.4903 48.3564 55.741C48.2016 69.9917 48.0128 81.5443 47.945 81.539C47.8773 81.5338 47.945 69.9864 48.0999 55.7357C48.2548 41.485 48.4387 29.9376 48.5113 29.9376Z" fill="#263238"/>
<path d="M48.2742 53.5814C47.393 53.1985 46.5333 52.7595 45.6993 52.2667C44.8285 51.8569 43.983 51.386 43.168 50.8569C44.0861 51.1368 44.9725 51.5282 45.8106 52.0238C46.685 52.4358 47.5118 52.9586 48.2742 53.5814Z" fill="#263238"/>
<path d="M53.8982 34.1299C53.7062 34.5694 53.4743 34.9869 53.2061 35.376C52.7221 36.1258 52.0832 37.1395 51.3185 38.2272C50.5538 39.3149 49.8181 40.2706 49.2712 40.9411C48.9925 41.3258 48.6796 41.6796 48.3371 41.9971C48.5706 41.5825 48.8362 41.1904 49.1308 40.825L51.1152 38.0635C51.8509 37.0075 52.5091 36.0571 53.0512 35.2704C53.2997 34.8618 53.5833 34.4799 53.8982 34.1299Z" fill="#263238"/>
<path d="M167.319 9.69409L158.05 30.096L160.819 30.2069L152.963 46.4165H157.087L150.655 60.8203H186.626L178.707 46.4165L182.502 46.237L174.913 30.0379L177.715 29.8584L167.319 9.69409Z" fill="#08915C"/>
<path d="M168.887 33.359C168.96 33.359 168.916 42.2611 168.795 53.2382C168.674 64.2153 168.524 73.1121 168.451 73.1121C168.379 73.1121 168.422 64.2153 168.543 53.2329C168.664 42.2505 168.819 33.359 168.887 33.359Z" fill="#263238"/>
<path d="M168.703 52.045C167.993 51.7753 167.306 51.4379 166.651 51.0365C165.96 50.7165 165.295 50.3351 164.662 49.896C165.396 50.0862 166.103 50.3865 166.762 50.7883C167.458 51.1091 168.111 51.5319 168.703 52.045Z" fill="#263238"/>
<path d="M173.146 36.6696C173.008 37.0272 172.829 37.3643 172.614 37.6728C172.256 38.2642 171.733 39.0667 171.128 39.9274C170.523 40.788 169.937 41.5431 169.502 42.0711C169.284 42.3756 169.032 42.6489 168.751 42.8842C168.698 42.8314 169.719 41.4744 170.929 39.7584C172.139 38.0424 173.083 36.6274 173.146 36.6696Z" fill="#263238"/>
<path d="M189.215 89.665L188.847 89.2373L187.763 87.9754C186.795 86.893 185.372 85.2615 183.363 83.3818C180.935 81.0878 178.335 79.0196 175.59 77.1989C173.883 76.0532 172.116 75.0149 170.3 74.089C163.591 70.6216 156.278 68.7653 148.854 68.6453C142.931 68.5577 137.044 69.6473 131.479 71.8608C125.579 74.1629 120.056 78.1546 114.471 82.368C111.668 84.48 108.837 86.6554 105.856 88.704C102.85 90.8157 99.6693 92.6136 96.3547 94.0738C93.0248 95.532 89.4866 96.3433 85.9003 96.4709C82.4217 96.5484 78.9533 96.0335 75.6202 94.945C72.4181 93.8779 69.2926 92.5543 66.2693 90.985C63.2927 89.4749 60.4613 87.8803 57.6347 86.3755C52.0348 83.329 46.556 80.689 41.111 79.5115C40.4285 79.3531 39.7509 79.2475 39.0782 79.1261L38.0666 78.9941C37.7343 78.9441 37.3999 78.9124 37.0647 78.8991L35.0755 78.7829C34.4221 78.7829 33.7687 78.8146 33.1395 78.8304C32.82 78.8304 32.5006 78.8304 32.1715 78.8674L31.2277 78.9782C30.5985 79.0574 29.9741 79.0891 29.3691 79.2159L27.5638 79.5696C26.9685 79.6699 26.3974 79.8706 25.8214 80.0131C21.702 81.1781 17.7528 82.9679 14.0892 85.3301C11.3063 87.0856 8.64672 89.064 6.13228 91.249C4.08496 93.0706 2.55552 94.5701 1.54396 95.6155C1.05996 96.1435 0.65824 96.5343 0.39688 96.8088L0 97.2048L0.377519 96.7877L1.51008 95.5733C2.51196 94.5173 4.02688 93.0019 6.0742 91.1698C8.57641 88.9635 11.2282 86.9672 14.007 85.1981C17.6765 82.8139 21.6359 81.0062 25.7682 79.8283C26.3441 79.6805 26.9152 79.4746 27.5154 79.3742L29.3304 79.0152C29.9402 78.8885 30.5694 78.8568 31.1986 78.7671L32.1666 78.6615C32.4861 78.6245 32.8104 78.6298 33.1346 78.6192C33.7832 78.6192 34.4366 78.5611 35.0948 78.5717L37.0938 78.6826C37.4323 78.6935 37.77 78.7252 38.1053 78.7776L39.1217 78.9043C39.7945 79.0258 40.4818 79.1314 41.1642 79.2898C46.6576 80.4619 52.1607 83.1125 57.7654 86.1221C60.5726 87.6269 63.4282 89.2162 66.4 90.7157C69.4122 92.2794 72.5263 93.5977 75.717 94.6598C79.0277 95.745 82.473 96.2616 85.9294 96.191C89.4826 96.0608 92.9877 95.255 96.287 93.8098C99.587 92.3583 102.754 90.5692 105.744 88.4664C108.721 86.4283 111.552 84.2424 114.355 82.1304C119.945 77.9064 125.487 73.92 131.421 71.6074C137.014 69.3898 142.932 68.3037 148.883 68.4024C156.333 68.5329 163.669 70.413 170.392 73.9147C172.203 74.8553 173.962 75.9077 175.663 77.0669C178.404 78.8989 180.995 80.9852 183.407 83.3026C184.93 84.7666 186.384 86.3138 187.763 87.9384L188.818 89.232C189.089 89.5224 189.215 89.665 189.215 89.665Z" fill="#263238"/>
<path d="M114.853 97.3052C114.853 97.3052 114.805 97.3791 114.698 97.5111L114.214 98.1025C113.968 98.4315 113.697 98.7387 113.406 99.0212L112.849 99.5492L112.545 99.8501L112.196 100.135C111.674 100.587 111.127 101.005 110.56 101.387C109.95 101.835 109.253 102.242 108.508 102.691C106.998 103.557 105.226 104.428 103.276 105.384C101.131 106.384 99.0639 107.572 97.0953 108.937C96.018 109.716 95.0201 110.619 94.1187 111.63C93.896 111.899 93.6879 112.189 93.4701 112.469C93.2435 112.746 93.0364 113.041 92.8506 113.351C92.4558 113.974 92.0969 114.623 91.7761 115.294C90.4645 118.024 89.6562 121.165 88.3591 124.233C87.7264 125.816 86.8598 127.275 85.7939 128.552C85.5094 128.868 85.2105 129.167 84.8985 129.45C84.5839 129.724 84.2354 129.978 83.9014 130.215C83.1886 130.659 82.432 131.013 81.646 131.271C80.0813 131.728 78.4946 132.089 76.8931 132.354C76.1185 132.5 75.3525 132.696 74.599 132.94C73.8611 133.169 73.1511 133.493 72.4839 133.906C71.1984 134.752 70.1048 135.903 69.2846 137.275C68.4981 138.596 67.8009 139.977 67.1986 141.409C66.5839 142.798 65.9934 144.165 65.3158 145.443C64.6731 146.694 63.8568 147.828 62.8958 148.806L62.5425 149.155C62.4199 149.262 62.2923 149.363 62.1602 149.456C61.4322 150.055 60.6129 150.509 59.7402 150.797C58.6601 151.152 57.5489 151.382 56.4248 151.483C54.2855 151.7 52.3398 151.689 50.6797 152.069C49.2493 152.345 47.8865 152.94 46.677 153.817C45.9118 154.37 45.2821 155.119 44.8426 155.998C44.7246 156.223 44.6258 156.46 44.5474 156.705C44.4893 156.869 44.4506 156.953 44.4506 156.953C44.4506 156.953 44.4506 156.864 44.5232 156.695C44.5934 156.445 44.6841 156.203 44.7942 155.971C45.2236 155.071 45.8504 154.3 46.6189 153.727C47.8334 152.827 49.2064 152.212 50.6506 151.921C52.3253 151.52 54.2806 151.52 56.4054 151.288C57.5156 151.186 58.6126 150.954 59.6772 150.596C60.2383 150.412 60.7801 150.164 61.2938 149.857C61.5555 149.699 61.8077 149.522 62.0488 149.329C62.1781 149.238 62.3025 149.139 62.4215 149.033L62.7652 148.695C63.7071 147.73 64.507 146.611 65.1368 145.38C65.7998 144.112 66.3855 142.74 67.0002 141.356C67.604 139.912 68.3045 138.517 69.0959 137.185C70.3372 135.013 72.2774 133.426 74.536 132.734C75.2994 132.488 76.0751 132.291 76.8592 132.143C78.4489 131.886 80.0243 131.533 81.5782 131.087C82.3465 130.826 83.0853 130.472 83.7804 130.031C84.1047 129.782 84.4435 129.555 84.7484 129.286C85.052 129.014 85.3413 128.723 85.6148 128.415C86.6628 127.167 87.5163 125.74 88.1413 124.191C89.4287 121.15 90.2467 118.003 91.5777 115.247C91.9033 114.566 92.267 113.909 92.6667 113.277C92.859 112.964 93.0708 112.666 93.3007 112.385C93.5234 112.1 93.7363 111.804 93.959 111.535C94.8741 110.512 95.8884 109.6 96.984 108.816C98.9638 107.451 101.044 106.267 103.203 105.278C105.164 104.328 106.935 103.472 108.445 102.638C109.19 102.194 109.897 101.793 110.502 101.355C111.068 100.98 111.614 100.571 112.138 100.13L112.491 99.8501L112.801 99.5545L113.358 99.0265C113.653 98.7519 113.93 98.4536 114.185 98.1341L114.669 97.5639C114.79 97.3685 114.853 97.3052 114.853 97.3052Z" fill="#263238"/>
<path d="M65.1126 175.201L68.578 167.756C68.578 167.756 62.1021 163.363 62.1602 163.532C62.2183 163.701 61.8698 166.431 63.254 168.781C64.6383 171.13 64.2753 172.883 63.467 173.232C62.9437 172.903 62.3475 172.739 61.7439 172.756C61.0131 172.894 59.3627 174.145 59.3627 174.145L65.1126 175.201Z" fill="#263238"/>
<path d="M50.5248 169.018C50.5248 169.05 50.2973 168.981 50.0069 168.754C49.6288 168.454 49.3261 168.055 49.1265 167.593C48.9269 167.132 48.8368 166.623 48.8647 166.114C48.8647 165.729 48.9712 165.502 49.005 165.512C49.012 166.184 49.1301 166.85 49.3535 167.476C49.6569 168.062 50.0535 168.584 50.5248 169.018Z" fill="#263238"/>
<path d="M49.823 168.934C49.7891 168.997 49.5181 168.934 49.2519 168.685C48.9857 168.437 48.8502 168.157 48.9034 168.157C48.9566 168.157 49.1648 168.279 49.3874 168.49C49.61 168.701 49.823 168.865 49.823 168.934Z" fill="#263238"/>
<path d="M49.5568 169.118C49.5568 169.192 49.2664 169.229 48.976 169.039C48.6856 168.849 48.5743 168.569 48.6323 168.511C48.6904 168.453 48.8647 168.633 49.1163 168.78C49.368 168.928 49.5616 169.045 49.5568 169.118Z" fill="#263238"/>
<path d="M42.4372 165.591C40.9174 168.59 40.8738 167.392 40.5641 171.056C40.4362 172.394 40.2112 173.718 39.8913 175.016C39.669 175.43 39.3478 175.769 38.962 175.998C38.962 175.998 36.634 177.334 36.179 178.686C36.0952 178.874 36.0472 179.078 36.0381 179.287C36.0289 179.496 36.0587 179.704 36.1258 179.9L41.2368 178.079C41.2368 178.079 44.3828 171.215 45.9655 170.396L42.4372 165.591Z" fill="#455A64"/>
<path d="M76.1816 153.12L73.9359 154.419C80.5764 148.173 75.504 143.859 75.504 143.859C75.1797 151.779 68.3021 153.643 68.3021 153.643C68.3021 153.643 64.1252 153.062 60.8098 154.065C57.4944 155.068 52.7173 155.808 51.154 155.718C49.2738 155.469 47.4064 155.117 45.5589 154.662L45.8397 153.891L42.5872 150.997L40.3559 149.598C40.1352 149.458 39.8795 149.397 39.6251 149.424L33.7542 150.068L32.428 151.087L31.5229 154.609L26.9249 154.936C26.7532 155.628 26.7532 156.357 26.9249 157.048C27.1285 157.935 27.5571 158.741 28.1614 159.374C28.7658 160.008 29.5216 160.442 30.342 160.628L32.1812 161.066L32.2247 161.008L38.5167 162.191L40.3317 165.75C40.4624 166.431 41.0674 168.39 43.7923 170.961C47.5433 174.478 56.9862 168.849 60.8921 166.452C61.7718 165.923 62.7578 165.64 63.7622 165.628C63.7318 165.951 63.7668 166.277 63.8646 166.584C63.9625 166.891 64.1208 167.17 64.3285 167.402C66.9227 170.423 72.1015 169.06 72.1015 169.06L72.9679 174.573C71.211 175.201 69.8945 177.867 69.8945 177.867L75.3153 175.755C75.3153 175.755 75.2862 171.605 75.1749 167.835C75.0636 164.065 75.7363 163.611 75.7363 163.611C74.5167 163.817 72.7694 163.374 71.603 162.846C71.7676 160.924 70.4511 157.624 70.4511 157.624C75.5669 155.839 76.1816 153.12 76.1816 153.12Z" fill="#455A64"/>
<path d="M26.7749 155.955C26.8541 156.407 26.9624 156.851 27.0992 157.286C27.2735 157.745 27.4926 158.182 27.7526 158.59C27.8877 158.836 28.0415 159.069 28.2124 159.287C28.2475 159.33 28.2923 159.363 28.3424 159.381C28.3924 159.4 28.4461 159.404 28.498 159.393C28.6104 159.358 28.7058 159.276 28.7642 159.166C28.8735 158.893 28.9248 158.597 28.9142 158.3C28.9142 157.994 28.9142 157.703 28.9142 157.423C28.8911 156.928 28.8148 156.437 28.6867 155.961C28.5994 155.646 28.4471 155.357 28.2414 155.116C28.0866 154.952 27.9801 154.889 27.9898 154.868C27.9994 154.847 28.1204 154.868 28.3044 155.031C28.5533 155.26 28.742 155.557 28.8513 155.892C29.0112 156.379 29.1089 156.887 29.1417 157.402C29.1664 157.704 29.1761 158.007 29.1707 158.31C29.1855 158.656 29.1241 159 28.9916 159.314C28.8951 159.485 28.7403 159.609 28.5609 159.657C28.4737 159.673 28.3842 159.666 28.3 159.637C28.2158 159.607 28.1392 159.556 28.0769 159.488C27.8929 159.252 27.7308 158.998 27.5929 158.727C27.3315 158.3 27.1201 157.839 26.9637 157.355C26.8622 157.025 26.8019 156.683 26.7846 156.336C26.7561 156.211 26.7528 156.081 26.7749 155.955Z" fill="#263238"/>
<path d="M27.3606 154.794C27.3993 154.794 27.438 154.794 27.4574 154.857C27.5435 155.056 27.5803 155.277 27.5638 155.496C27.5736 155.568 27.5736 155.641 27.5638 155.712C27.5528 155.746 27.5348 155.776 27.5113 155.801C27.4878 155.826 27.4594 155.844 27.4283 155.855C27.3902 155.86 27.3515 155.855 27.3158 155.839C27.2802 155.824 27.2489 155.798 27.225 155.765C27.1718 155.702 27.1331 155.623 27.0798 155.565C27.0266 155.507 27.0314 155.522 27.0072 155.538C26.983 155.554 27.0072 155.591 27.0072 155.617C27.0314 155.736 27.0314 155.858 27.0072 155.976C26.9924 156.034 26.964 156.087 26.925 156.13C26.9057 156.149 26.8817 156.162 26.8559 156.166C26.8302 156.171 26.8037 156.167 26.7798 156.156C26.7798 156.156 26.7798 154.873 27.104 154.799C27.4283 154.725 27.3606 154.794 27.3606 154.794Z" fill="#263238"/>
<path d="M32.7427 155.998C32.6623 156.006 32.5812 155.995 32.5047 155.967C32.4281 155.939 32.3578 155.894 32.2982 155.835C32.2385 155.775 32.1909 155.703 32.1583 155.622C32.1257 155.542 32.1089 155.455 32.1089 155.367C32.1089 155.279 32.1257 155.191 32.1583 155.111C32.1909 155.03 32.2385 154.958 32.2982 154.899C32.3578 154.839 32.4281 154.794 32.5047 154.766C32.5812 154.738 32.6623 154.728 32.7427 154.736C32.8231 154.728 32.9041 154.738 32.9806 154.766C33.0572 154.794 33.1275 154.839 33.1871 154.899C33.2468 154.958 33.2944 155.03 33.327 155.111C33.3596 155.191 33.3764 155.279 33.3764 155.367C33.3764 155.455 33.3596 155.542 33.327 155.622C33.2944 155.703 33.2468 155.775 33.1871 155.835C33.1275 155.894 33.0572 155.939 32.9806 155.967C32.9041 155.995 32.8231 156.006 32.7427 155.998Z" fill="#263238"/>
<path d="M27.9607 156.874C27.9319 156.882 27.9012 156.878 27.8751 156.863C27.8489 156.847 27.8293 156.821 27.8204 156.79C27.8204 156.737 27.8639 156.684 27.9317 156.668C27.9606 156.66 27.9912 156.664 28.0174 156.68C28.0435 156.696 28.0631 156.722 28.0721 156.753C28.0769 156.806 28.043 156.858 27.9607 156.874Z" fill="#263238"/>
<path d="M28.1737 157.83C28.1108 157.867 28.014 157.793 28.0237 157.661C28.0333 157.529 28.1301 157.46 28.1882 157.502C28.2138 157.521 28.235 157.546 28.2501 157.576C28.2652 157.605 28.2738 157.638 28.2753 157.671C28.2724 157.705 28.2616 157.737 28.2437 157.765C28.2259 157.793 28.2018 157.815 28.1737 157.83Z" fill="#263238"/>
<path d="M38.691 162.492C41.9725 160.491 44.4119 157.106 44.8475 153.03L45.9946 153.648C45.9946 153.648 45.8833 158.458 39.3009 163.68L38.691 162.492Z" fill="#08915C"/>
<path d="M38.2603 151.441C38.7102 150.843 39.2291 150.31 39.8042 149.857C40.3845 149.41 41.0995 149.221 41.8031 149.329C42.3649 149.496 42.8878 149.791 43.3374 150.195L46.9626 152.999C47.1143 153.085 47.2481 153.205 47.3555 153.35C47.463 153.495 47.5417 153.663 47.5869 153.843C47.645 154.371 47.1368 154.762 46.677 154.952C44.8233 155.718 42.7663 155.449 40.8061 155.163" fill="#455A64"/>
<path d="M39.7897 155.269C39.7897 155.269 39.8381 155.216 39.9542 155.137C40.1235 155.03 40.3039 154.945 40.4915 154.884C41.1853 154.669 41.9137 154.622 42.6259 154.746C43.5262 154.841 44.5619 155.163 45.738 154.995C46.0289 154.949 46.3134 154.863 46.585 154.741C46.7223 154.674 46.8549 154.596 46.9819 154.509C47.1029 154.408 47.2481 154.324 47.2965 154.208C47.3587 154.068 47.3886 153.914 47.3836 153.759C47.386 153.719 47.386 153.678 47.3836 153.638C47.3836 153.579 47.3836 153.606 47.3836 153.564C47.3476 153.495 47.3019 153.432 47.2481 153.379C47.0101 153.127 46.7562 152.894 46.4882 152.682C45.2976 151.726 44.1069 150.908 43.0518 150.158C42.7856 149.978 42.5291 149.778 42.2823 149.63C42.0498 149.478 41.7912 149.379 41.5224 149.34C41.0435 149.277 40.5585 149.376 40.1333 149.625C39.5855 149.922 39.0854 150.315 38.6523 150.786C38.3522 151.119 38.207 151.314 38.1925 151.314C38.2135 151.254 38.2428 151.197 38.2796 151.145C38.3749 150.996 38.4783 150.853 38.5894 150.718C39.0013 150.208 39.4929 149.783 40.0414 149.461C40.495 149.174 41.0204 149.052 41.5418 149.113C41.8384 149.149 42.125 149.252 42.3839 149.414C42.655 149.577 42.8969 149.762 43.168 149.942C44.2328 150.681 45.4331 151.489 46.6334 152.455C46.9132 152.677 47.1785 152.921 47.4272 153.183C47.4936 153.257 47.5521 153.338 47.6014 153.426C47.6307 153.481 47.6473 153.543 47.6498 153.606C47.6524 153.655 47.6524 153.704 47.6498 153.754C47.6532 153.956 47.61 154.155 47.524 154.335C47.4783 154.427 47.4137 154.506 47.3352 154.567L47.1319 154.725C46.9925 154.821 46.8469 154.906 46.6963 154.979C46.4043 155.107 46.0986 155.194 45.7864 155.237C44.5571 155.401 43.5019 155.047 42.6211 154.936C41.9283 154.801 41.2179 154.815 40.5302 154.979C40.0365 155.137 39.7994 155.295 39.7897 155.269Z" fill="#263238"/>
<path d="M61.5068 153.738C61.9293 154.073 62.2456 154.544 62.4118 155.085C62.578 155.625 62.5858 156.209 62.4342 156.754C62.2825 157.3 61.979 157.78 61.5656 158.129C61.1522 158.478 60.6495 158.678 60.1274 158.701C59.0819 158.749 58.0607 158.089 57.0249 158.268C56.328 158.384 55.7326 158.87 55.0889 159.203C54.5539 159.501 53.9618 159.656 53.361 159.656C52.7603 159.656 52.1682 159.501 51.6332 159.203C51.1091 158.881 50.7042 158.371 50.4886 157.758C50.273 157.146 50.2601 156.471 50.4522 155.85C52.7573 155.682 55.0529 155.384 57.3298 154.957C58.7404 154.629 60.1346 154.222 61.5068 153.738Z" fill="#263238"/>
<path d="M42.079 167.904C42.2442 169.237 42.7228 170.501 43.4683 171.572C44.2138 172.644 45.2008 173.486 46.3334 174.018C46.89 174.272 47.524 174.483 47.8483 175.037C48.0542 175.479 48.1446 175.974 48.1097 176.468C48.1097 176.468 47.8773 179.436 48.705 180.624C48.8076 180.808 48.9439 180.968 49.1054 181.094C49.2668 181.219 49.4501 181.307 49.6439 181.352L50.5393 174.182C50.5393 174.182 48.1677 169.763 48.371 167.809L42.079 167.904Z" fill="#455A64"/>
<path d="M49.7214 179.346C49.7214 179.383 49.5955 179.393 49.4358 179.298C49.2314 179.174 49.0725 178.976 48.9857 178.739C48.7873 178.184 48.8792 177.73 48.9373 177.73C48.9954 177.73 49.0486 178.174 49.218 178.633C49.3874 179.092 49.7359 179.282 49.7214 179.346Z" fill="#263238"/>
<path d="M49.6778 181.194C49.6778 181.225 49.4939 181.162 49.2712 180.977C48.9804 180.729 48.7481 180.409 48.5936 180.043C48.4396 179.685 48.3634 179.292 48.371 178.897C48.371 178.591 48.4533 178.411 48.4823 178.416C48.5397 178.941 48.6534 179.457 48.8211 179.953C49.0627 180.401 49.3501 180.817 49.6778 181.194Z" fill="#263238"/>
<path d="M43.8747 171.03C43.7526 170.969 43.6412 170.885 43.5455 170.782C43.2656 170.531 43.005 170.255 42.7663 169.958C41.961 168.962 41.3662 167.785 41.0239 166.51L41.2707 166.452C41.2782 166.554 41.2782 166.656 41.2707 166.758C41.2535 167.161 41.1139 167.545 40.8739 167.851L40.748 167.999L40.6657 167.82C40.2064 166.811 39.8556 165.748 39.6203 164.652C39.5053 164.217 39.4451 163.768 39.4412 163.316C39.5727 163.74 39.6842 164.172 39.7752 164.609C40.0568 165.676 40.4295 166.712 40.8884 167.703L40.6851 167.677C40.8878 167.418 41.0053 167.093 41.0191 166.753C41.0266 166.667 41.0266 166.58 41.0191 166.494L41.2659 166.436C41.6008 167.677 42.1549 168.833 42.897 169.842C43.4681 170.602 43.9037 170.977 43.8747 171.03Z" fill="#263238"/>
<path d="M44.5426 166.5C44.5426 166.5 44.6394 166.463 44.8233 166.452C45.0871 166.44 45.3513 166.456 45.6122 166.5C46.5237 166.639 47.3871 167.032 48.1193 167.64H47.9451L48.7292 166.547L49.0292 166.125L48.9518 166.653V166.758C48.8937 167.144 48.8405 167.519 48.7873 167.883L48.6711 167.725C48.758 167.729 48.8445 167.71 48.9235 167.671C49.0026 167.631 49.072 167.572 49.126 167.498L49.7552 166.6L49.339 167.651C49.0086 168.46 48.9026 169.358 49.0341 170.233C49.1309 170.877 49.2906 171.236 49.2567 171.252C49.2228 171.267 49.1938 171.172 49.1212 171.009C49.0178 170.769 48.9398 170.518 48.8889 170.259C48.7016 169.35 48.7829 168.4 49.1212 167.545L49.3245 167.677C49.2484 167.786 49.1494 167.874 49.0356 167.933C48.9219 167.992 48.7969 168.02 48.6711 168.015H48.5307L48.5549 167.867C48.6033 167.503 48.6566 167.128 48.7098 166.743V166.637L48.9325 166.743C48.6566 167.117 48.3952 167.487 48.1435 167.83L48.0661 167.936L47.9741 167.857C47.2758 167.264 46.4605 166.857 45.5929 166.669C44.9395 166.521 44.5426 166.537 44.5426 166.5Z" fill="#263238"/>
<path d="M37.1858 151.562C37.0054 151.747 36.7833 151.877 36.5421 151.937C35.9426 152.148 35.2975 152.148 34.698 151.937L34.8384 151.742C34.9981 152.027 35.1675 152.333 35.3224 152.645C35.3898 152.761 35.4512 152.881 35.5063 153.004C35.5374 153.082 35.5506 153.167 35.545 153.252C35.5418 153.31 35.5225 153.366 35.4897 153.412C35.4569 153.459 35.4121 153.493 35.3611 153.511C35.2234 153.53 35.0835 153.505 34.9594 153.437C34.8529 153.395 34.7513 153.347 34.6545 153.3C34.3052 153.125 33.9795 152.9 33.6865 152.629C33.4042 152.401 33.1767 152.102 33.0234 151.758C33.0573 151.758 33.2993 152.069 33.7978 152.476C34.098 152.714 34.4229 152.912 34.7658 153.067C34.8577 153.109 34.9545 153.152 35.0562 153.189C35.1578 153.226 35.2837 153.273 35.303 153.252C35.3224 153.231 35.303 153.252 35.303 153.252C35.3054 153.208 35.297 153.165 35.2788 153.125C35.2449 153.041 35.1675 152.919 35.1094 152.809L34.6254 151.9L34.456 151.584L34.7706 151.705C35.3266 151.915 35.9253 151.949 36.4985 151.805C36.9293 151.668 37.1664 151.531 37.1858 151.562Z" fill="#263238"/>
<path d="M34.1269 154.408C34.064 154.451 33.8994 154.276 33.6429 154.155C33.3864 154.033 33.1589 154.012 33.1589 153.933C33.1589 153.854 33.4299 153.748 33.7542 153.907C34.0785 154.065 34.1898 154.377 34.1269 154.408Z" fill="#263238"/>
<path d="M62.349 162.455C61.7508 162.505 61.151 162.387 60.6066 162.112C60.0331 161.924 59.5144 161.576 59.1013 161.103C59.14 161.035 59.8031 161.489 60.6985 161.858C61.5939 162.228 62.3586 162.376 62.349 162.455Z" fill="#263238"/>
<path d="M63.4621 161.837C63.0181 161.957 62.5501 161.906 62.136 161.695C61.6924 161.572 61.3 161.289 61.0228 160.892C61.0663 160.829 61.5552 161.183 62.2182 161.42C62.8813 161.658 63.467 161.758 63.4621 161.837Z" fill="#263238"/>
<path d="M107.312 70.3613C106.749 70.3629 106.192 70.2355 105.676 69.9871C105.161 69.7388 104.699 69.3751 104.321 68.9196C103.943 68.4641 103.656 67.927 103.48 67.3431C103.305 66.7592 103.243 66.1415 103.3 65.5301C103.431 64.1203 103.542 62.9746 103.542 62.9746C103.542 62.9746 100.362 62.4466 100.314 58.9776C100.265 55.5086 100.798 47.5411 100.798 47.5411C102.603 46.6876 104.584 46.376 106.536 46.6388C108.488 46.9015 110.34 47.7289 111.901 49.0353L112.385 49.4261L111.32 66.2745C111.25 67.3826 110.798 68.4205 110.054 69.1789C109.31 69.9373 108.331 70.3599 107.312 70.3613Z" fill="#FFBE9D"/>
<path d="M101.698 54.0725C101.773 54.0041 101.827 53.9128 101.853 53.8103C101.88 53.7079 101.877 53.5992 101.846 53.4984C101.814 53.3976 101.756 53.3095 101.678 53.2456C101.6 53.1817 101.506 53.145 101.409 53.1403C101.311 53.1356 101.215 53.1631 101.132 53.2192C101.049 53.2753 100.984 53.3574 100.944 53.4547C100.905 53.5521 100.894 53.6601 100.911 53.7647C100.929 53.8692 100.976 53.9655 101.045 54.0408C101.13 54.1343 101.245 54.1894 101.366 54.1952C101.487 54.2011 101.605 54.1573 101.698 54.0725Z" fill="#263238"/>
<path d="M100.812 52.6311C100.861 52.6944 101.175 52.4304 101.611 52.4251C102.047 52.4199 102.366 52.668 102.414 52.6099C102.463 52.5519 102.39 52.4727 102.25 52.3565C102.064 52.2089 101.841 52.1293 101.611 52.1293C101.381 52.1293 101.158 52.2089 100.972 52.3565C100.837 52.4991 100.788 52.6047 100.812 52.6311Z" fill="#263238"/>
<path d="M105.715 53.761C105.63 53.8126 105.561 53.8913 105.517 53.9865C105.473 54.0818 105.457 54.1893 105.47 54.2948C105.484 54.4004 105.526 54.4991 105.592 54.5779C105.657 54.6568 105.743 54.7121 105.838 54.7366C105.933 54.7612 106.033 54.7538 106.124 54.7154C106.215 54.677 106.294 54.6095 106.349 54.5216C106.404 54.4338 106.434 54.3298 106.434 54.2232C106.434 54.1167 106.405 54.0126 106.349 53.9247C106.318 53.8679 106.277 53.8185 106.228 53.7794C106.179 53.7403 106.123 53.7122 106.064 53.697C106.005 53.6817 105.944 53.6795 105.884 53.6905C105.824 53.7015 105.767 53.7255 105.715 53.761Z" fill="#263238"/>
<path d="M105.425 52.9742C105.473 53.0323 105.788 52.7683 106.224 52.763C106.659 52.7577 106.979 53.0059 107.027 52.9478C107.075 52.8898 107.003 52.8105 106.862 52.6944C106.677 52.5468 106.453 52.4672 106.224 52.4672C105.994 52.4672 105.77 52.5468 105.585 52.6944C105.449 52.8369 105.401 52.9478 105.425 52.9742Z" fill="#263238"/>
<path d="M103.784 57.0663C103.554 56.9697 103.309 56.9231 103.063 56.929C102.947 56.929 102.855 56.8867 102.85 56.8181C102.845 56.6946 102.872 56.5721 102.927 56.4643C103.044 56.1475 103.155 55.8255 103.276 55.4928C103.6 54.67 103.848 53.8139 104.016 52.9373C103.621 53.7208 103.296 54.545 103.048 55.3978L102.724 56.3746C102.648 56.5373 102.625 56.724 102.661 56.9026C102.678 56.9502 102.705 56.993 102.739 57.0278C102.774 57.0626 102.815 57.0883 102.86 57.1032C102.924 57.1238 102.991 57.1327 103.058 57.1296C103.302 57.1524 103.547 57.131 103.784 57.0663Z" fill="#263238"/>
<path d="M103.547 62.9218C105.015 62.9495 106.458 62.4991 107.69 61.6282C107.69 61.6282 106.722 64.1256 103.542 63.8247L103.547 62.9218Z" fill="#EB996E"/>
<path d="M112.017 53.0957C112.085 53.0957 114.626 52.9532 114.069 55.5879C113.585 57.8689 111.359 57.0029 111.364 56.929C111.368 56.8551 112.017 53.0957 112.017 53.0957Z" fill="#FFBE9D"/>
<path d="M112.312 55.9786C112.312 55.9786 112.341 56.0103 112.399 56.0472C112.439 56.0751 112.484 56.0936 112.53 56.1018C112.577 56.11 112.625 56.1076 112.67 56.0948C112.817 56.0231 112.944 55.91 113.038 55.7671C113.131 55.6242 113.188 55.4566 113.203 55.2816C113.23 55.0862 113.22 54.8867 113.174 54.6956C113.163 54.6214 113.136 54.5513 113.095 54.4914C113.053 54.4315 112.999 54.3838 112.937 54.3524C112.897 54.3334 112.852 54.3304 112.81 54.3439C112.769 54.3575 112.733 54.3866 112.709 54.4263C112.67 54.4844 112.68 54.5319 112.67 54.5372C112.661 54.5425 112.627 54.4897 112.67 54.3999C112.685 54.3565 112.71 54.3182 112.743 54.289C112.806 54.2507 112.881 54.2412 112.951 54.2626C113.035 54.2941 113.109 54.3486 113.168 54.4207C113.226 54.4929 113.267 54.5803 113.285 54.6744C113.351 54.8849 113.367 55.1099 113.333 55.3292C113.316 55.5331 113.244 55.727 113.127 55.8873C113.01 56.0476 112.853 56.1674 112.675 56.232C112.617 56.2409 112.558 56.2356 112.502 56.2164C112.446 56.1972 112.394 56.1647 112.351 56.1212C112.307 56.0314 112.302 55.9786 112.312 55.9786Z" fill="#EB996E"/>
<path d="M111.349 55.4506C110.841 55.741 110.197 55.2922 109.975 54.7167C109.813 54.1157 109.767 53.4847 109.839 52.8634C109.859 52.0118 109.775 51.1612 109.587 50.3343C109.514 49.7883 109.255 49.2926 108.861 48.9456C108.604 48.8085 108.323 48.7319 108.037 48.721C107.751 48.7101 107.466 48.765 107.201 48.8823C106.674 49.1247 106.103 49.2365 105.531 49.2096C104.786 49.0829 104.205 48.3965 103.465 48.2328C102.724 48.0691 102.09 48.3965 101.403 48.5602C100.718 48.752 99.9934 48.6812 99.3507 48.3595C99.0335 48.1926 98.7694 47.9259 98.5926 47.5936C98.4157 47.2614 98.3342 46.879 98.3585 46.4957C98.3841 46.3089 98.4449 46.1298 98.537 45.9699C98.6291 45.8099 98.7507 45.6725 98.8939 45.5664C99.0372 45.4602 99.199 45.3876 99.3693 45.3531C99.5395 45.3185 99.7145 45.3229 99.8831 45.3658C99.768 45.268 99.6736 45.1442 99.6064 45.0029C99.5393 44.8616 99.5009 44.7061 99.494 44.5471C99.4871 44.3881 99.5118 44.2294 99.5665 44.0818C99.6211 43.9342 99.7044 43.8012 99.8105 43.692C100.041 43.4869 100.319 43.3556 100.614 43.3127C100.909 43.2699 101.209 43.3171 101.48 43.4491C102.021 43.7241 102.502 44.1199 102.894 44.6107C102.962 44.3278 103.117 44.0788 103.333 43.9042C103.548 43.7297 103.811 43.64 104.079 43.6498C104.616 43.6915 105.126 43.9233 105.531 44.3098C105.957 44.6688 106.335 45.0912 106.785 45.4027C107.685 46.0311 108.789 46.1683 109.824 46.4587C110.86 46.7491 111.954 47.2824 112.399 48.3384C112.796 49.273 112.428 50.3343 112.332 51.3533C112.235 52.3723 112.215 52.6575 112.109 53.6554C112.114 53.6554 112.09 55.0546 111.349 55.4506Z" fill="#263238"/>
<path d="M103.305 58.4285C103.305 58.4602 103.421 58.5288 103.634 58.5394C103.917 58.5474 104.196 58.4608 104.433 58.2912C104.669 58.1238 104.852 57.8802 104.955 57.5942C105.028 57.3778 105.023 57.2299 104.994 57.2246C104.965 57.2194 104.791 57.7527 104.307 58.0853C103.993 58.2604 103.654 58.3764 103.305 58.4285Z" fill="white"/>
<path d="M111.088 47.7576C111.151 47.7893 111.344 47.388 111.77 47.1398C112.196 46.8917 112.607 46.9234 112.617 46.8547C112.627 46.7861 112.52 46.765 112.341 46.7491C112.105 46.7379 111.87 46.7982 111.664 46.9234C111.46 47.0467 111.293 47.2296 111.18 47.4514C111.073 47.6203 111.064 47.747 111.088 47.7576Z" fill="#263238"/>
<path d="M111.61 45.2285C111.548 45.2285 111.61 45.7565 111.494 46.3954C111.378 47.0343 111.151 47.4884 111.204 47.5306C111.467 47.2296 111.645 46.8527 111.717 46.4446C111.789 46.0365 111.752 45.6144 111.61 45.2285Z" fill="#263238"/>
<path d="M112.172 57.2247C112.172 57.2247 112.051 57.42 112.211 57.7157C112.268 57.8066 112.344 57.8816 112.432 57.9347C112.521 57.9879 112.62 58.0178 112.721 58.0219C112.822 58.0261 112.922 58.0044 113.014 57.9587C113.106 57.913 113.187 57.8445 113.25 57.7586C113.314 57.6727 113.358 57.5718 113.379 57.4641C113.4 57.3563 113.398 57.2446 113.373 57.1378C113.348 57.0311 113.3 56.9322 113.233 56.8492C113.167 56.7662 113.083 56.7013 112.99 56.6597C112.699 56.5436 112.506 56.6914 112.54 56.7125C112.574 56.7336 112.714 56.7125 112.927 56.8181C113.041 56.8904 113.129 57.0045 113.174 57.1402C113.192 57.2209 113.192 57.305 113.174 57.3858C113.156 57.4665 113.121 57.5416 113.072 57.6048C113.024 57.668 112.963 57.7181 112.894 57.7511C112.825 57.7841 112.75 57.7991 112.675 57.7949C112.545 57.7712 112.427 57.6983 112.341 57.589C112.186 57.4148 112.211 57.2247 112.172 57.2247Z" fill="#263238"/>
<path d="M116.663 78.482C116.663 78.482 126.498 84.876 126.087 86.0746C125.675 87.2732 115.129 94.3061 115.129 94.3061L117.593 99.9557C117.593 99.9557 135.849 93.3927 134.857 85.0556C134.053 78.3288 121.75 71.2906 121.75 71.2906L116.663 78.482Z" fill="#FFBE9D"/>
<path d="M114.263 93.4772C115.918 93.7148 116.847 93.757 116.847 93.757L118.386 93.9576L120.269 98.8733L115.603 101.635C114.127 101.292 111.209 99.0793 111.32 97.4372C111.431 95.7951 113.193 94.6493 113.193 94.6493C113.193 94.6493 112.535 93.229 114.263 93.4772Z" fill="#FFBE9D"/>
<path d="M106.891 115.753C106.891 115.753 113.938 138.88 123.831 145.01C133.724 151.14 153.254 159.715 153.254 159.715L156.255 152.502C156.255 152.502 129.901 138.188 128.56 133.859L124.078 121.377" fill="#FFBE9D"/>
<path d="M98.6344 115.753C98.2714 116.398 89.2351 132.032 88.7511 138.457C88.2671 144.883 97.739 179.061 97.739 179.061L104.713 176.727C104.713 176.727 97.9374 142.333 98.9054 140.955C99.8734 139.577 112.211 120.706 112.211 120.706L98.6344 115.753Z" fill="#FFBE9D"/>
<path d="M94.472 73.825C94.472 73.825 89.632 85.14 88.4897 84.8126C87.5605 84.5486 82.372 77.2834 80.5328 74.675C80.5328 74.1998 80.5328 73.5504 80.5328 72.7267C80.586 70.8312 79.3567 71.6707 79.3567 71.6707C79.3567 71.6707 78.137 69.865 76.6269 69.9125C75.1168 69.96 73.3889 73.3498 73.2389 74.9866L76.2252 79.7755C78.7371 85.0133 84.608 95.6683 90.295 94.2163C96.3499 92.6693 101.529 78.6086 101.529 78.6086L94.472 73.825Z" fill="#FFBE9D"/>
<path d="M96.0305 173.358L98.3101 180.84L105.265 178.633L103.276 169.324L96.0305 173.358Z" fill="#EBEBEB"/>
<path d="M97.5454 179.425L97.4922 178.723L104.825 176.51L105.473 179.599L104.989 179.747C102.957 180.375 94.6075 182.783 93.141 182.667C91.5002 182.53 97.497 179.425 97.497 179.425" fill="#08915C"/>
<g opacity="0.5">
<path opacity="0.5" d="M102.744 180.064C102.675 179.704 102.68 179.331 102.759 178.974C102.839 178.616 102.99 178.282 103.202 177.996C103.414 177.71 103.682 177.479 103.986 177.32C104.29 177.16 104.623 177.077 104.96 177.075L105.444 179.351L102.744 180.064Z" fill="white"/>
</g>
<g opacity="0.4">
<path opacity="0.4" d="M94.6365 181.062C94.6365 181.062 92.5021 182.387 92.9135 182.646C93.5524 183.031 101.795 180.888 105.497 179.61L105.415 179.288L95.4497 181.88C95.4497 181.88 95.0721 180.972 94.6365 181.062Z" fill="white"/>
</g>
<path d="M105.527 179.251L105.401 179.298L105.038 179.414L103.697 179.81C102.56 180.138 100.982 180.565 99.2345 180.993C97.4873 181.421 95.895 181.775 94.7382 182.012L93.3733 182.281L93.0006 182.35C92.9557 182.357 92.9101 182.357 92.8651 182.35L92.9958 182.313L93.3636 182.229L94.7285 181.928C95.8804 181.669 97.468 181.31 99.2152 180.872C100.962 180.433 102.54 180.027 103.678 179.721L105.028 179.356L105.396 179.256L105.527 179.251Z" fill="#263238"/>
<path d="M95.5222 181.938C95.4095 181.709 95.2749 181.493 95.1205 181.294C94.9455 181.12 94.7521 180.97 94.5446 180.845C94.7948 180.881 95.0241 181.016 95.1883 181.226C95.3738 181.412 95.4923 181.665 95.5222 181.938Z" fill="#263238"/>
<path d="M97.4728 180.18C97.4728 180.18 97.3179 180.09 97.1727 179.927C97.0275 179.763 96.921 179.62 96.9355 179.599C96.95 179.578 97.0904 179.694 97.2356 179.858C97.3808 180.022 97.4873 180.164 97.4728 180.18Z" fill="#263238"/>
<path d="M98.0052 179.684C98.0052 179.71 97.8551 179.652 97.7002 179.557C97.5454 179.462 97.4292 179.367 97.4437 179.346C97.4583 179.325 97.5938 179.377 97.7486 179.472C97.9035 179.567 98.0148 179.662 98.0052 179.684Z" fill="#263238"/>
<path d="M97.071 179.536C96.9171 179.604 96.7531 179.642 96.587 179.647C96.4084 179.666 96.2284 179.666 96.0498 179.647C95.9413 179.64 95.8341 179.618 95.7303 179.583C95.6665 179.562 95.6127 179.515 95.5803 179.451C95.5646 179.414 95.559 179.373 95.5641 179.333C95.5693 179.293 95.585 179.255 95.6093 179.224C95.7711 179.08 95.9738 179.001 96.1829 179.001C96.392 179.001 96.5947 179.08 96.7564 179.224C96.8512 179.31 96.9286 179.416 96.9839 179.536C97.0226 179.62 97.0275 179.673 97.0226 179.673C96.9431 179.523 96.8379 179.39 96.7129 179.282C96.5732 179.166 96.4042 179.1 96.2289 179.092C96.129 179.079 96.0278 179.089 95.9313 179.119C95.8348 179.15 95.7451 179.202 95.6674 179.272C95.6045 179.351 95.6674 179.441 95.7497 179.478C95.8461 179.508 95.945 179.527 96.0449 179.536C96.2189 179.551 96.3937 179.551 96.5677 179.536C96.8871 179.562 97.071 179.52 97.071 179.536Z" fill="#263238"/>
<path d="M96.9549 179.589C96.9549 179.589 96.8484 179.483 96.8242 179.24C96.8078 179.1 96.8262 178.958 96.8774 178.828C96.9008 178.74 96.9448 178.66 97.005 178.596C97.0653 178.533 97.1397 178.487 97.2211 178.464C97.2463 178.463 97.2713 178.468 97.2948 178.478C97.3183 178.488 97.3397 178.503 97.3577 178.522C97.3757 178.542 97.3901 178.564 97.3999 178.59C97.4097 178.615 97.4147 178.642 97.4147 178.67C97.4227 178.756 97.4128 178.842 97.3856 178.923C97.3435 179.053 97.2883 179.177 97.2211 179.293C97.1664 179.404 97.0885 179.5 96.9936 179.573C97.0462 179.464 97.1044 179.358 97.1678 179.256C97.2239 179.14 97.2693 179.018 97.3034 178.892C97.3469 178.765 97.3469 178.559 97.2259 178.564C97.1049 178.57 97.0033 178.739 96.9549 178.865C96.9083 178.982 96.8852 179.108 96.8871 179.235C96.8993 179.355 96.922 179.473 96.9549 179.589Z" fill="#263238"/>
<path d="M104.917 177.065C104.732 177.105 104.549 177.156 104.37 177.218C103.942 177.382 103.564 177.671 103.276 178.052C102.998 178.443 102.821 178.908 102.763 179.399C102.724 179.773 102.763 180.011 102.763 180.011C102.742 179.959 102.731 179.904 102.729 179.847C102.713 179.695 102.713 179.541 102.729 179.388C102.766 178.877 102.943 178.389 103.237 177.989C103.534 177.592 103.931 177.3 104.379 177.149C104.514 177.106 104.652 177.076 104.791 177.059C104.859 177.054 104.917 177.054 104.917 177.065Z" fill="#263238"/>
<path d="M101.64 179.499C101.303 179.679 100.944 179.809 100.575 179.884C100.213 179.996 99.8385 180.054 99.462 180.059C99.462 180.027 99.946 179.942 100.551 179.784C101.156 179.626 101.611 179.473 101.64 179.499Z" fill="#263238"/>
<path d="M103.102 179.14C103.102 179.14 103.102 179.261 103.058 179.393C103.015 179.525 103.029 179.641 103.005 179.647C102.981 179.652 102.937 179.531 102.971 179.372C103.005 179.214 103.063 179.124 103.102 179.14Z" fill="#263238"/>
<path d="M103.499 178.253C103.499 178.253 103.499 178.369 103.431 178.469C103.363 178.57 103.305 178.649 103.281 178.633C103.257 178.617 103.281 178.522 103.349 178.416C103.416 178.311 103.474 178.242 103.499 178.253Z" fill="#263238"/>
<path d="M104.215 177.72C104.215 177.751 104.118 177.772 104.016 177.841C103.915 177.91 103.847 177.994 103.828 177.978C103.808 177.962 103.828 177.836 103.968 177.756C104.108 177.677 104.22 177.693 104.215 177.72Z" fill="#263238"/>
<path d="M104.742 177.419C104.742 177.445 104.742 177.498 104.67 177.54C104.597 177.582 104.554 177.593 104.539 177.572C104.525 177.551 104.539 177.498 104.617 177.456C104.694 177.413 104.728 177.397 104.742 177.419Z" fill="#263238"/>
<path d="M149.474 158.02L156.163 161.003L159.154 153.812L151.381 149.398L149.474 158.02Z" fill="#EBEBEB"/>
<path d="M154.691 160.729L154.173 160.317L157.402 152.803L159.972 154.276L159.778 154.752C158.892 156.864 155.132 165.312 154.096 166.463C152.934 167.735 154.691 160.729 154.691 160.729Z" fill="#08915C"/>
<g opacity="0.5">
<path opacity="0.5" d="M158.505 156.827C158.211 156.648 157.956 156.401 157.76 156.102C157.563 155.804 157.43 155.461 157.369 155.1C157.309 154.738 157.322 154.367 157.409 154.012C157.496 153.656 157.654 153.327 157.871 153.046L159.759 154.139L158.505 156.827Z" fill="white"/>
</g>
<g opacity="0.4">
<path opacity="0.4" d="M153.927 164.192C153.927 164.192 153.443 166.832 153.927 166.642C154.609 166.362 158.481 158.147 159.991 154.26L159.715 154.118L155.03 164.06C155.03 164.06 154.149 163.775 153.927 164.192Z" fill="white"/>
</g>
<path d="M159.759 153.996C159.744 154.042 159.726 154.086 159.705 154.128C159.662 154.239 159.609 154.366 159.551 154.503L158.95 155.876C158.437 157.027 157.711 158.611 156.874 160.338C156.037 162.064 155.243 163.611 154.657 164.725L153.951 166.035L153.757 166.389C153.735 166.429 153.711 166.468 153.685 166.505C153.697 166.459 153.717 166.417 153.743 166.378L153.922 166.014L154.599 164.688C155.17 163.569 155.95 162.017 156.792 160.29C157.634 158.564 158.365 156.985 158.892 155.844L159.517 154.488C159.584 154.35 159.638 154.229 159.691 154.118C159.744 154.007 159.754 153.991 159.759 153.996Z" fill="#263238"/>
<path d="M155.112 164.034C154.881 163.972 154.644 163.942 154.406 163.944C154.169 163.975 153.937 164.037 153.714 164.129C153.899 163.939 154.146 163.836 154.401 163.844C154.651 163.808 154.905 163.876 155.112 164.034Z" fill="#263238"/>
<path d="M155.161 161.273C155.044 161.33 154.916 161.358 154.788 161.352C154.662 161.386 154.531 161.386 154.406 161.352C154.523 161.294 154.65 161.265 154.778 161.267C154.905 161.237 155.035 161.239 155.161 161.273Z" fill="#263238"/>
<path d="M155.161 160.507C155.161 160.533 155.04 160.607 154.875 160.676C154.711 160.744 154.565 160.776 154.556 160.75C154.546 160.723 154.677 160.644 154.841 160.581C155.006 160.517 155.151 160.48 155.161 160.507Z" fill="#263238"/>
<path d="M154.449 161.183C154.397 161.352 154.318 161.511 154.217 161.652C154.114 161.812 153.998 161.961 153.868 162.096C153.792 162.181 153.708 162.257 153.617 162.323C153.589 162.343 153.558 162.356 153.526 162.362C153.493 162.369 153.46 162.368 153.428 162.36C153.392 162.351 153.359 162.33 153.334 162.299C153.309 162.269 153.293 162.231 153.288 162.191C153.293 162.044 153.329 161.901 153.391 161.771C153.454 161.641 153.541 161.527 153.649 161.438C153.756 161.35 153.88 161.288 154.012 161.257C154.143 161.227 154.279 161.228 154.411 161.262C154.454 161.271 154.496 161.291 154.532 161.32C154.371 161.288 154.208 161.288 154.048 161.32C153.881 161.362 153.729 161.454 153.607 161.584C153.461 161.738 153.375 161.948 153.37 162.17C153.37 162.276 153.481 162.291 153.568 162.233C153.653 162.175 153.731 162.106 153.801 162.027C153.928 161.898 154.046 161.759 154.154 161.61C154.367 161.352 154.435 161.172 154.449 161.183Z" fill="#263238"/>
<path d="M154.411 161.315C154.291 161.32 154.174 161.277 154.081 161.193C153.975 161.114 153.889 161.007 153.83 160.882C153.783 160.804 153.755 160.715 153.75 160.622C153.745 160.529 153.763 160.437 153.801 160.354C153.834 160.311 153.881 160.285 153.931 160.28C153.982 160.275 154.032 160.292 154.072 160.327C154.135 160.378 154.187 160.443 154.227 160.517C154.291 160.635 154.342 160.761 154.377 160.892C154.42 161.011 154.436 161.14 154.425 161.267C154.384 161.153 154.349 161.037 154.319 160.919C154.273 160.796 154.218 160.677 154.154 160.565C154.091 160.449 153.951 160.311 153.873 160.417C153.849 160.485 153.84 160.557 153.845 160.629C153.85 160.701 153.869 160.771 153.902 160.834C153.954 160.951 154.028 161.053 154.12 161.135C154.211 161.206 154.308 161.266 154.411 161.315Z" fill="#263238"/>
<path d="M157.832 153.078C157.742 153.249 157.66 153.425 157.586 153.606C157.423 154.066 157.38 154.567 157.46 155.052C157.544 155.538 157.752 155.988 158.06 156.351C158.292 156.631 158.486 156.753 158.471 156.768C158.423 156.749 158.378 156.722 158.336 156.689C158.219 156.605 158.11 156.508 158.011 156.399C157.679 156.036 157.454 155.573 157.368 155.068C157.282 154.564 157.337 154.043 157.527 153.574C157.582 153.434 157.652 153.301 157.736 153.178C157.763 153.14 157.796 153.106 157.832 153.078Z" fill="#263238"/>
<path d="M157.397 157.376C157.301 157.771 157.158 158.151 156.971 158.506C156.816 158.887 156.612 159.242 156.366 159.562C156.366 159.562 156.608 159.081 156.889 158.506C157.169 157.93 157.373 157.365 157.397 157.376Z" fill="#263238"/>
<path d="M158.099 155.929C158.123 155.929 158.171 156.024 158.249 156.13C158.326 156.235 158.404 156.32 158.389 156.341C158.374 156.362 158.263 156.341 158.176 156.193C158.089 156.045 158.074 155.934 158.099 155.929Z" fill="#263238"/>
<path d="M157.755 155.026C157.755 155.026 157.828 155.105 157.861 155.221C157.895 155.338 157.905 155.443 157.861 155.448C157.818 155.454 157.794 155.369 157.76 155.253C157.726 155.137 157.716 155.037 157.755 155.026Z" fill="#263238"/>
<path d="M157.837 154.081C157.837 154.081 157.808 154.197 157.789 154.329C157.769 154.461 157.789 154.567 157.765 154.572C157.74 154.577 157.678 154.472 157.697 154.313C157.716 154.155 157.818 154.081 157.837 154.081Z" fill="#263238"/>
<path d="M157.973 153.453C157.997 153.453 158.011 153.516 158.002 153.59C157.992 153.664 157.968 153.722 157.944 153.717C157.92 153.711 157.905 153.653 157.91 153.579C157.915 153.506 157.949 153.447 157.973 153.453Z" fill="#263238"/>
<path d="M106.828 44.2151C106.828 44.2151 106.92 44.2151 107.008 44.1095C107.034 44.0741 107.053 44.0325 107.062 43.9878C107.072 43.9431 107.072 43.8967 107.062 43.8522C107.052 43.8076 107.033 43.7662 107.006 43.7311C106.979 43.6961 106.944 43.6683 106.906 43.6502C106.777 43.5943 106.639 43.5683 106.501 43.5737C106.363 43.5792 106.227 43.616 106.102 43.6818C106.033 43.7079 105.97 43.751 105.918 43.8077C105.866 43.8644 105.826 43.9333 105.802 44.0092C105.788 44.0967 105.791 44.1864 105.81 44.2727C105.829 44.359 105.864 44.4401 105.914 44.5108C106.254 45.1381 106.735 45.6598 107.312 46.0262C107.569 46.1372 107.84 46.1997 108.116 46.2109C108.116 46.2373 107.782 46.4169 107.245 46.2109C106.942 46.0816 106.668 45.8836 106.441 45.6302C106.164 45.3322 105.914 45.005 105.696 44.6534C105.629 44.5505 105.582 44.4334 105.56 44.3096C105.537 44.1858 105.539 44.0582 105.565 43.9353C105.6 43.8219 105.659 43.7187 105.736 43.6336C105.813 43.5485 105.907 43.4837 106.011 43.4442C106.18 43.3794 106.358 43.3455 106.538 43.3439C106.709 43.335 106.878 43.3849 107.022 43.4865C107.081 43.5318 107.13 43.5909 107.165 43.6594C107.2 43.7279 107.221 43.8041 107.225 43.8825C107.227 43.9422 107.215 44.0013 107.19 44.0547C107.166 44.1081 107.13 44.1541 107.085 44.1887C106.935 44.3049 106.814 44.2257 106.828 44.2151Z" fill="#263238"/>
<path d="M100.948 110.532C100.948 110.532 108.939 129.767 110.449 129.883C110.449 129.883 126.421 123.172 126.208 122.464C125.995 121.757 122.336 114.338 122.215 112.432C122.094 110.526 119.175 105.537 119.175 105.537L100.948 110.532Z" fill="#263238"/>
<path d="M100.948 110.532L92.6376 124.819L106.891 132.829L112.607 123.763L100.948 110.532Z" fill="#263238"/>
<path d="M110.371 130.02C110.308 130.052 108.697 126.324 106.775 121.736C104.854 117.147 103.344 113.372 103.387 113.341C103.431 113.309 105.062 117.037 106.983 121.625C108.905 126.213 110.434 129.988 110.371 130.02Z" fill="#455A64"/>
<path d="M126.247 122.28C126.064 122.427 125.87 122.556 125.666 122.665C125.288 122.903 124.732 123.225 124.035 123.615C122.65 124.397 120.71 125.426 118.527 126.461C116.344 127.496 114.33 128.352 112.864 128.922C112.128 129.212 111.528 129.45 111.112 129.577C110.901 129.667 110.682 129.732 110.458 129.772C110.658 129.654 110.867 129.555 111.083 129.476L112.801 128.742C114.253 128.119 116.247 127.248 118.425 126.213C120.603 125.178 122.554 124.18 123.957 123.441L125.622 122.57C125.822 122.452 126.031 122.355 126.247 122.28Z" fill="#455A64"/>
<path d="M125.917 121.292C125.738 121.446 125.547 121.582 125.346 121.699C124.974 121.947 124.427 122.29 123.739 122.691C121.946 123.741 120.102 124.685 118.217 125.521C116.331 126.356 114.405 127.079 112.448 127.686C111.698 127.919 111.088 128.093 110.662 128.214C110.444 128.285 110.22 128.331 109.994 128.352C110.199 128.248 110.413 128.167 110.633 128.109L112.399 127.517C113.885 126.989 115.918 126.255 118.12 125.279C120.322 124.302 122.268 123.299 123.657 122.538L125.303 121.62C125.497 121.489 125.703 121.379 125.917 121.292Z" fill="#455A64"/>
<path d="M113.643 113.377C113.298 113.701 112.908 113.961 112.486 114.148C111.49 114.686 110.369 114.887 109.268 114.724C108.656 114.622 108.075 114.361 107.574 113.964C107.171 113.634 106.84 113.21 106.606 112.723C106.451 112.393 106.354 112.035 106.32 111.667C106.29 111.535 106.29 111.397 106.32 111.265C106.395 111.739 106.537 112.197 106.741 112.622C106.986 113.07 107.316 113.456 107.709 113.752C108.186 114.114 108.732 114.351 109.307 114.444C110.365 114.597 111.441 114.431 112.419 113.964C113.179 113.631 113.624 113.34 113.643 113.377Z" fill="#455A64"/>
<path d="M105.27 118.008C105.27 118.008 105.164 118.071 104.955 118.119C104.659 118.198 104.35 118.207 104.05 118.145C103.836 118.09 103.639 117.974 103.479 117.807C103.31 117.614 103.169 117.393 103.063 117.153C102.845 116.662 102.627 116.097 102.429 115.532C102.085 114.535 101.832 113.504 101.674 112.453C101.579 112.023 101.543 111.58 101.567 111.139C101.687 111.557 101.781 111.984 101.848 112.416C102.056 113.442 102.328 114.451 102.661 115.437C102.86 116.017 103.068 116.556 103.271 117.021C103.337 117.233 103.445 117.426 103.588 117.586C103.732 117.746 103.906 117.868 104.099 117.945C104.376 118.014 104.663 118.032 104.946 117.997C105.149 117.997 105.265 117.987 105.27 118.008Z" fill="#455A64"/>
<path d="M111.068 66.697C115.129 66.4963 118.391 68.1384 125.951 73.2547L121.595 82.6637L115.734 79.105L111.068 66.697Z" fill="#08915C"/>
<path d="M99.4959 81.1008L99.099 94.475L100.13 110.531C100.13 110.531 117.627 108.156 120.318 104.565L116.852 94.8974L117.438 74.8809C117.499 72.9506 116.979 71.0515 115.957 69.4742C114.737 67.7265 112.031 66.8342 110.386 66.491H101.054C101.054 66.491 94.6752 66.3009 93.4604 73.4553L99.4959 81.1008Z" fill="#08915C"/>
<path opacity="0.3" d="M99.5056 83.292H103.944V96.4075L99.2974 97.5427C99.2974 97.5427 98.5376 88.1602 99.5056 83.292Z" fill="white"/>
<path d="M116.949 91.6766C116.876 91.6766 116.949 87.3365 117.075 81.9931C117.201 76.6497 117.385 72.3149 117.457 72.3201C117.53 72.3254 117.457 76.655 117.326 81.9984C117.196 87.3418 117.017 91.6766 116.949 91.6766Z" fill="#263238"/>
<path d="M95.6432 68.7984C95.6432 68.7984 94.4913 68.9727 89.8062 81.576L98.6199 87.553C98.6199 87.553 102.627 75.3668 102.463 72.8852C102.298 70.4036 98.8522 65.4087 95.6432 68.7984Z" fill="#08915C"/>
<path d="M97.1243 67.5418C97.1942 67.5027 97.2693 67.476 97.3469 67.4626C97.5603 67.4004 97.7795 67.365 98.0003 67.357C98.6955 67.3435 99.3852 67.4935 100.022 67.7969C100.66 68.1003 101.23 68.55 101.693 69.1152C101.907 69.377 102.083 69.6725 102.216 69.9917C102.347 70.3299 102.44 70.6846 102.492 71.0477C102.734 72.5367 102.458 74.1893 102.08 75.8314C101.306 79.1419 100.27 82.009 99.6604 84.121C99.3362 85.177 99.0942 86.0376 98.9199 86.629C98.8425 86.8983 98.7747 87.1253 98.7215 87.3154C98.7001 87.3952 98.6726 87.4729 98.6392 87.5477C98.6361 87.4634 98.6476 87.3792 98.6731 87.2995C98.7166 87.1094 98.765 86.8771 98.828 86.6026C98.9683 85.9954 99.1909 85.1295 99.491 84.0629C100.077 81.9509 101.088 79.0469 101.853 75.7627C102.23 74.1312 102.506 72.5208 102.284 71.0899C102.193 70.4607 101.966 69.8644 101.619 69.3515C101.273 68.8387 100.819 68.4244 100.294 68.1437C99.602 67.7124 98.8217 67.4765 98.0245 67.4573C97.4389 67.489 97.1339 67.5735 97.1243 67.5418Z" fill="#263238"/>
<g opacity="0.4">
<path opacity="0.4" d="M117.152 80.0343L121.116 82.3786C121.193 82.435 121.285 82.4628 121.378 82.4578C121.449 82.4344 121.51 82.3821 121.548 82.3115C121.586 82.2409 121.597 82.1573 121.581 82.0776C121.541 81.9194 121.466 81.7742 121.363 81.6552C119.656 79.3616 118.307 76.7767 117.37 74.0045L117.152 80.0343Z" fill="black"/>
</g>
<g opacity="0.4">
<path opacity="0.4" d="M99.9799 83.1653C101.338 81.6347 102.292 79.7313 102.738 77.6573C103.185 75.5832 103.108 73.4159 102.516 71.3856C102.441 73.1996 102.182 74.9989 101.742 76.7501C101.127 78.8463 99.9799 83.1653 99.9799 83.1653Z" fill="black"/>
</g>
</svg>
