<svg width="167" height="225" viewBox="0 0 167 225" fill="none" xmlns="http://www.w3.org/2000/svg">
<path d="M13.7885 74.1894H45.551C45.551 74.1894 45.551 46.4531 73.2655 45.9612C87.659 45.6981 95.1225 55.5079 98.1585 63.0182C101.678 71.7412 100.611 81.6826 95.8925 89.7764C90.508 99.0142 78.903 108.298 57.497 104.374L57.2935 177.973H88.704V134.341C88.704 134.341 132.753 122.5 132.753 71.9929C132.753 23.6875 95.194 13.2542 75.0035 12.5793C63.7725 12.2075 59.7025 11.7041 45.8095 13.7576C28.105 16.3888 13.4145 37.7701 13.7885 74.1894Z" fill="#08915C"/>
<path d="M89.0835 193.314H57.2055V224.276H89.0835V193.314Z" fill="#08915C"/>
<path opacity="0.1" d="M89.0835 193.314H57.2055V224.276H89.0835V193.314Z" fill="black"/>
<path opacity="0.1" d="M13.7885 74.1894H45.551C45.551 74.1894 45.551 46.4531 73.2655 45.9612C87.659 45.6981 95.1225 55.5079 98.1585 63.0182C101.678 71.7412 100.611 81.6826 95.8925 89.7764C90.508 99.0142 78.903 108.298 57.497 104.374L57.2935 177.973H88.704V134.341C88.704 134.341 132.753 122.5 132.753 71.9929C132.753 23.6875 95.194 13.2542 75.0035 12.5793C63.7725 12.2075 59.7025 11.7041 45.8095 13.7576C28.105 16.3888 13.4145 37.7701 13.7885 74.1894Z" fill="black"/>
<path d="M0.626996 74.1894H32.395C32.395 74.1894 32.395 46.4531 60.1095 45.9612C74.503 45.6981 81.9665 55.5079 84.997 63.0182C88.5225 71.7412 87.4555 81.6826 82.7365 89.7764C77.352 99.0142 65.5435 107.411 44.1375 103.504V177.973H75.548V134.341C75.548 134.341 119.597 122.501 119.597 71.9929C119.597 23.6875 77.9405 12.4706 60.115 12.4706C46.4805 12.4877 0.0274959 15.914 0.626996 74.1894Z" fill="#08915C"/>
<path opacity="0.3" d="M0.626996 74.1894H32.395C32.395 74.1894 32.395 46.4531 60.1095 45.9612C74.503 45.6981 81.9665 55.5079 84.997 63.0182C88.5225 71.7412 87.4555 81.6826 82.7365 89.7764C77.352 99.0142 65.5435 107.411 44.1375 103.504V177.973H75.548V134.341C75.548 134.341 119.597 122.501 119.597 71.9929C119.597 23.6875 77.9405 12.4706 60.115 12.4706C46.4805 12.4877 0.0274959 15.914 0.626996 74.1894Z" fill="black"/>
<path d="M75.9275 193.314H44.0495V224.276H75.9275V193.314Z" fill="#08915C"/>
<path opacity="0.3" d="M75.9275 193.314H44.0495V224.276H75.9275V193.314Z" fill="black"/>
<path d="M63.6955 46.1099C63.5381 46.124 63.3799 46.124 63.2225 46.1099C62.909 46.1099 62.458 46.0012 61.8695 45.9955C60.2056 45.9105 58.5377 45.9832 56.8865 46.2129C54.4379 46.5352 52.0285 47.1238 49.698 47.9689C48.3242 48.4683 46.9861 49.0685 45.694 49.765C44.2973 50.4908 42.9821 51.3752 41.7725 52.4019C40.5712 53.4379 39.4945 54.6209 38.566 55.9254C37.6859 57.1315 36.883 58.3964 36.1625 59.7121C34.9597 61.9528 34.0057 64.3285 33.319 66.7934C32.8534 68.457 32.5331 70.1608 32.362 71.8842C32.296 72.4906 32.2795 72.971 32.263 73.2914C32.2634 73.4564 32.2486 73.6211 32.219 73.7833C32.2048 73.6196 32.2048 73.455 32.219 73.2914C32.219 72.9653 32.219 72.4848 32.2685 71.8728C32.395 70.1309 32.6879 68.4064 33.143 66.7248C33.8045 64.2314 34.7459 61.8277 35.948 59.5633C36.6699 58.2332 37.4765 56.9548 38.3625 55.7367C39.2988 54.4109 40.3887 53.2102 41.6075 52.1617C42.8318 51.1208 44.1637 50.2249 45.5785 49.4904C46.8787 48.7811 48.2259 48.1694 49.61 47.66C51.9617 46.8181 54.394 46.2428 56.8645 45.944C58.5267 45.7316 60.2051 45.6914 61.875 45.8239C62.3288 45.8541 62.7805 45.9114 63.228 45.9955C63.3862 46.0222 63.5424 46.0604 63.6955 46.1099Z" fill="#263238"/>
<path d="M111.556 40.224C111.556 40.224 111.518 40.1839 111.452 40.0981C111.386 40.0123 111.287 39.8636 111.177 39.6977L110.126 38.1533C109.901 37.8216 109.659 37.4383 109.373 37.0437L108.383 35.791L107.25 34.3438C106.837 33.8405 106.353 33.3543 105.869 32.8223C105.385 32.2903 104.89 31.7241 104.329 31.1807C103.768 30.6373 103.169 30.0824 102.553 29.5104C102.245 29.2244 101.942 28.9384 101.612 28.6353L100.59 27.7944C99.891 27.2224 99.198 26.6504 98.4445 26.0784C95.1602 23.6346 91.6764 21.4948 88.033 19.6835L85.1345 18.3221L82.258 17.1781C81.3175 16.772 80.3605 16.486 79.4365 16.1657C78.5125 15.8454 77.6105 15.5193 76.6865 15.2962L74.0575 14.5812C73.205 14.3467 72.358 14.2037 71.5495 14.0092C70.741 13.8147 69.96 13.6432 69.1955 13.5459L66.9955 13.2142C65.604 12.9682 64.328 12.9167 63.217 12.8023C62.667 12.7565 62.117 12.6936 61.6605 12.6708L60.3515 12.6364L58.5365 12.5735H58.0635H57.904C57.9568 12.5649 58.0107 12.5649 58.0635 12.5735H58.5365H60.3515H61.666C62.1445 12.5735 62.667 12.6422 63.228 12.6822C64.328 12.7794 65.626 12.8195 67.0175 13.054L69.2175 13.3629C69.982 13.4544 70.763 13.6603 71.577 13.8148C72.391 13.9692 73.227 14.1294 74.1015 14.3868L76.7415 15.096C77.6545 15.3134 78.5565 15.668 79.4915 15.9598C80.4265 16.2515 81.378 16.5317 82.3185 16.9665L85.2115 18.1105L88.1265 19.4775C91.7891 21.293 95.2866 23.4487 98.5765 25.9183C99.3355 26.4903 100.028 27.1023 100.727 27.6686L101.75 28.4408C102.08 28.7268 102.382 29.0128 102.69 29.3217L104.461 31.0377C105.011 31.6097 105.506 32.1817 105.996 32.7022C106.485 33.2227 106.953 33.7318 107.365 34.2409L108.465 35.6995L109.444 36.9693C109.725 37.3697 109.961 37.7587 110.181 38.1133C110.61 38.7825 110.946 39.3088 111.182 39.6863L111.441 40.1039C111.484 40.1385 111.523 40.1789 111.556 40.224Z" fill="#263238"/>
<path d="M108.246 111.152C108.18 111.276 108.101 111.391 108.009 111.495L107.25 112.428C106.937 112.845 106.541 113.343 106.051 113.898C105.562 114.452 105.039 115.104 104.401 115.779C103.763 116.454 103.081 117.209 102.306 117.97C101.53 118.731 100.689 119.532 99.792 120.367C95.8599 123.936 91.5494 127.028 86.944 129.582C85.877 130.154 84.8705 130.726 83.897 131.166C82.9235 131.607 82.016 132.059 81.18 132.425C80.344 132.791 79.574 133.094 78.903 133.363C78.232 133.632 77.6435 133.849 77.1595 134.009L76.0595 134.381C75.9318 134.434 75.799 134.472 75.6635 134.495C75.7821 134.425 75.9074 134.367 76.0375 134.324L77.1375 133.9C77.616 133.723 78.1935 133.494 78.859 133.208C79.5245 132.922 80.2945 132.636 81.1195 132.23C81.9445 131.824 82.8575 131.441 83.809 130.943C84.7605 130.446 85.778 129.919 86.8395 129.342C88.935 128.14 91.1955 126.733 93.478 125.109C95.7605 123.484 97.812 121.774 99.638 120.161C100.535 119.337 101.392 118.565 102.157 117.787C102.921 117.009 103.636 116.306 104.269 115.631C104.901 114.956 105.457 114.332 105.952 113.783C106.447 113.234 106.854 112.754 107.184 112.353L107.954 111.444C108.043 111.338 108.141 111.241 108.246 111.152Z" fill="#263238"/>
<path d="M74.9925 175.376C74.91 175.376 74.844 166.19 74.844 154.858C74.844 143.527 74.91 134.335 74.9925 134.335C75.075 134.335 75.1355 143.521 75.1355 154.858C75.1355 166.196 75.0695 175.376 74.9925 175.376Z" fill="#263238"/>
<path d="M76.2025 222.177C76.12 222.177 76.0595 215.731 76.0595 207.78C76.0595 199.829 76.12 193.377 76.2025 193.377C76.285 193.377 76.3455 199.823 76.3455 207.78C76.3455 215.736 76.2795 222.177 76.2025 222.177Z" fill="#263238"/>
<path d="M107.47 69.8021C106.92 70.9461 108.971 71.8842 110.154 72.256C111.36 72.564 112.609 72.653 113.844 72.5191C115.494 72.4276 117.183 72.2674 118.607 71.4209C119.855 70.6171 120.852 69.4549 121.478 68.0747C122.096 66.6988 122.584 65.264 122.936 63.7904C122.936 63.7904 109.939 64.6713 107.47 69.8021Z" fill="#08915C"/>
<g opacity="0.4">
<path opacity="0.4" d="M107.47 69.8021C106.92 70.9461 108.971 71.8842 110.154 72.256C111.36 72.564 112.609 72.653 113.844 72.5191C115.494 72.4276 117.183 72.2674 118.607 71.4209C119.855 70.6171 120.852 69.4549 121.478 68.0747C122.096 66.6988 122.584 65.264 122.936 63.7904C122.936 63.7904 109.939 64.6713 107.47 69.8021Z" fill="black"/>
</g>
<path d="M144.177 66.1413C146.32 67.7219 148.887 68.5586 151.514 68.5323C152.773 68.6052 154.015 68.1985 155.006 67.3883C155.43 66.9822 155.749 66.4674 156.183 66.0784C156.48 65.8153 156.827 65.6151 157.107 65.3348C157.256 65.2022 157.37 65.0336 157.44 64.8439C157.51 64.6543 157.534 64.4495 157.509 64.248C157.4 63.7512 157.133 63.3075 156.75 62.9896C155.259 62.1087 153.477 62.143 151.761 62.1831C150.044 62.2604 148.348 62.6055 146.729 63.2069C145.398 63.676 144.006 64.3509 143.33 65.6094" fill="#08915C"/>
<g opacity="0.4">
<path opacity="0.4" d="M157.509 64.248C157.315 63.7655 156.972 63.3633 156.535 63.104C155.045 62.2231 153.477 62.143 151.761 62.183C150.044 62.2604 148.348 62.6055 146.729 63.2069C145.398 63.676 144.006 64.3509 143.33 65.6093L144.177 66.1413C146.32 67.7218 148.887 68.5586 151.514 68.5322C152.773 68.6052 154.015 68.1985 155.006 67.3882C155.43 66.9821 155.749 66.4673 156.183 66.0784C156.48 65.8152 156.827 65.615 157.107 65.3348C157.256 65.2022 157.37 65.0336 157.44 64.8439C157.51 64.6543 157.534 64.4495 157.509 64.248Z" fill="black"/>
</g>
<path d="M118.8 86.6704L146.217 87.0479C146.273 87.0478 146.328 87.034 146.378 87.0078C146.428 86.9816 146.471 86.9436 146.504 86.8969C146.537 86.8502 146.56 86.7961 146.569 86.7389C146.578 86.6817 146.575 86.6229 146.558 86.5674L143.341 76.1342C143.341 76.1342 143.814 70.9175 144.468 64.6484C145.464 55.1246 146.789 43.1526 146.806 43.1869C144.93 37.7186 133.864 36.792 133.864 36.792L121.253 37.5699L120.813 36.7977L117.183 38.5538C116.391 38.9368 115.63 39.3844 114.906 39.8922C112.508 41.5568 106.733 45.3834 105.677 49.6448C103.24 59.5118 107.365 70.5228 107.365 70.5228L110.016 68.3664C110.684 67.8313 111.386 67.3439 112.117 66.9078L117.43 81.7169C117.114 81.9242 116.847 82.2022 116.647 82.5307C116.447 82.8593 116.32 83.23 116.275 83.6159C116.231 84.8171 116.825 86.2586 118.8 86.6704Z" fill="#08915C"/>
<g opacity="0.3">
<path opacity="0.3" d="M130.564 69.213C131.433 64.351 130.977 59.3517 130.509 54.4325C128.991 58.4365 129.046 63.0125 127.435 66.9822C127.237 67.4014 127.093 67.8456 127.006 68.3035C126.964 68.5335 126.975 68.7705 127.038 68.9952C127.101 69.2199 127.215 69.4259 127.369 69.5962C127.809 70.0138 128.469 69.785 129.052 69.7163C129.574 69.6128 130.082 69.4438 130.564 69.213Z" fill="black"/>
</g>
<g opacity="0.4">
<path opacity="0.4" d="M120.45 80.4699C122.65 81.265 124.993 79.7835 127.319 79.5204C128.859 79.3488 130.399 79.7149 131.928 79.9723C135.02 80.4924 138.166 80.5733 141.278 80.2125C141.756 80.1852 142.224 80.0588 142.653 79.8407C142.876 79.6832 143.057 79.4716 143.183 79.2244C143.309 78.9772 143.374 78.7018 143.374 78.4221C138.193 77.8501 133.017 77.5413 127.836 76.9864C126.547 76.7576 125.226 76.8023 123.953 77.118C122.391 77.6213 121.203 78.8969 120.103 80.161" fill="black"/>
</g>
<path d="M156.717 62.3718C154.478 57.1266 146.586 42.6207 146.586 42.6207L140.475 50.5886L141.9 66.2328C141.9 66.2328 145.128 62.4862 154.154 62.4119C154.81 62.4392 155.452 62.6187 156.032 62.9374C156.613 63.2561 157.117 63.7059 157.509 64.2537L156.717 62.3718Z" fill="#08915C"/>
<path d="M120.026 59.5976C119.591 58.4856 119.245 57.3376 118.992 56.1656C118.651 55.0241 118.401 53.8552 118.244 52.6707C118.674 53.7846 119.018 54.9322 119.273 56.1027C119.615 57.2446 119.867 58.4134 120.026 59.5976Z" fill="#263238"/>
<path d="M140.013 49.5305C140.212 49.6767 140.397 49.8434 140.563 50.0281C141.049 50.5161 141.505 51.0358 141.927 51.5839C143.35 53.3919 144.349 55.5182 144.848 57.7959C145.107 59.0549 145.164 60.3497 145.019 61.6283C144.881 62.8009 144.667 63.8304 144.524 64.6999C144.381 65.5693 144.293 66.2786 144.249 66.7705C144.247 67.0262 144.222 67.281 144.172 67.5313C144.133 67.276 144.122 67.017 144.139 66.7591C144.163 66.0581 144.225 65.3592 144.326 64.6656C144.441 63.7904 144.634 62.7494 144.76 61.5997C144.887 60.35 144.822 59.0872 144.568 57.8588C144.075 55.6237 143.12 53.5272 141.768 51.7155C140.761 50.3084 139.969 49.5762 140.013 49.5305Z" fill="#263238"/>
<path d="M134.414 85.412C134.223 85.5006 134.022 85.5621 133.815 85.595C133.58 85.6595 133.341 85.7073 133.1 85.738C132.819 85.7781 132.5 85.841 132.143 85.8582C131.305 85.9381 130.462 85.9381 129.624 85.8582C128.599 85.7486 127.586 85.5379 126.599 85.229C125.617 84.9007 124.667 84.4775 123.761 83.9648C123.026 83.5386 122.329 83.0467 121.676 82.4948C121.39 82.266 121.159 82.0257 120.95 81.8255C120.77 81.6566 120.599 81.4771 120.439 81.2879C120.286 81.1406 120.155 80.9711 120.048 80.7845C120.087 80.7445 120.675 81.4309 121.803 82.3289C122.462 82.8501 123.159 83.3168 123.887 83.7246C124.783 84.214 125.718 84.6217 126.681 84.9429C127.651 85.2468 128.645 85.4612 129.651 85.5836C130.473 85.6756 131.301 85.7023 132.126 85.6637C133.54 85.5836 134.403 85.3662 134.414 85.412Z" fill="#263238"/>
<path d="M142.879 82.163C143.008 82.4217 143.082 82.7068 143.094 82.9981C143.181 83.6954 143.131 84.404 142.945 85.0802C142.756 85.7719 142.373 86.3893 141.845 86.8534C141.443 87.2024 141.135 87.311 141.119 87.2824C141.102 87.2538 141.361 87.0651 141.707 86.7104C142.152 86.2279 142.475 85.6384 142.648 84.9944C143.088 83.4843 142.774 82.1687 142.879 82.163Z" fill="#263238"/>
<path d="M141.388 84.1765C141.508 84.7648 141.46 85.3765 141.251 85.9371C141.042 86.4977 140.681 86.983 140.211 87.3339C140.151 87.271 140.662 86.7047 140.981 85.8296C141.3 84.9544 141.306 84.1822 141.388 84.1765Z" fill="#263238"/>
<path d="M136.482 65.3577C136.191 65.8701 135.864 66.3595 135.503 66.822C135.219 67.3386 134.897 67.8319 134.541 68.2977C134.647 67.6941 134.896 67.1277 135.267 66.6504C135.56 66.1192 135.978 65.6743 136.482 65.3577Z" fill="#263238"/>
<path d="M117.661 51.5038C117.242 51.2479 116.837 50.9691 116.446 50.6687C114.49 49.3322 112.27 48.4701 109.95 48.1462C109.465 48.1094 108.982 48.0425 108.504 47.946C108.991 47.876 109.485 47.876 109.972 47.946C112.355 48.1574 114.637 49.0415 116.572 50.5028C116.978 50.7823 117.345 51.1192 117.661 51.5038Z" fill="#263238"/>
<path d="M146.586 42.4319C145.602 43.2564 144.682 44.1611 143.836 45.1375C143.057 46.1796 142.36 47.2852 141.751 48.4437C141.817 48.0541 141.945 47.6788 142.131 47.334C142.529 46.4763 143.028 45.6732 143.616 44.943C144.206 44.2143 144.882 43.5666 145.629 43.0154C145.913 42.765 146.237 42.5677 146.586 42.4319Z" fill="#263238"/>
<path d="M135.267 37.7186C135.317 37.8011 135.358 37.8894 135.388 37.9818C135.495 38.2408 135.582 38.5086 135.646 38.7825C135.878 39.8019 135.878 40.8634 135.646 41.8828C135.304 43.4045 134.521 44.7802 133.402 45.8239C131.991 47.0676 130.192 47.7344 128.342 47.7C126.491 47.7067 124.687 47.0907 123.2 45.944C122.015 45.003 121.053 43.7917 120.389 42.4033C119.942 41.4737 119.627 40.4814 119.454 39.4575C119.404 39.1817 119.371 38.9027 119.355 38.6224C119.34 38.5239 119.34 38.4234 119.355 38.3249C119.355 38.3249 119.416 38.7253 119.57 39.4346C119.784 40.4296 120.122 41.3911 120.576 42.2946C121.247 43.6412 122.2 44.814 123.365 45.7266C124.798 46.8303 126.532 47.4313 128.315 47.4426C130.098 47.4767 131.833 46.8433 133.204 45.658C134.285 44.6526 135.051 43.3337 135.404 41.8714C135.649 40.8842 135.683 39.8534 135.503 38.8512C135.399 38.0962 135.234 37.7301 135.267 37.7186Z" fill="#263238"/>
<g opacity="0.3">
<path opacity="0.3" d="M137.192 66.3702C137.192 66.0842 137.148 65.7467 136.906 65.6037C136.829 65.5634 136.744 65.5425 136.658 65.5425C136.573 65.5425 136.488 65.5634 136.411 65.6037C136.257 65.6901 136.121 65.8067 136.009 65.9469C135.363 66.6467 134.863 67.4783 134.541 68.3893L137.236 68.1433C137.219 67.5656 137.208 66.9593 137.192 66.3702Z" fill="black"/>
</g>
<g opacity="0.3">
<path opacity="0.3" d="M146.141 60.4728C145.87 58.8689 145.194 57.3687 144.182 56.1256C145.348 60.0839 144.958 62.3204 144.303 65.0316L144.446 64.6541C145.2 63.0697 146.344 62.0744 146.141 60.4728Z" fill="black"/>
</g>
<path d="M140.756 193.44L139.111 219.094L128.386 218.963L126.698 192.29L140.756 193.44Z" fill="#FFBE9D"/>
<path d="M139.414 215.719V216.463C139.414 216.463 151.514 221.519 151.629 223.899L127.6 223.762L127.974 215.45C131.554 217.195 135.3 217.412 139.414 215.719Z" fill="#08915C"/>
<path d="M130.41 218.116C130.182 218.188 129.987 218.343 129.862 218.554C129.736 218.765 129.689 219.016 129.728 219.26C129.787 219.504 129.935 219.715 130.14 219.848C130.345 219.981 130.592 220.027 130.828 219.975C131.073 219.899 131.282 219.731 131.414 219.504C131.546 219.276 131.592 219.006 131.543 218.745C131.456 218.498 131.28 218.296 131.052 218.182C130.824 218.068 130.563 218.05 130.322 218.133" fill="white"/>
<path d="M127.6 223.762L127.688 221.765L150.7 222.635C150.7 222.635 151.767 223.127 151.64 223.905L127.6 223.762Z" fill="#263238"/>
<path d="M139.502 216.532C139.502 216.652 138.908 216.703 138.33 217.104C137.753 217.504 137.439 218.002 137.335 217.956C137.23 217.91 137.406 217.201 138.116 216.743C138.825 216.286 139.53 216.4 139.502 216.532Z" fill="#263238"/>
<path d="M142.015 217.63C142.043 217.75 141.531 217.95 141.13 218.465C140.728 218.98 140.613 219.523 140.492 219.517C140.371 219.512 140.305 218.82 140.816 218.196C141.328 217.573 142.01 217.544 142.015 217.63Z" fill="#263238"/>
<path d="M143.429 220.776C143.319 220.776 143.16 220.204 143.468 219.523C143.775 218.842 144.32 218.597 144.369 218.694C144.419 218.791 144.078 219.151 143.819 219.706C143.561 220.261 143.55 220.764 143.429 220.776Z" fill="#263238"/>
<path d="M138.798 5.81819C139.419 4.21659 138.666 2.27751 137.329 1.24219C135.921 0.277877 134.203 -0.0694992 132.55 0.275517C130.919 0.631208 129.34 1.20814 127.853 1.99152C127.162 1.26643 126.29 0.755441 125.336 0.515625C124.381 0.27581 123.382 0.316603 122.448 0.633445C121.515 0.950287 120.685 1.53071 120.05 2.3099C119.416 3.08909 119.002 4.03638 118.855 5.04599C118.26 4.89033 117.636 4.90599 117.049 5.09131C116.463 5.27664 115.935 5.62461 115.524 6.09791C115.113 6.57121 114.834 7.15197 114.716 7.77786C114.599 8.40375 114.647 9.05115 114.856 9.6506L122.292 12.3676L130.41 27.2396C131.61 28.3041 133.141 28.8783 134.718 28.8551C136.295 28.8318 137.81 28.2127 138.98 27.1133C140.151 26.0139 140.896 24.5092 141.078 22.88C141.26 21.2508 140.866 19.6084 139.969 18.2592C140.424 17.8385 140.811 17.344 141.113 16.7949C141.762 16.3959 142.328 15.8668 142.779 15.2384C143.229 14.6099 143.555 13.8946 143.737 13.1341C144.457 9.82219 141.993 6.20715 138.798 5.81819Z" fill="#263238"/>
<path d="M133.875 36.792C133.413 34.3725 133.094 32.7137 133.1 32.7308C133.105 32.748 137.5 30.9576 137.181 24.5913C137.027 21.4224 135.866 16.4288 134.788 12.3791C133.82 8.72969 130.548 4.70853 127.088 5.86969L116.6 11.1893C115.549 11.5439 115.368 12.5735 115.615 13.6889V14.2609L119.691 31.7985L121.412 39.6349C121.779 41.244 122.712 42.6519 124.028 43.5814C125.343 44.5109 126.945 44.8946 128.518 44.657C129.378 44.5313 130.204 44.2243 130.945 43.7547C131.686 43.2852 132.327 42.6631 132.829 41.9266C133.33 41.1901 133.682 40.3547 133.862 39.4717C134.042 38.5888 134.047 37.6769 133.875 36.792Z" fill="#FFBE9D"/>
<path d="M134.75 16.6119C134.794 16.8148 134.762 17.0277 134.659 17.2065C134.557 17.3853 134.393 17.5164 134.2 17.5728C134.103 17.601 134.001 17.6085 133.901 17.5948C133.801 17.5811 133.705 17.5465 133.618 17.4931C133.531 17.4396 133.456 17.3685 133.396 17.2839C133.336 17.1993 133.293 17.103 133.271 17.0008C133.227 16.7986 133.259 16.5865 133.362 16.4087C133.464 16.2308 133.628 16.1008 133.82 16.0456C133.917 16.0164 134.019 16.0081 134.119 16.0211C134.219 16.034 134.315 16.0681 134.402 16.121C134.489 16.174 134.565 16.2449 134.625 16.3292C134.684 16.4136 134.727 16.5098 134.75 16.6119Z" fill="#263238"/>
<path d="M134.271 15.3934C134.194 15.5193 133.529 15.2047 132.715 15.3934C131.901 15.5822 131.384 16.1313 131.274 16.0455C131.164 15.9597 131.274 15.7996 131.499 15.5479C131.802 15.2153 132.196 14.9877 132.627 14.8958C133.052 14.8004 133.496 14.8505 133.892 15.0388C134.2 15.1704 134.304 15.342 134.271 15.3934Z" fill="#263238"/>
<path d="M126.764 18.488C126.808 18.6902 126.775 18.9023 126.673 19.0801C126.57 19.258 126.406 19.388 126.214 19.4432C126.119 19.472 126.02 19.4809 125.921 19.4693C125.823 19.4578 125.728 19.4262 125.641 19.3761C125.555 19.3261 125.479 19.2588 125.418 19.178C125.356 19.0972 125.311 19.0046 125.284 18.9055C125.24 18.7026 125.273 18.4898 125.375 18.3109C125.477 18.1321 125.642 18.001 125.834 17.9446C125.93 17.9159 126.03 17.9073 126.128 17.9192C126.227 17.9311 126.322 17.9632 126.409 18.0138C126.495 18.0644 126.571 18.1323 126.632 18.2138C126.693 18.2952 126.738 18.3884 126.764 18.488Z" fill="#263238"/>
<path d="M126.362 17.4126C126.291 17.5385 125.62 17.2182 124.806 17.4126C123.992 17.6071 123.475 18.1448 123.365 18.0647C123.255 17.9846 123.365 17.8188 123.59 17.5614C123.894 17.2318 124.288 17.0063 124.718 16.915C125.143 16.821 125.586 16.8691 125.983 17.0523C126.274 17.1896 126.401 17.344 126.362 17.4126Z" fill="#263238"/>
<path d="M130.504 22.7894C130.907 22.5581 131.336 22.3776 131.78 22.2518C131.983 22.1831 132.176 22.0973 132.181 21.9429C132.153 21.7154 132.059 21.5021 131.912 21.3308L130.96 19.8093C129.629 17.6414 128.617 15.8454 128.7 15.8053C128.782 15.7653 129.932 17.4641 131.263 19.632L132.192 21.165C132.375 21.3996 132.474 21.6925 132.473 21.9944C132.457 22.0766 132.423 22.1542 132.374 22.2214C132.326 22.2886 132.264 22.3439 132.192 22.3833C132.085 22.4426 131.97 22.4868 131.851 22.5149C131.416 22.6698 130.963 22.7622 130.504 22.7894Z" fill="#263238"/>
<path d="M133.1 32.7308C130.318 33.3846 127.416 33.2223 124.718 32.2617C124.718 32.2617 127.6 36.1742 133.414 34.3038L133.1 32.7308Z" fill="#EB996E"/>
<path d="M126.5 16.2C126.445 16.446 125.603 16.4403 124.646 16.6862C123.689 16.9322 122.93 17.304 122.776 17.1095C122.71 17.018 122.82 16.7777 123.112 16.5375C123.499 16.1982 123.96 15.9608 124.454 15.8454C124.944 15.7245 125.454 15.7245 125.944 15.8454C126.335 15.9197 126.538 16.0856 126.5 16.2Z" fill="#263238"/>
<path d="M133.958 12.6936C133.826 12.9224 133.122 12.8652 132.308 13.0311C131.494 13.197 130.851 13.483 130.658 13.3171C130.57 13.2313 130.658 13.0139 130.895 12.7451C131.258 12.4275 131.697 12.2179 132.165 12.1388C132.626 12.0422 133.103 12.0778 133.546 12.2417C133.881 12.4019 134.013 12.5792 133.958 12.6936Z" fill="#263238"/>
<path d="M119.19 7.09376C119.312 7.7134 119.564 8.29756 119.927 8.80475C120.29 9.31193 120.756 9.7297 121.292 10.0284C121.828 10.327 122.421 10.4993 123.028 10.5328C123.636 10.5664 124.243 10.4605 124.806 10.2226C125.675 9.85652 126.577 9.17011 127.457 9.50187C128.337 9.83363 128.7 11.1378 129.541 11.624C130.779 12.3447 132.291 11.0978 133.672 11.2236C134.772 11.3208 135.602 12.196 136.455 12.9396C137.307 13.6832 138.484 14.2438 139.447 13.7061C139.227 12.7508 138.9 11.8256 138.473 10.949C138.043 10.0666 137.332 9.36698 136.46 8.96991C135.976 8.76971 135.454 8.70107 134.992 8.45511C133.996 7.92887 133.551 6.73911 132.83 5.84108C132.357 5.27516 131.761 4.83468 131.092 4.55615C130.422 4.27762 129.698 4.16906 128.98 4.23947C127.792 4.36531 126.665 4.98879 125.466 4.93731C124.58 4.89727 123.733 4.48544 122.848 4.5026C121.126 4.5026 119.834 6.10419 118.877 7.59711" fill="#263238"/>
<path d="M124.987 8.40364C124.195 8.34072 122.578 8.16912 122.045 7.58568C121.503 6.95523 120.811 6.4839 120.039 6.21888C119.267 5.95387 118.441 5.90446 117.645 6.0756C116.855 6.3206 116.161 6.82298 115.666 7.50878C115.171 8.19459 114.901 9.02758 114.895 9.88512C113.933 10.1294 113.052 10.6393 112.345 11.3612C111.638 12.0831 111.132 12.9901 110.88 13.9864C110.624 15.0293 110.615 16.1213 110.855 17.1685C111.094 18.2157 111.575 19.1867 112.255 19.9981C112.585 20.4277 112.887 20.8807 113.157 21.3537C112.784 21.8349 112.456 22.352 112.178 22.8981C110.918 25.7924 114.334 26.9021 114.334 26.9021C114.334 28.8469 116.066 28.8355 117.172 28.8298C118.277 28.824 118.888 31.8957 119.751 31.7756L118.877 22.2975C119.005 22.3493 119.141 22.3764 119.278 22.3776C121.363 22.4176 120.818 18.3107 120.147 17.2296C120.769 16.4256 121.293 15.5458 121.709 14.6098C122.087 13.179 122.114 11.6725 121.786 10.2283C122.485 10.1368 125.328 8.42652 124.987 8.40364Z" fill="#263238"/>
<path d="M119.152 22.8008C119.081 22.4997 118.938 22.2221 118.736 21.9941C118.534 21.766 118.279 21.5949 117.997 21.4967C117.714 21.3984 117.412 21.3763 117.118 21.4323C116.825 21.4883 116.55 21.6207 116.319 21.817C115.769 22.3089 115.478 23.1326 115.808 24.5111C116.699 28.1948 120.07 26.5074 120.048 26.4044C120.026 26.3015 119.537 24.3224 119.152 22.8008Z" fill="#FFBE9D"/>
<path d="M118.629 25.2891C118.629 25.2891 118.58 25.352 118.486 25.4264C118.356 25.5301 118.193 25.5772 118.03 25.5579C117.623 25.5122 117.155 24.9859 116.979 24.3167C116.896 24.004 116.879 23.6759 116.93 23.3557C116.936 23.2313 116.97 23.1102 117.03 23.0026C117.091 22.895 117.175 22.8042 117.276 22.738C117.343 22.7005 117.421 22.6886 117.495 22.7043C117.569 22.72 117.636 22.7622 117.683 22.8238C117.755 22.9096 117.749 22.9896 117.771 22.9954C117.793 23.0011 117.832 22.9096 117.771 22.7666C117.729 22.6817 117.662 22.6135 117.579 22.5721C117.463 22.5231 117.332 22.5231 117.216 22.5721C117.078 22.6403 116.959 22.7437 116.869 22.8727C116.78 23.0017 116.723 23.1521 116.704 23.31C116.633 23.6702 116.646 24.043 116.743 24.3968C116.804 24.7289 116.959 25.0348 117.187 25.276C117.415 25.5172 117.706 25.6829 118.024 25.7524C118.128 25.7568 118.231 25.7369 118.326 25.6944C118.422 25.6518 118.506 25.5876 118.574 25.5064C118.646 25.3806 118.646 25.2948 118.629 25.2891Z" fill="#EB996E"/>
<path d="M138.143 17.6586C138.143 17.6586 138.468 17.4012 138.919 16.8292C139.541 16.005 139.923 15.0124 140.019 13.9692C140.092 13.2571 140.024 12.537 139.821 11.8528C139.586 11.068 139.151 10.3642 138.561 9.81646C137.881 9.19852 137.057 8.77629 136.172 8.59167C135.286 8.40705 134.369 8.46645 133.512 8.76398C133.347 8.82118 133.193 8.90699 133.039 8.97563C132.885 9.04427 132.748 9.14722 132.605 9.23302L132.385 9.35887V9.10718C132.38 8.66409 132.222 8.23761 131.939 7.90598C131.65 7.58414 131.295 7.33394 130.9 7.17383C130.153 6.85008 129.325 6.78588 128.54 6.99079C127.022 7.35115 125.735 8.07187 124.52 8.22059C123.567 8.39287 122.586 8.18888 121.77 7.64859C121.555 7.49447 121.368 7.3006 121.22 7.07659C121.132 6.92215 121.088 6.83635 121.099 6.83063C121.298 7.11309 121.542 7.35866 121.819 7.55706C122.622 8.03913 123.566 8.20364 124.476 8.02038C125.109 7.89646 125.729 7.70477 126.324 7.44838C127.023 7.15779 127.739 6.91512 128.469 6.72195C128.876 6.61962 129.294 6.57536 129.712 6.59038C130.153 6.61462 130.587 6.71917 130.993 6.89926C131.414 7.08613 131.79 7.36741 132.093 7.72294C132.419 8.11018 132.602 8.60454 132.61 9.11863L132.39 8.99279L132.847 8.71822C133.017 8.64958 133.177 8.55806 133.353 8.49514C134.256 8.17353 135.225 8.10625 136.161 8.30015C137.097 8.49405 137.967 8.94222 138.682 9.5991C139.301 10.1815 139.754 10.9294 139.991 11.7613C140.238 12.6429 140.272 13.5743 140.088 14.4726C139.905 15.3708 139.511 16.2079 138.941 16.9093C138.76 17.1242 138.555 17.3162 138.33 17.4813C138.275 17.548 138.212 17.6076 138.143 17.6586Z" fill="#455A64"/>
<path d="M137.428 4.72571C137.067 4.53508 136.682 4.39836 136.284 4.3196C135.83 4.25494 135.367 4.29996 134.931 4.45115C134.368 4.63053 133.878 5.00105 133.54 5.50364L133.402 5.70383L133.32 5.47503C133.033 4.77189 132.571 4.1611 131.981 3.70564C131.391 3.25017 130.695 2.96651 129.965 2.88387C128.818 2.83901 127.688 3.18002 126.742 3.85627C125.936 4.40253 125.079 4.86248 124.184 5.22907C123.568 5.47178 122.903 5.55424 122.248 5.46931C122.074 5.43582 121.903 5.38604 121.737 5.3206C121.627 5.26912 121.566 5.24051 121.572 5.22907C121.577 5.21763 121.819 5.30343 122.265 5.34919C122.898 5.39031 123.531 5.28278 124.118 5.0346C124.988 4.64021 125.822 4.16545 126.61 3.61603C127.097 3.3017 127.613 3.03916 128.15 2.83239C128.741 2.60838 129.372 2.52435 129.998 2.58643C130.778 2.67501 131.52 2.98191 132.146 3.47445C132.772 3.967 133.257 4.62676 133.551 5.38351H133.336C133.715 4.84597 134.255 4.45538 134.871 4.27383C135.339 4.13266 135.833 4.1072 136.312 4.19947C136.615 4.2594 136.906 4.37566 137.17 4.54267C137.264 4.59057 137.351 4.65221 137.428 4.72571Z" fill="#455A64"/>
<path d="M130.185 24.4825C130.057 24.3708 129.907 24.2886 129.746 24.2413C129.585 24.194 129.416 24.1826 129.25 24.208C129.056 24.251 128.873 24.3358 128.713 24.457C128.553 24.5782 128.419 24.7331 128.32 24.9115C128.32 24.9115 128.293 24.9401 128.287 24.9573C128.212 25.0879 128.177 25.2399 128.188 25.392C128.212 25.5577 128.275 25.7148 128.371 25.8494C128.467 25.984 128.593 26.0921 128.738 26.1642C128.971 26.2868 129.234 26.3317 129.492 26.2928C129.75 26.2539 129.99 26.1331 130.179 25.9469C130.359 25.7493 130.46 25.4879 130.461 25.2158C130.462 24.9438 130.363 24.6816 130.185 24.4825Z" fill="#08915C"/>
<path d="M130.46 26.2615C130.416 26.2615 130.367 26.0899 130.218 25.8554C130.039 25.541 129.772 25.2912 129.452 25.1398C129.133 24.9884 128.776 24.9427 128.43 25.0088C128.161 25.0488 127.996 25.1289 127.979 25.0889C127.963 25.0488 128.089 24.9116 128.386 24.8029C128.775 24.6728 129.197 24.6972 129.569 24.8715C129.945 25.0455 130.242 25.3629 130.4 25.7581C130.515 26.0556 130.499 26.2558 130.46 26.2615Z" fill="#263238"/>
<path d="M119.235 26.9707C119.235 26.9707 119.394 27.2567 119.185 27.6915C119.067 27.9516 118.859 28.1558 118.602 28.2635C118.442 28.3231 118.271 28.3433 118.102 28.3224C117.933 28.3016 117.771 28.2403 117.628 28.1433C117.484 28.0518 117.361 27.9268 117.271 27.7779C117.18 27.6291 117.124 27.4605 117.106 27.2853C117.089 27.0028 117.169 26.7232 117.331 26.496C117.617 26.1185 117.936 26.107 117.936 26.1413C117.936 26.1757 117.695 26.2729 117.502 26.6161C117.391 26.8084 117.344 27.0339 117.37 27.2567C117.391 27.3873 117.438 27.5116 117.509 27.6213C117.58 27.7309 117.674 27.8231 117.782 27.8917C117.89 27.9631 118.01 28.0102 118.137 28.0299C118.263 28.0496 118.391 28.0415 118.514 28.0061C118.717 27.9305 118.892 27.7904 119.015 27.6057C119.229 27.251 119.191 26.9707 119.235 26.9707Z" fill="#08915C"/>
<path d="M117.381 26.7476C117.408 26.7476 117.381 26.9421 117.122 27.068C116.995 27.1228 116.856 27.1388 116.721 27.1139C116.585 27.089 116.459 27.0243 116.358 26.9274C116.257 26.8306 116.185 26.7057 116.149 26.5674C116.114 26.4291 116.118 26.2832 116.16 26.147C116.214 25.9923 116.317 25.8613 116.451 25.7752C116.677 25.6322 116.847 25.6894 116.842 25.7238C116.836 25.7581 116.71 25.7981 116.572 25.9411C116.505 26.029 116.464 26.1357 116.454 26.2479C116.444 26.3601 116.467 26.4727 116.519 26.5716C116.57 26.6706 116.649 26.7514 116.745 26.8041C116.84 26.8568 116.949 26.8789 117.056 26.8678C117.243 26.8277 117.342 26.7248 117.381 26.7476Z" fill="#08915C"/>
<path d="M123.425 77.547C123.425 77.547 137.043 78.3707 145.095 78.445C151.327 78.5079 154.11 76.7862 155.353 72.6163C156.398 69.1214 154.154 62.4119 154.154 62.4119C149.935 62.4119 147.334 63.0411 144.622 64.3624L145.343 67.4283L123.387 69.396L123.425 77.547Z" fill="#FFBE9D"/>
<path d="M149.919 70.7001C149.328 69.9015 148.639 69.188 147.867 68.578C147.04 68.0516 146.149 67.6437 145.216 67.3654C145.51 67.3215 145.809 67.3489 146.091 67.4455C146.783 67.6155 147.439 67.916 148.027 68.3321C148.616 68.7494 149.125 69.277 149.528 69.8879C149.836 70.3569 149.952 70.683 149.919 70.7001Z" fill="#EB996E"/>
<path d="M118.442 64.3395C118.442 64.3395 114.229 65.392 111.133 67.5427L114.433 76.8434C115.533 79.8979 118.893 81.4194 121.583 79.8178C125.724 77.3525 127.187 70.1682 127.187 70.1682L131.736 49.6448L124.195 44.7313L118.47 64.3395" fill="#FFBE9D"/>
<path d="M124.168 44.7313L124.476 37.9817L122.788 31.1177C122.694 30.7402 122.65 30.2655 122.947 30.0367C123.094 29.9192 123.276 29.8584 123.462 29.8647C123.647 29.871 123.825 29.9438 123.965 30.071C124.421 30.5629 126.621 36.5632 126.621 36.5632C126.621 36.5632 129.959 34.4811 130.553 34.3781C131.147 34.2752 131.89 36.1456 131.94 36.2886C131.961 36.7078 131.961 37.1279 131.94 37.547C131.94 37.547 134.002 37.6099 134.189 37.9017C134.339 38.4976 134.418 39.1104 134.425 39.7263C134.425 39.7263 135.3 40.0181 135.437 40.7045C135.575 41.3909 135.861 42.5234 135.437 42.7751C135.014 43.0268 134.156 43.5187 134.156 43.5187C134.156 43.5187 133.809 47.0193 133.716 47.3397C133.622 47.66 131.692 49.6277 131.692 49.6277L124.168 44.7313Z" fill="#FFBE9D"/>
<path d="M117.15 79.9551C117.15 79.9551 117.353 80.0809 117.782 80.2239C118.41 80.4286 119.073 80.4834 119.724 80.3841C120.769 80.2291 121.748 79.7599 122.54 79.0342C123.587 78.0464 124.471 76.8871 125.158 75.6022C125.562 74.8469 125.903 74.0565 126.176 73.2398C126.462 72.3412 126.698 71.4264 126.885 70.4999C127.314 68.5723 127.782 66.4959 128.277 64.288C129.267 59.8779 130.378 54.9473 131.577 49.6334V49.5933H131.604C131.984 49.2044 132.363 48.8097 132.743 48.3979C132.93 48.1919 133.117 47.986 133.293 47.7744C133.381 47.6657 133.474 47.557 133.546 47.4483C133.601 47.3407 133.633 47.2215 133.639 47.0994C133.788 45.9554 133.903 44.7714 134.024 43.5759V43.5015L134.09 43.4672L135.141 42.8552C135.218 42.8037 135.339 42.7465 135.388 42.7007C135.441 42.6513 135.475 42.5847 135.487 42.512C135.513 42.3222 135.513 42.1297 135.487 41.94C135.434 41.5205 135.351 41.1057 135.24 40.6987C135.052 40.3429 134.738 40.0779 134.365 39.9608L134.272 39.9265V39.8293C134.272 39.4975 134.239 39.1543 134.2 38.8168C134.185 38.6478 134.161 38.4798 134.129 38.3135C134.116 38.2402 134.093 38.169 134.063 38.1018C134.063 38.0618 134.063 38.1018 134.03 38.0675C134 38.0512 133.968 38.0378 133.936 38.0275C133.275 37.8776 132.6 37.799 131.923 37.793H131.78V37.6443C131.78 37.2896 131.78 36.8949 131.78 36.5003C131.757 36.3656 131.713 36.236 131.648 36.117C131.593 35.9797 131.527 35.8482 131.461 35.7109C131.332 35.4459 131.181 35.1933 131.01 34.9558C130.932 34.8452 130.837 34.7486 130.73 34.6698C130.69 34.6348 130.641 34.6128 130.589 34.6067C130.537 34.6006 130.484 34.6106 130.438 34.6355C130.172 34.7415 129.913 34.8657 129.663 35.0073C128.64 35.5793 127.639 36.1513 126.66 36.7691L126.517 36.8606L126.456 36.7004C125.939 35.3448 125.422 34.0063 124.916 32.6964C124.663 32.0386 124.415 31.3809 124.162 30.7345C124.123 30.5897 124.046 30.4592 123.939 30.3581C123.832 30.2569 123.7 30.1891 123.557 30.1625C123.426 30.1171 123.284 30.1196 123.154 30.1695C123.024 30.2194 122.914 30.3137 122.843 30.437C122.774 30.5598 122.745 30.7021 122.76 30.8432C122.76 30.969 122.837 31.1635 122.87 31.3179C122.958 31.6497 123.04 31.9757 123.123 32.3018C123.288 32.9596 123.447 33.6059 123.612 34.2466C123.935 35.5355 124.252 36.7939 124.564 38.0218V38.0618C124.454 40.4108 124.35 42.6607 124.251 44.8114V44.8L119.24 61.7541L117.827 66.4731C117.662 67.005 117.535 67.4226 117.447 67.7143C117.359 68.006 117.304 68.1319 117.304 68.1319C117.304 68.1319 117.331 67.9831 117.408 67.7029L117.755 66.4502C118.074 65.3462 118.53 63.7503 119.108 61.714C120.296 57.6185 121.984 51.7727 124.025 44.7256V44.7542C124.12 42.6111 124.217 40.3612 124.316 38.0046V38.0447C124.003 36.8149 123.678 35.5565 123.354 34.2752L122.859 32.3304C122.777 32.0043 122.694 31.6726 122.606 31.3465C122.559 31.1753 122.52 31.0015 122.49 30.826C122.47 30.6275 122.511 30.4273 122.606 30.254C122.708 30.0756 122.865 29.9384 123.052 29.865C123.236 29.8089 123.431 29.8025 123.619 29.8465C123.807 29.8906 123.98 29.9835 124.124 30.1167C124.262 30.2514 124.364 30.4208 124.421 30.6087L125.174 32.5706C125.686 33.8862 126.197 35.2247 126.72 36.5746L126.517 36.5003C127.501 35.8939 128.491 35.2876 129.536 34.7213C129.8 34.5777 130.072 34.4498 130.35 34.3381C130.437 34.3005 130.532 34.2867 130.625 34.2981C130.719 34.3122 130.809 34.3473 130.889 34.401C131.021 34.4998 131.138 34.6195 131.235 34.7557C131.419 35.006 131.58 35.2741 131.714 35.5564C131.786 35.6994 131.852 35.8367 131.912 35.9797C131.99 36.1312 132.042 36.2957 132.066 36.4659C132.066 36.872 132.066 37.2496 132.066 37.6099L131.929 37.4555C132.636 37.4604 133.34 37.5448 134.03 37.7072C134.077 37.7244 134.123 37.7454 134.167 37.7701C134.227 37.8043 134.277 37.856 134.31 37.9188C134.353 38.0116 134.384 38.1096 134.404 38.2105C134.437 38.3936 134.459 38.5652 134.481 38.7425C134.514 39.0914 134.536 39.4346 134.552 39.7778L134.453 39.6405C134.678 39.7092 134.887 39.8247 135.068 39.98C135.248 40.1354 135.397 40.3274 135.504 40.5443C135.624 40.979 135.712 41.4226 135.768 41.8713C135.806 42.1003 135.806 42.3345 135.768 42.5635C135.744 42.7022 135.673 42.8277 135.57 42.9181C135.479 42.9809 135.386 43.0382 135.289 43.0897L134.244 43.656L134.316 43.5473C134.189 44.7428 134.074 45.9154 133.92 47.0765L133.887 47.2996C133.874 47.3899 133.838 47.475 133.782 47.5456C133.701 47.6708 133.611 47.7894 133.513 47.9002C133.326 48.1176 133.139 48.3292 132.963 48.5351C132.583 48.947 132.204 49.3417 131.819 49.7306L131.857 49.662C130.647 54.9701 129.525 59.9008 128.519 64.3109C128.018 66.5131 127.54 68.5895 127.099 70.5114C126.911 71.4448 126.669 72.3655 126.373 73.2684C126.09 74.0927 125.741 74.8907 125.328 75.6537C124.626 76.955 123.721 78.1263 122.65 79.12C121.834 79.8504 120.83 80.3158 119.762 80.4585C119.098 80.5513 118.422 80.4807 117.788 80.2525C117.627 80.1909 117.471 80.1164 117.32 80.0295L117.15 79.9551Z" fill="#EB996E"/>
<path d="M131.945 37.5642C131.945 37.6042 131.758 37.6271 131.467 37.6386C131.096 37.6459 130.728 37.6919 130.367 37.7758C130.018 37.865 129.696 38.044 129.431 38.2964C129.233 38.4908 129.145 38.6567 129.101 38.6396C129.057 38.6224 129.101 38.4165 129.283 38.1534C129.539 37.8203 129.896 37.5866 130.295 37.4898C130.68 37.3912 131.08 37.3717 131.472 37.4326C131.769 37.4727 131.945 37.5242 131.945 37.5642Z" fill="#EB996E"/>
<path d="M130.35 37.6271C130.279 37.5985 130.273 37.4212 130.35 37.2324C130.427 37.0436 130.537 36.9121 130.609 36.9407C130.68 36.9693 130.691 37.1466 130.609 37.3354C130.526 37.5241 130.405 37.6557 130.35 37.6271Z" fill="#EB996E"/>
<path d="M134.519 39.7034C133.985 39.8752 133.428 39.9545 132.869 39.938C132.693 39.9319 132.518 39.9697 132.36 40.0483C132.201 40.127 132.062 40.2441 131.956 40.3898C131.813 40.6244 131.863 40.8188 131.819 40.8303C131.775 40.8417 131.643 40.6415 131.78 40.2983C131.856 40.1051 131.994 39.9453 132.171 39.8464C132.374 39.7303 132.599 39.6601 132.831 39.6405C133.392 39.5511 133.965 39.5724 134.519 39.7034Z" fill="#EB996E"/>
<path d="M134.156 41.7627C134.233 41.7627 134.277 42.186 134.255 42.7065C134.233 43.227 134.15 43.6389 134.073 43.6389C133.996 43.6389 133.947 43.2099 133.969 42.6893C133.991 42.1688 134.073 41.757 134.156 41.7627Z" fill="#EB996E"/>
<path d="M136.438 57.1666L136.928 55.4163C136.95 55.3362 136.992 55.2635 137.05 55.2054C137.108 55.1474 137.179 55.1059 137.257 55.0851C137.334 55.0643 137.416 55.065 137.493 55.0869C137.571 55.1089 137.641 55.1514 137.698 55.2104L138.341 55.8911L138.737 54.238C138.761 54.1425 138.812 54.0568 138.883 53.9924C138.955 53.928 139.044 53.8881 139.138 53.8781C139.233 53.8682 139.328 53.8885 139.41 53.9365C139.493 53.9845 139.56 54.0578 139.601 54.1465L140.497 56.1027L136.438 57.1666Z" fill="white"/>
<path d="M140.508 56.8521C139.893 57.1613 139.24 57.3807 138.567 57.5041C137.916 57.7252 137.238 57.8485 136.554 57.8702C137.82 57.3413 139.151 56.9986 140.508 56.8521Z" fill="white"/>
<path d="M107.8 47.088C107.8 47.088 107.596 47.3054 107.31 47.7687C106.927 48.4285 106.674 49.1618 106.568 49.9251C106.411 51.0616 106.378 52.2129 106.469 53.3571C106.529 54.6556 106.628 56.0741 106.782 57.5613C107.043 60.1012 107.43 62.6252 107.943 65.1232C108.135 66.0841 108.311 66.8392 108.432 67.4112C108.487 67.6514 108.537 67.8516 108.575 68.0232C108.614 68.1948 108.619 68.2406 108.619 68.2406C108.619 68.2406 108.592 68.1719 108.553 68.0346C108.515 67.8974 108.454 67.6571 108.394 67.4226C108.256 66.8907 108.069 66.1242 107.844 65.1632C107.309 62.6661 106.911 60.1395 106.65 57.5956C106.496 56.1084 106.403 54.6842 106.348 53.3857C106.265 52.2406 106.305 51.0894 106.469 49.9537C106.587 49.1805 106.857 48.4407 107.261 47.7801C107.41 47.5253 107.591 47.2925 107.8 47.088Z" fill="white"/>
<path d="M119.377 39.2973L119.251 39.366L118.888 39.549C118.574 39.7035 118.118 39.9323 117.573 40.2469C116.154 41.0702 114.775 41.9674 113.443 42.9353C111.87 44.0793 110.478 45.1203 109.461 45.8753L108.256 46.7619L107.921 46.9965C107.884 47.0276 107.843 47.0544 107.8 47.0765C107.831 47.0381 107.868 47.0053 107.91 46.9793L108.229 46.7276L109.411 45.8067C110.418 45.0345 111.804 43.9591 113.377 42.838C114.712 41.8661 116.1 40.976 117.535 40.1725C118.085 39.8693 118.547 39.652 118.871 39.509L119.24 39.3488C119.35 39.3088 119.35 39.2916 119.377 39.2973Z" fill="white"/>
<path d="M145.607 43.0211C145.572 43.0012 145.541 42.9762 145.513 42.9467L145.266 42.7237C144.959 42.4546 144.638 42.2044 144.303 41.9743C143.187 41.234 142.002 40.6112 140.767 40.1153C139.535 39.608 138.278 39.1726 136.999 38.8112C136.504 38.6682 136.108 38.5652 135.828 38.4966L135.515 38.4108C135.476 38.4026 135.439 38.3891 135.404 38.3707H135.52L135.839 38.4336C136.119 38.4908 136.521 38.5824 137.016 38.7139C138.306 39.0527 139.574 39.4788 140.811 39.9895C142.053 40.4853 143.239 41.1221 144.347 41.8885C144.809 42.2133 145.231 42.5934 145.607 43.0211Z" fill="white"/>
<path d="M119.531 86.6818C119.457 86.668 119.385 86.643 119.317 86.6074C119.126 86.5201 118.942 86.4168 118.767 86.2986C118.471 86.1139 118.212 85.8703 118.007 85.5818C117.801 85.2932 117.652 84.9654 117.568 84.6169C117.417 83.9134 117.492 83.1779 117.782 82.5233C117.866 82.32 117.973 82.128 118.101 81.9513C118.189 81.8312 118.25 81.774 118.255 81.7797C118.105 82.0237 117.971 82.2779 117.854 82.5405C117.598 83.1832 117.539 83.8921 117.683 84.5711C117.841 85.2416 118.233 85.8269 118.783 86.2127C119.24 86.5559 119.542 86.6589 119.531 86.6818Z" fill="white"/>
<path d="M117.782 80.4871C117.899 80.7141 117.986 80.9565 118.041 81.2078C118.127 81.4484 118.179 81.7009 118.195 81.9571C118.07 81.7354 117.981 81.4938 117.931 81.2421C117.841 81.001 117.791 80.7457 117.782 80.4871Z" fill="white"/>
<path d="M125.218 208.735L141.993 208.649L141.691 148.332L141.531 86.9736L118.8 86.6704L114.713 94.6784C113.042 97.8978 111.976 101.42 111.573 105.054C111.298 107.834 113.3 116.872 113.993 119.16L120.246 139.786L125.218 208.735Z" fill="#263238"/>
<path d="M146.454 87.0479L164.89 139.312C165.982 142.679 166.345 146.256 165.952 149.786C165.56 153.316 164.421 156.713 162.619 159.732L141.212 203.204L129.178 187.543L147.086 148.647L131.301 122.02L133.958 87.128L141.394 87.0021L146.454 87.0479Z" fill="#263238"/>
<path d="M140.002 104.557C140.002 104.557 140.002 104.648 140.002 104.826C140.002 105.003 140.03 105.278 140.052 105.615C140.09 106.319 140.14 107.331 140.206 108.641C140.332 111.289 140.508 115.093 140.756 119.789C141.003 124.485 141.212 130.085 141.487 136.32C141.619 139.432 141.762 142.698 141.905 146.084C142.01 147.8 141.966 149.516 141.982 151.232C141.999 152.948 141.982 154.756 141.982 156.552C141.982 170.926 142.026 183.939 142.043 193.371C142.043 198.073 142.043 201.883 142.043 204.531C142.043 205.841 142.043 206.859 142.043 207.568C142.043 207.9 142.043 208.14 142.043 208.358C142.043 208.575 142.043 208.627 142.043 208.627C142.043 208.627 142.043 208.535 142.043 208.358V207.568C142.043 206.859 142.043 205.852 142.01 204.531C142.01 201.883 141.966 198.079 141.933 193.377C141.894 183.945 141.845 170.932 141.79 156.557C141.79 154.761 141.79 152.988 141.79 151.238C141.79 149.487 141.823 147.76 141.718 146.09C141.581 142.709 141.443 139.443 141.317 136.331C141.064 130.108 140.833 124.508 140.646 119.795C140.459 115.082 140.321 111.295 140.217 108.647C140.173 107.343 140.14 106.324 140.118 105.615C140.118 105.278 140.118 105.043 140.118 104.826C140.118 104.608 140.002 104.557 140.002 104.557Z" fill="#455A64"/>
<path d="M139.579 88.0775C139.643 88.2615 139.682 88.4541 139.694 88.6495C139.755 89.0156 139.821 89.5476 139.898 90.2111C140.041 91.5324 140.195 93.3685 140.283 95.3991C140.371 97.4297 140.377 99.2716 140.349 100.604C140.349 101.268 140.311 101.811 140.283 102.183C140.289 102.376 140.266 102.569 140.217 102.755C140.148 102.041 140.124 101.322 140.146 100.604C140.146 99.2716 140.085 97.4411 139.997 95.4105C139.909 93.38 139.788 91.5553 139.694 90.2625C139.616 89.5371 139.578 88.8075 139.579 88.0775Z" fill="#455A64"/>
<path d="M135.883 89.2558C135.91 89.2959 135.597 89.4446 135.509 89.9079C135.484 90.0336 135.491 90.1638 135.529 90.286C135.566 90.4082 135.633 90.5183 135.723 90.6058C135.832 90.711 135.968 90.7815 136.114 90.8089C136.26 90.8363 136.411 90.8194 136.548 90.7602C136.68 90.6896 136.79 90.5819 136.866 90.4495C136.942 90.317 136.981 90.165 136.977 90.0109C136.972 89.8829 136.936 89.7583 136.871 89.6492C136.807 89.54 136.717 89.4499 136.609 89.3874C136.385 89.2747 136.136 89.2292 135.888 89.2558C135.888 89.2558 135.943 89.1815 136.086 89.1357C136.293 89.0833 136.51 89.1055 136.702 89.1986C136.856 89.2651 136.989 89.3746 137.086 89.515C137.183 89.6554 137.241 89.8212 137.252 89.9937C137.274 90.2067 137.231 90.4214 137.13 90.6077C137.028 90.7939 136.873 90.9423 136.686 91.032C136.499 91.1217 136.289 91.1481 136.087 91.1076C135.885 91.067 135.7 90.9615 135.558 90.806C135.442 90.6851 135.359 90.5332 135.319 90.3668C135.279 90.2004 135.284 90.0259 135.333 89.8622C135.388 89.6481 135.512 89.4603 135.685 89.3302C135.795 89.2501 135.877 89.2387 135.883 89.2558Z" fill="#455A64"/>
<path d="M127.083 88.2205C127.164 88.4008 127.214 88.5943 127.231 88.7925C127.32 89.3059 127.337 89.83 127.281 90.3484C127.202 91.1202 126.988 91.8705 126.648 92.562C126.239 93.4222 125.633 94.1646 124.883 94.7241C124.133 95.2836 123.262 95.6431 122.347 95.7709C121.615 95.8846 120.869 95.8555 120.147 95.6851C119.659 95.5749 119.189 95.3918 118.75 95.1417C118.585 95.0602 118.433 94.9521 118.299 94.8214C118.907 95.1058 119.541 95.3262 120.191 95.4792C120.974 95.6484 121.781 95.647 122.563 95.4753C123.345 95.3035 124.084 94.9651 124.733 94.4813C125.383 93.9976 125.929 93.3791 126.337 92.6647C126.746 91.9504 127.007 91.1559 127.105 90.3312C127.17 89.6288 127.162 88.9213 127.083 88.2205Z" fill="#455A64"/>
<path d="M148.665 93.2312C148.306 93.2743 147.943 93.2292 147.603 93.0997C146.773 92.8275 146.026 92.33 145.442 91.6582C144.852 90.9895 144.447 90.1673 144.27 89.2787C144.184 88.9162 144.184 88.5372 144.27 88.1747C144.32 88.1747 144.325 88.5923 144.49 89.2329C144.713 90.0607 145.119 90.8231 145.674 91.4596C146.23 92.096 146.921 92.589 147.691 92.8995C148.263 93.134 148.67 93.174 148.665 93.2312Z" fill="#455A64"/>
<path d="M155.215 149.573C154.94 149.9 154.61 150.173 154.242 150.38C153.856 150.634 153.435 150.827 152.993 150.952C152.438 151.105 151.852 151.089 151.305 150.906C150.344 150.529 149.521 149.849 148.951 148.961C148.689 148.627 148.473 148.258 148.307 147.863C148.604 148.158 148.873 148.481 149.11 148.83C149.695 149.635 150.483 150.255 151.387 150.62C151.849 150.748 152.331 150.777 152.804 150.705C153.277 150.634 153.73 150.462 154.137 150.202C154.485 149.971 154.845 149.761 155.215 149.573Z" fill="#455A64"/>
<path d="M151.014 152.908C150.363 152.208 149.783 151.441 149.281 150.62C148.703 149.855 148.198 149.033 147.774 148.166C148.428 148.864 149.011 149.631 149.512 150.454C150.095 151.214 150.598 152.037 151.014 152.908Z" fill="#455A64"/>
<path d="M122.831 106.576C122.754 106.605 122.562 106.279 122.391 105.838C122.221 105.398 122.149 105.026 122.221 104.992C122.292 104.957 122.49 105.289 122.655 105.729C122.82 106.17 122.903 106.576 122.831 106.576Z" fill="#FAFAFA"/>
<path d="M133.479 108.166C133.397 108.166 133.336 107.886 133.336 107.537C133.336 107.188 133.397 106.902 133.479 106.902C133.562 106.902 133.622 107.188 133.622 107.537C133.622 107.886 133.556 108.166 133.479 108.166Z" fill="#FAFAFA"/>
<path d="M129.101 114.184C129.024 114.184 128.936 113.84 128.909 113.4C128.881 112.959 128.909 112.605 128.997 112.599C129.085 112.593 129.167 112.942 129.195 113.383C129.222 113.823 129.178 114.178 129.101 114.184Z" fill="#FAFAFA"/>
<path d="M121.104 118.588C121.038 118.639 120.813 118.428 120.516 118.21C120.219 117.993 119.966 117.827 119.966 117.747C119.966 117.667 120.329 117.713 120.664 117.965C121 118.216 121.17 118.588 121.104 118.588Z" fill="#FAFAFA"/>
<path d="M135.201 124.199C135.135 124.154 135.201 123.908 135.388 123.627C135.575 123.347 135.745 123.187 135.811 123.233C135.877 123.278 135.811 123.53 135.624 123.805C135.437 124.079 135.267 124.245 135.201 124.199Z" fill="#FAFAFA"/>
<path d="M126.5 125.784C126.423 125.784 126.357 125.309 126.357 124.731C126.357 124.154 126.423 123.673 126.5 123.673C126.577 123.673 126.643 124.148 126.643 124.731C126.643 125.315 126.56 125.784 126.5 125.784Z" fill="#FAFAFA"/>
<path d="M123.651 132.202C123.607 132.265 123.321 132.133 123.013 131.898C122.705 131.664 122.463 131.424 122.534 131.355C122.606 131.286 122.87 131.424 123.178 131.658C123.486 131.893 123.701 132.133 123.651 132.202Z" fill="#FAFAFA"/>
<path d="M132.462 134.432C132.495 134.507 132.319 134.661 132.066 134.781C131.813 134.901 131.582 134.93 131.549 134.856C131.516 134.781 131.697 134.627 131.95 134.507C132.203 134.387 132.434 134.358 132.462 134.432Z" fill="#FAFAFA"/>
<path d="M126.5 144.9C126.434 144.934 126.148 144.494 125.867 143.91C125.587 143.327 125.416 142.824 125.488 142.766C125.559 142.709 125.845 143.173 126.12 143.756C126.395 144.339 126.549 144.837 126.5 144.9Z" fill="#FAFAFA"/>
<path d="M136.219 143.928C136.147 143.888 136.274 143.504 136.494 143.064C136.714 142.623 136.961 142.303 137.044 142.343C137.126 142.383 136.989 142.766 136.763 143.207C136.538 143.647 136.285 143.968 136.219 143.928Z" fill="#FAFAFA"/>
<path d="M131.956 152.788C131.874 152.788 131.885 152.325 131.797 151.787C131.709 151.249 131.576 150.82 131.653 150.78C131.73 150.74 131.994 151.146 132.082 151.741C132.171 152.336 132.033 152.805 131.956 152.788Z" fill="#FAFAFA"/>
<path d="M127.391 157.85C127.336 157.907 127.061 157.69 126.781 157.37C126.5 157.049 126.318 156.746 126.379 156.689C126.439 156.632 126.709 156.849 126.99 157.169C127.27 157.49 127.451 157.793 127.391 157.85Z" fill="#FAFAFA"/>
<path d="M138.468 159.772C138.413 159.715 138.616 159.406 138.924 159.08C139.232 158.754 139.518 158.542 139.579 158.599C139.639 158.657 139.43 158.971 139.128 159.292C138.825 159.612 138.528 159.829 138.468 159.772Z" fill="#FAFAFA"/>
<path d="M132.099 167.351C132.022 167.351 132.022 166.899 132.099 166.373C132.176 165.847 132.297 165.435 132.379 165.446C132.462 165.458 132.456 165.892 132.379 166.419C132.302 166.945 132.176 167.362 132.099 167.351Z" fill="#FAFAFA"/>
<path d="M127.815 171.029C127.743 171.069 127.501 170.772 127.265 170.365C127.028 169.959 126.907 169.599 126.973 169.559C127.039 169.519 127.281 169.811 127.523 170.217C127.765 170.623 127.881 170.983 127.815 171.029Z" fill="#FAFAFA"/>
<path d="M138.138 175.668C138.187 175.737 137.907 176.028 137.511 176.32C137.115 176.612 136.768 176.795 136.719 176.726C136.669 176.657 136.955 176.366 137.346 176.074C137.736 175.782 138.094 175.605 138.138 175.668Z" fill="#FAFAFA"/>
<path d="M129.536 181.691C129.459 181.663 129.536 181.205 129.607 180.633C129.679 180.061 129.635 179.592 129.717 179.58C129.8 179.569 129.943 180.049 129.888 180.661C129.833 181.274 129.607 181.725 129.536 181.691Z" fill="#FAFAFA"/>
<path d="M132.973 190.34C132.907 190.391 132.676 190.197 132.451 189.905C132.225 189.613 132.099 189.333 132.159 189.281C132.22 189.23 132.451 189.424 132.676 189.716C132.902 190.008 133.034 190.288 132.973 190.34Z" fill="#FAFAFA"/>
<path d="M129.217 196.14C129.151 196.186 128.848 195.848 128.54 195.379C128.232 194.91 128.04 194.498 128.1 194.452C128.161 194.407 128.469 194.744 128.777 195.213C129.085 195.682 129.283 196.094 129.217 196.14Z" fill="#FAFAFA"/>
<path d="M139.562 188.858C139.491 188.83 139.496 188.618 139.562 188.389C139.628 188.16 139.777 187.989 139.854 188.017C139.931 188.046 139.92 188.258 139.854 188.492C139.788 188.727 139.639 188.893 139.562 188.858Z" fill="#FAFAFA"/>
<path d="M134.997 202.672C134.926 202.632 135.063 202.226 135.173 201.717C135.283 201.208 135.322 200.779 135.404 200.773C135.487 200.767 135.569 201.231 135.454 201.78C135.338 202.329 135.063 202.718 134.997 202.672Z" fill="#FAFAFA"/>
<path d="M137.967 114.275C137.896 114.309 137.72 114.081 137.577 113.76C137.434 113.44 137.373 113.154 137.445 113.12C137.516 113.085 137.692 113.314 137.835 113.634C137.978 113.955 138.05 114.241 137.967 114.275Z" fill="#FAFAFA"/>
<path d="M130.35 96.463C130.394 96.5317 130.009 96.852 129.596 97.3096C129.184 97.7672 128.903 98.1905 128.832 98.1504C128.76 98.1104 128.947 97.5784 129.382 97.1094C129.816 96.6403 130.295 96.3887 130.35 96.463Z" fill="#FAFAFA"/>
<path d="M137.131 96.28C137.049 96.28 136.922 95.9539 136.73 95.565C136.537 95.176 136.361 94.8557 136.422 94.7985C136.482 94.7413 136.779 94.993 136.972 95.4277C137.164 95.8624 137.203 96.2342 137.131 96.28Z" fill="#FAFAFA"/>
<path d="M115.956 102.063C115.885 102.029 115.956 101.651 116.127 101.216C116.297 100.782 116.484 100.444 116.561 100.478C116.638 100.513 116.561 100.885 116.391 101.325C116.22 101.765 116.05 102.092 115.956 102.063Z" fill="#FAFAFA"/>
<path d="M116.644 110.7C116.589 110.763 116.275 110.58 115.94 110.288C115.604 109.997 115.39 109.716 115.423 109.648C115.456 109.579 115.792 109.768 116.127 110.059C116.463 110.351 116.693 110.637 116.644 110.7Z" fill="#FAFAFA"/>
<path d="M130.537 89.6047C130.466 89.6047 130.312 89.4217 130.202 89.13C130.092 88.8383 130.059 88.558 130.13 88.558C130.202 88.558 130.355 88.741 130.465 89.0327C130.575 89.3244 130.609 89.5761 130.537 89.6047Z" fill="#FAFAFA"/>
<path d="M143.841 93.8261C143.764 93.8261 143.77 93.4657 143.841 93.0596C143.913 92.6535 144.056 92.3332 144.133 92.3503C144.21 92.3675 144.204 92.7164 144.133 93.1225C144.061 93.5286 143.918 93.8433 143.841 93.8261Z" fill="#FAFAFA"/>
<path d="M146.965 100.364C146.894 100.33 146.993 99.9065 147.191 99.4089C147.389 98.9112 147.603 98.5394 147.675 98.568C147.746 98.5966 147.675 99.0256 147.455 99.5232C147.235 100.021 147.042 100.393 146.965 100.364Z" fill="#FAFAFA"/>
<path d="M144.738 105.638C144.666 105.672 144.402 105.278 144.149 104.757C143.896 104.236 143.753 103.773 143.825 103.739C143.896 103.705 144.155 104.099 144.408 104.62C144.661 105.14 144.809 105.598 144.738 105.638Z" fill="#FAFAFA"/>
<path d="M149.501 110.912C149.429 110.883 149.501 110.551 149.622 110.174C149.743 109.796 149.935 109.51 150.012 109.539C150.089 109.568 150.012 109.899 149.891 110.277C149.77 110.654 149.6 110.94 149.501 110.912Z" fill="#FAFAFA"/>
<path d="M145.244 116.077C145.178 116.123 145.007 115.968 144.87 115.739C144.732 115.511 144.666 115.282 144.738 115.236C144.809 115.19 144.969 115.345 145.112 115.579C145.255 115.814 145.31 116.037 145.244 116.077Z" fill="#FAFAFA"/>
<path d="M146.151 126.739C146.096 126.79 145.75 126.51 145.387 126.098C145.024 125.687 144.777 125.315 144.837 125.258C144.898 125.2 145.239 125.486 145.602 125.898C145.964 126.31 146.212 126.682 146.151 126.739Z" fill="#FAFAFA"/>
<path d="M151.734 120.613C151.673 120.664 151.371 120.378 151.063 119.966C150.755 119.555 150.557 119.189 150.617 119.137C150.678 119.086 150.98 119.377 151.288 119.783C151.596 120.19 151.8 120.567 151.734 120.613Z" fill="#FAFAFA"/>
<path d="M154.798 129.061C154.726 129.027 154.852 128.598 155.078 128.106C155.303 127.614 155.54 127.237 155.628 127.271C155.716 127.305 155.578 127.74 155.353 128.232C155.127 128.724 154.869 129.101 154.798 129.061Z" fill="#FAFAFA"/>
<path d="M148.285 136.017C148.214 136.057 147.961 135.742 147.609 135.405C147.257 135.067 146.932 134.833 146.965 134.747C146.998 134.661 147.416 134.816 147.801 135.187C148.186 135.559 148.351 135.977 148.285 136.017Z" fill="#FAFAFA"/>
<path d="M148.692 143.184C148.692 143.264 148.417 143.333 148.082 143.333C147.746 143.333 147.477 143.264 147.477 143.184C147.477 143.104 147.746 143.035 148.082 143.035C148.417 143.035 148.692 143.104 148.692 143.184Z" fill="#FAFAFA"/>
<path d="M155.386 141.182C155.314 141.142 155.457 140.782 155.562 140.335C155.666 139.889 155.71 139.5 155.793 139.495C155.875 139.489 155.963 139.906 155.842 140.404C155.721 140.902 155.446 141.228 155.386 141.182Z" fill="#FAFAFA"/>
<path d="M162.035 143.59C161.964 143.619 161.76 143.213 161.584 142.692C161.408 142.172 161.326 141.725 161.397 141.703C161.469 141.68 161.678 142.074 161.854 142.595C162.03 143.115 162.112 143.561 162.035 143.59Z" fill="#FAFAFA"/>
<path d="M160.974 153.429C160.908 153.388 161.078 152.908 161.353 152.353C161.628 151.798 161.903 151.381 161.986 151.421C162.068 151.461 161.887 151.941 161.606 152.49C161.326 153.04 161.045 153.48 160.974 153.429Z" fill="#FAFAFA"/>
<path d="M154.907 159.2C154.836 159.229 154.61 158.834 154.401 158.313C154.192 157.793 154.088 157.347 154.165 157.312C154.242 157.278 154.462 157.678 154.665 158.199C154.869 158.719 154.979 159.2 154.907 159.2Z" fill="#FAFAFA"/>
<path d="M148.186 161.437C148.186 161.517 147.955 161.585 147.675 161.585C147.394 161.585 147.169 161.517 147.169 161.437C147.169 161.356 147.4 161.288 147.675 161.288C147.95 161.288 148.186 161.356 148.186 161.437Z" fill="#FAFAFA"/>
<path d="M152.036 170.64C151.965 170.64 151.811 170.325 151.695 169.891C151.58 169.456 151.558 169.078 151.635 169.061C151.712 169.044 151.86 169.376 151.976 169.811C152.091 170.245 152.113 170.594 152.036 170.64Z" fill="#FAFAFA"/>
<path d="M147.169 167.551C147.103 167.511 147.169 167.242 147.351 166.951C147.532 166.659 147.713 166.459 147.779 166.499C147.845 166.539 147.779 166.813 147.598 167.105C147.416 167.397 147.24 167.597 147.169 167.551Z" fill="#FAFAFA"/>
<path d="M147.07 177.681C146.993 177.681 146.883 177.298 146.828 176.8C146.773 176.303 146.789 175.897 146.866 175.885C146.943 175.874 147.053 176.268 147.108 176.766C147.164 177.264 147.147 177.67 147.07 177.681Z" fill="#FAFAFA"/>
</svg>
