<svg width="136" height="223" viewBox="0 0 136 223" fill="none" xmlns="http://www.w3.org/2000/svg">
<path d="M51.7953 214.893C51.7953 214.893 48.8814 219.822 48.8814 220.514C48.8794 220.917 48.9251 221.318 49.0167 221.699H57.0852C57.1268 220.615 57.1268 219.529 57.0852 218.445C57.0192 216.669 56.9499 213.611 56.9499 213.611C56.9499 213.611 57.4944 212.426 57.3558 211.442C57.2172 210.458 56.4087 210.256 56.2041 210.256C56.2041 210.256 54.1449 209.421 53.1516 210.846L51.7953 214.893Z" fill="#263238" stroke="#263238" stroke-linecap="round" stroke-linejoin="round"/>
<path d="M48.8814 220.514C48.8794 220.917 48.9251 221.318 49.0167 221.699H57.0852C57.0852 221.699 57.1182 220.97 57.1149 219.923H49.0695C48.9793 220.099 48.9153 220.3 48.8814 220.514Z" fill="white" stroke="#263238" stroke-linecap="round" stroke-linejoin="round"/>
<path d="M55.7289 221.795L55.9335 218.344" stroke="#263238" stroke-linecap="round" stroke-linejoin="round"/>
<path d="M83.2145 214.893C83.2145 214.893 86.1317 219.822 86.1317 220.514C86.1338 220.917 86.088 221.318 85.9964 221.699H77.928C77.8863 220.615 77.8863 219.529 77.928 218.445C77.994 216.669 78.0633 213.611 78.0633 213.611C78.0633 213.611 77.5187 212.426 77.654 211.442C77.7893 210.458 78.6044 210.256 78.809 210.256C78.809 210.256 80.8683 209.421 81.8583 210.846L83.2145 214.893Z" fill="#263238" stroke="#263238" stroke-linecap="round" stroke-linejoin="round"/>
<path d="M86.1317 220.514C86.1337 220.917 86.0879 221.318 85.9964 221.699H77.9279C77.9279 221.699 77.8916 220.97 77.8949 219.923H85.9436C86.0338 220.099 86.0978 220.3 86.1317 220.514Z" fill="white" stroke="#263238" stroke-linecap="round" stroke-linejoin="round"/>
<path d="M79.281 221.795L79.0797 218.344" stroke="#263238" stroke-linecap="round" stroke-linejoin="round"/>
<path d="M81.779 97.264C80.3963 95.344 79.7759 95.248 76.9346 93.5536C75.4926 92.6489 74.0055 91.9044 72.4862 91.3264C71.4764 91.1008 70.4666 90.8896 69.4535 90.6784C68.7077 90.52 67.9817 90.0928 67.2161 90.1984C65.6078 90.424 64.0115 90.8041 62.4377 91.336C60.9198 91.9155 59.4339 92.66 57.9926 93.5632C55.1513 95.2576 53.7653 95.3632 52.3826 97.2736C50.9999 99.184 42.542 113.08 42.6146 114.966C42.6872 116.853 44.7299 118.782 46.3304 117.846C47.9309 116.91 55.3691 104.92 55.3691 104.92C55.3691 104.92 59.24 117.933 59.24 120.582C59.24 123.232 58.877 124.187 58.7318 124.715C58.5866 125.243 55.6694 136.802 54.7949 141.995C53.9204 147.189 53.3363 156.198 53.63 161.286C53.8235 166.035 53.6241 170.8 53.036 175.48C52.3057 179.529 51.9386 183.698 51.9437 187.883C51.9437 194.123 52.1615 211.84 52.1615 212.262V214.84L55.8773 214.418L58.6493 194.488L62.9393 168.621L67.1666 146.258L67.4537 146.224L67.7408 146.258L71.9681 168.621L76.2581 194.488L79.04 214.398L82.7591 214.821V212.277C82.7591 211.854 82.9769 194.152 82.9769 187.898C82.985 183.708 82.6201 179.534 81.8912 175.48C81.3056 170.795 81.1095 166.025 81.3071 161.272C81.5975 156.184 81.0167 147.174 80.1389 141.981C79.2611 136.787 75.5849 125.234 75.4397 124.701C75.2945 124.168 74.9282 123.218 74.9282 120.568C74.9282 117.918 78.7925 104.92 78.7925 104.92C78.7925 104.92 86.9897 116.92 88.5935 117.851C90.1973 118.782 91.4711 116.891 91.547 114.971C91.6229 113.051 83.165 99.16 81.779 97.264Z" fill="white" stroke="#263238" stroke-linecap="round" stroke-linejoin="round"/>
<path d="M81.3072 161.286C81.5976 156.198 81.0168 147.189 80.139 141.995C79.2612 136.802 75.585 125.248 75.4398 124.715C75.387 124.523 75.3012 124.269 75.2187 123.894H58.9431C58.8573 124.269 58.7748 124.523 58.722 124.715C58.5768 125.248 55.6596 136.802 54.7851 141.995C53.9106 147.189 53.3265 156.198 53.6202 161.286C53.817 166.035 53.6209 170.8 53.0361 175.48C52.3058 179.529 51.9386 183.698 51.9438 187.883C51.9438 194.123 52.1616 211.84 52.1616 212.262V214.84L55.8774 214.418L58.6494 194.488L62.9394 168.621L67.1667 146.258L67.4538 146.224L67.7409 146.258L71.9682 168.621L76.2582 194.488L79.0401 214.398L82.7592 214.821V212.277C82.7592 211.854 82.977 194.152 82.977 187.898C82.9851 183.708 82.6202 179.534 81.8913 175.48C81.3065 170.8 81.1104 166.035 81.3072 161.286Z" fill="#08915C" stroke="#263238" stroke-linecap="round" stroke-linejoin="round"/>
<path d="M77.4065 109.749L73.43 106.84L71.549 91.1488L70.7933 90.9856L71.681 102.899H61.1936L62.0417 91.48C61.847 91.5568 61.5797 91.672 61.2431 91.8256L59.4446 106.84L56.666 109.456C57.326 111.856 58.1015 114.736 58.6262 117.03H75.5354C76.0337 114.803 76.763 112.067 77.4065 109.749Z" fill="#08915C" stroke="#263238" stroke-linecap="round" stroke-linejoin="round"/>
<path d="M78.7926 104.896L77.0601 102.506L78.093 106.854L78.7926 104.896Z" fill="#263238" stroke="#263238" stroke-linecap="round" stroke-linejoin="round"/>
<path d="M55.3691 104.896L56.8937 102.669L55.8806 106.854L55.3691 104.896Z" fill="#263238" stroke="#263238" stroke-linecap="round" stroke-linejoin="round"/>
<path d="M52.0691 203.747C52.1186 208.35 52.1615 212.085 52.1615 212.277V214.84L55.8773 214.418L57.359 203.766L52.0691 203.747Z" fill="white" stroke="#263238" stroke-linecap="round" stroke-linejoin="round"/>
<path d="M51.7953 214.893V212.92C51.7953 211.538 52.2045 209.762 53.9667 209.666C55.7289 209.57 55.9764 214.331 56.0556 214.821L51.7953 214.893Z" fill="#263238" stroke="#263238" stroke-linecap="round" stroke-linejoin="round"/>
<path d="M77.5386 203.55L79.0467 214.398L82.7658 214.821V212.277C82.7658 212.08 82.8087 208.245 82.8615 203.55H77.5386Z" fill="white" stroke="#263238" stroke-linecap="round" stroke-linejoin="round"/>
<path d="M83.3036 214.893V212.92C83.3036 211.538 82.8978 209.762 81.1356 209.666C79.3734 209.57 79.2909 214.466 79.2084 214.984L83.3036 214.893Z" fill="#263238" stroke="#263238" stroke-linecap="round" stroke-linejoin="round"/>
<path d="M55.8146 215.522H52.4024C52.3385 215.522 52.2772 215.485 52.2321 215.419C52.1869 215.353 52.1615 215.264 52.1615 215.171C52.1615 215.078 52.1869 214.989 52.2321 214.923C52.2772 214.858 52.3385 214.821 52.4024 214.821H55.8146C55.8785 214.821 55.9398 214.858 55.9849 214.923C56.0301 214.989 56.0555 215.078 56.0555 215.171C56.0555 215.264 56.0301 215.353 55.9849 215.419C55.9398 215.485 55.8785 215.522 55.8146 215.522Z" fill="white" stroke="#263238" stroke-width="0.5" stroke-linecap="round" stroke-linejoin="round"/>
<path d="M55.3823 216.333H51.98C51.9161 216.333 51.8549 216.296 51.8097 216.23C51.7645 216.164 51.7391 216.075 51.7391 215.982C51.7391 215.889 51.7645 215.8 51.8097 215.735C51.8549 215.669 51.9161 215.632 51.98 215.632H55.3922C55.4561 215.632 55.5174 215.669 55.5626 215.735C55.6078 215.8 55.6331 215.889 55.6331 215.982C55.6332 216.03 55.6266 216.076 55.6139 216.12C55.6012 216.163 55.5826 216.203 55.5591 216.235C55.5357 216.268 55.508 216.294 55.4776 216.31C55.4472 216.327 55.4148 216.335 55.3823 216.333Z" fill="white" stroke="#263238" stroke-width="0.5" stroke-linecap="round" stroke-linejoin="round"/>
<path d="M54.95 217.144H51.5378C51.4739 217.144 51.4126 217.107 51.3675 217.041C51.3223 216.976 51.2969 216.887 51.2969 216.794C51.2965 216.747 51.3024 216.702 51.3143 216.659C51.3263 216.616 51.344 216.577 51.3665 216.544C51.3889 216.512 51.4157 216.486 51.4451 216.469C51.4745 216.451 51.506 216.443 51.5378 216.443H54.95C55.0139 216.443 55.0752 216.48 55.1203 216.546C55.1655 216.612 55.1909 216.701 55.1909 216.794C55.1909 216.887 55.1655 216.976 55.1203 217.041C55.0752 217.107 55.0139 217.144 54.95 217.144Z" fill="white" stroke="#263238" stroke-width="0.5" stroke-linecap="round" stroke-linejoin="round"/>
<path d="M54.5144 217.955H51.1022C51.0383 217.955 50.9771 217.918 50.9319 217.853C50.8867 217.787 50.8613 217.698 50.8613 217.605C50.8613 217.512 50.8867 217.423 50.9319 217.357C50.9771 217.291 51.0383 217.254 51.1022 217.254H54.5144C54.5462 217.254 54.5777 217.262 54.6071 217.28C54.6366 217.297 54.6633 217.323 54.6858 217.356C54.7082 217.388 54.7259 217.427 54.7379 217.47C54.7498 217.513 54.7558 217.559 54.7553 217.605C54.7553 217.698 54.7299 217.787 54.6848 217.853C54.6396 217.918 54.5783 217.955 54.5144 217.955Z" fill="white" stroke="#263238" stroke-width="0.5" stroke-linecap="round" stroke-linejoin="round"/>
<path d="M79.3305 215.522H82.7427C82.8066 215.522 82.8679 215.485 82.913 215.419C82.9582 215.353 82.9836 215.264 82.9836 215.171C82.9836 215.078 82.9582 214.989 82.913 214.923C82.8679 214.858 82.8066 214.821 82.7427 214.821H79.3305C79.2666 214.821 79.2053 214.858 79.1602 214.923C79.115 214.989 79.0896 215.078 79.0896 215.171C79.0896 215.264 79.115 215.353 79.1602 215.419C79.2053 215.485 79.2666 215.522 79.3305 215.522Z" fill="white" stroke="#263238" stroke-width="0.5" stroke-linecap="round" stroke-linejoin="round"/>
<path d="M79.7628 216.333H83.1783C83.2421 216.333 83.3034 216.296 83.3486 216.23C83.3938 216.164 83.4192 216.075 83.4192 215.982C83.4192 215.889 83.3938 215.8 83.3486 215.735C83.3034 215.669 83.2421 215.632 83.1783 215.632H79.7628C79.7311 215.632 79.6998 215.641 79.6706 215.659C79.6413 215.676 79.6148 215.702 79.5924 215.735C79.57 215.767 79.5523 215.806 79.5402 215.848C79.5281 215.891 79.5219 215.936 79.5219 215.982C79.5219 216.028 79.5281 216.074 79.5402 216.116C79.5523 216.159 79.57 216.198 79.5924 216.23C79.6148 216.263 79.6413 216.288 79.6706 216.306C79.6998 216.324 79.7311 216.333 79.7628 216.333Z" fill="white" stroke="#263238" stroke-width="0.5" stroke-linecap="round" stroke-linejoin="round"/>
<path d="M80.1983 217.144H83.6105C83.6744 217.144 83.7357 217.107 83.7809 217.041C83.826 216.976 83.8514 216.887 83.8514 216.794C83.8514 216.701 83.826 216.612 83.7809 216.546C83.7357 216.48 83.6744 216.443 83.6105 216.443H80.1983C80.1666 216.443 80.135 216.451 80.1056 216.469C80.0762 216.486 80.0494 216.512 80.027 216.544C80.0045 216.577 79.9868 216.616 79.9749 216.659C79.9629 216.702 79.957 216.747 79.9574 216.794C79.9574 216.887 79.9828 216.976 80.028 217.041C80.0732 217.107 80.1344 217.144 80.1983 217.144Z" fill="white" stroke="#263238" stroke-width="0.5" stroke-linecap="round" stroke-linejoin="round"/>
<path d="M80.6307 217.955H84.0429C84.1068 217.955 84.168 217.918 84.2132 217.853C84.2584 217.787 84.2838 217.698 84.2838 217.605C84.2842 217.559 84.2783 217.513 84.2664 217.47C84.2544 217.427 84.2367 217.388 84.2142 217.356C84.1918 217.323 84.165 217.297 84.1356 217.28C84.1062 217.262 84.0746 217.254 84.0429 217.254H80.6307C80.5668 217.254 80.5055 217.291 80.4603 217.357C80.4151 217.423 80.3898 217.512 80.3898 217.605C80.3898 217.698 80.4151 217.787 80.4603 217.853C80.5055 217.918 80.5668 217.955 80.6307 217.955Z" fill="white" stroke="#263238" stroke-width="0.5" stroke-linecap="round" stroke-linejoin="round"/>
<path d="M46.3502 111.99C46.3502 111.99 54.5672 121.298 55.9829 122.67C57.3986 124.043 58.811 124.336 58.8803 125.022C58.9496 125.709 59.2829 126.885 58.9463 127.667C58.6097 128.45 57.8012 131.195 57.3293 131.507C56.8574 131.819 55.511 132.093 55.1744 131.8C54.8378 131.507 55.445 130.922 55.6463 130.84C55.8462 130.759 56.0489 130.693 56.2535 130.643C55.6459 129.922 55.1222 129.063 54.7025 128.099C54.3508 127.057 54.0583 125.975 53.828 124.864C53.828 124.864 46.4855 121.144 44.588 119.478C42.6906 117.813 41.8919 116.243 42.8357 113.992" fill="white"/>
<path d="M46.3502 111.99C46.3502 111.99 54.5672 121.298 55.9829 122.67C57.3986 124.043 58.811 124.336 58.8803 125.022C58.9496 125.709 59.2829 126.885 58.9463 127.667C58.6097 128.45 57.8012 131.195 57.3293 131.507C56.8574 131.819 55.511 132.093 55.1744 131.8C54.8378 131.507 55.445 130.922 55.6463 130.84C55.8462 130.759 56.0489 130.693 56.2535 130.643C55.6459 129.922 55.1222 129.063 54.7025 128.099C54.3508 127.057 54.0583 125.975 53.828 124.864C53.828 124.864 46.4855 121.144 44.588 119.478C42.6906 117.813 41.8919 116.243 42.8357 113.992" stroke="#263238" stroke-linecap="round" stroke-linejoin="round"/>
<path d="M90.8046 117.285C91.1528 116.789 91.3681 116.128 91.4118 115.422C91.4778 114.246 91.3425 111.582 90.6033 107.978C89.8641 104.373 85.1484 88.8736 85.1484 88.48C85.1484 88.0864 85.8084 84.856 85.4784 83.0896C85.1484 81.3232 83.9967 78.6832 83.9967 78.6832L80.1621 80.248C80.1621 80.248 80.634 86.032 81.6438 87.304C82.6536 88.576 83.3301 91.144 83.7327 93.28C84.1353 95.416 84.8118 102.002 85.2804 106.014C85.5295 108.683 86.1493 111.25 87.102 113.56" fill="white"/>
<path d="M90.8046 117.285C91.1528 116.789 91.3681 116.128 91.4118 115.422C91.4778 114.246 91.3425 111.582 90.6033 107.978C89.8641 104.373 85.1484 88.8736 85.1484 88.48C85.1484 88.0864 85.8084 84.856 85.4784 83.0896C85.1484 81.3232 83.9967 78.6832 83.9967 78.6832L80.1621 80.248C80.1621 80.248 80.634 86.032 81.6438 87.304C82.6536 88.576 83.3301 91.144 83.7327 93.28C84.1353 95.416 84.8118 102.002 85.2804 106.014C85.5295 108.683 86.1493 111.25 87.102 113.56" stroke="#263238" stroke-linecap="round" stroke-linejoin="round"/>
<path d="M85.2473 78.7168L83.594 83.9968L75.4232 79.9456L77.7893 72.4L85.2473 78.7168Z" fill="white" stroke="#263238" stroke-linecap="round" stroke-linejoin="round"/>
<path d="M75.7169 79.9552L80.0267 75.0592L84.8117 78.88L83.462 83.3872L75.7169 79.9552Z" fill="#08915C"/>
<path d="M83.0594 89.656C83.0594 89.656 81.1058 88.0864 80.6339 87.304C80.162 86.5216 79.9739 84.6592 79.8254 82.984C79.6527 81.6285 79.3587 80.3117 78.9509 79.0672C78.9509 79.0672 79.2809 78.3808 80.0267 79.1632C80.7725 79.9456 81.1058 82.5904 81.1058 82.5904C81.1058 82.5904 82.9241 83.9632 83.1947 85.6288" fill="white"/>
<path d="M83.0594 89.656C83.0594 89.656 81.1058 88.0864 80.6339 87.304C80.162 86.5216 79.9739 84.6592 79.8254 82.984C79.6527 81.6285 79.3587 80.3117 78.9509 79.0672C78.9509 79.0672 79.2809 78.3808 80.0267 79.1632C80.7725 79.9456 81.1058 82.5904 81.1058 82.5904C81.1058 82.5904 82.9241 83.9632 83.1947 85.6288" stroke="#263238" stroke-linecap="round" stroke-linejoin="round"/>
<path d="M60.4709 65.992C58.7952 64.2972 56.9158 63.0744 54.9302 62.3872C51.8711 61.4272 48.4457 67.8976 47.8616 73.9408C47.2775 79.984 46.7693 90.904 46.7693 90.904H55.8773C55.8773 90.904 54.3494 74.2576 55.3691 69.2752C56.3888 64.2928 60.032 66.8368 60.032 66.8368L60.4709 65.992Z" fill="#263238" stroke="#263238" stroke-linecap="round" stroke-linejoin="round"/>
<path d="M70.6745 63.5536C70.6745 63.5536 73.5158 58.888 74.5355 61.96C75.5552 65.032 74.3177 68.4304 73.298 69.4864C72.2783 70.5424 72.0572 70.0192 71.912 69.3808C71.7668 68.7424 70.0178 64.1872 70.0178 64.1872L70.6745 63.5536Z" fill="#263238" stroke="#263238" stroke-linecap="round" stroke-linejoin="round"/>
<path d="M64.0415 86.9776C64.0415 86.9776 61.55 87.7216 60.2498 90.04C58.9496 92.3584 59.0849 98.8384 59.0849 101.08V108.074L63.6026 108.179C63.6026 108.179 63.0218 98.7472 62.9426 96.4144C62.8634 94.0816 63.0153 90.5824 63.2331 89.5216C63.45 88.6403 63.7205 87.7889 64.0415 86.9776Z" fill="white" stroke="#263238" stroke-linecap="round" stroke-linejoin="round"/>
<path d="M69.2886 87.1936C69.2886 87.1936 72.4962 88.6768 73.2255 92.0656C73.9548 95.4544 74.3904 103.73 74.5455 105.741C74.7006 107.752 74.7633 108.496 74.7633 108.496C74.7633 108.496 73.0143 109.346 72.0672 109.346C71.4573 109.339 70.8485 109.269 70.2456 109.134C70.2456 109.134 70.3908 97.4752 69.9552 94.1872C69.7486 92.4973 69.4563 90.8319 69.0807 89.2048C69.0807 89.2048 69.216 87.64 69.2886 87.1936Z" fill="white" stroke="#263238" stroke-linecap="round" stroke-linejoin="round"/>
<path d="M63.1671 95.0368C63.1671 95.0368 62.6556 93.6592 63.0219 90.5824C63.3882 87.5056 63.1671 83.056 63.1671 83.056H61.2729C60.1773 83.056 57.7749 81.6784 57.4812 79.1344C57.1875 76.5904 57.5538 68.2144 61.1277 64.0816C64.7016 59.9488 69.0708 62.1616 69.0708 62.1616C69.6351 62.4748 70.1475 62.9579 70.5746 63.5791C71.0016 64.2003 71.3337 64.9456 71.5491 65.7664C72.3477 68.6464 73.8789 72.4432 74.3178 72.4432C74.7567 72.4432 75.9942 72.4432 75.7731 73.9264C75.684 74.7241 75.4309 75.4638 75.0471 76.048C75.0471 76.048 74.9745 81.0304 74.9745 82.5136C74.9745 83.9968 74.3145 84.208 72.6414 84.4336C72.2782 84.479 71.9136 84.4967 71.5491 84.4864C71.1537 84.6734 70.7917 84.9857 70.4893 85.4007C70.1869 85.8157 69.9515 86.3231 69.8001 86.8864C69.2886 88.8064 69.8727 95.1568 69.8727 95.1568" fill="white"/>
<path d="M63.1671 95.0368C63.1671 95.0368 62.6556 93.6592 63.0219 90.5824C63.3882 87.5056 63.1671 83.056 63.1671 83.056H61.2729C60.1773 83.056 57.7749 81.6784 57.4812 79.1344C57.1875 76.5904 57.5538 68.2144 61.1277 64.0816C64.7016 59.9488 69.0708 62.1616 69.0708 62.1616C69.6351 62.4748 70.1475 62.9579 70.5746 63.5791C71.0016 64.2003 71.3337 64.9456 71.5491 65.7664C72.3477 68.6464 73.8789 72.4432 74.3178 72.4432C74.7567 72.4432 75.9942 72.4432 75.7731 73.9264C75.684 74.7241 75.4309 75.4638 75.0471 76.048C75.0471 76.048 74.9745 81.0304 74.9745 82.5136C74.9745 83.9968 74.3145 84.208 72.6414 84.4336C72.2782 84.479 71.9136 84.4967 71.5491 84.4864C71.1537 84.6734 70.7917 84.9857 70.4893 85.4007C70.1869 85.8157 69.9515 86.3231 69.8001 86.8864C69.2886 88.8064 69.8727 95.1568 69.8727 95.1568" stroke="#263238" stroke-linecap="round" stroke-linejoin="round"/>
<path d="M71.549 84.4864C69.7797 84.4487 68.0286 83.9614 66.3746 83.0464L70.0937 85.6768L71.549 84.4864Z" fill="#263238" stroke="#263238" stroke-linecap="round" stroke-linejoin="round"/>
<path d="M71.6942 70.6528L72.4961 72.88" stroke="#263238" stroke-linecap="round" stroke-linejoin="round"/>
<path d="M73.0769 72.6688C72.614 73.282 72.0245 73.655 71.4005 73.7296" stroke="#263238" stroke-linecap="round" stroke-linejoin="round"/>
<path d="M71.549 68.8528C71.549 68.8528 70.8197 67.5808 70.163 68.7472C69.5063 69.9136 69.5789 70.5472 69.5789 70.5472" stroke="#263238" stroke-linecap="round" stroke-linejoin="round"/>
<path d="M69.0707 62.2C69.0707 62.2 64.6982 59.9728 61.1276 64.12C57.557 68.2672 57.1907 76.6 57.4811 79.1344C57.7715 81.6688 60.1772 83.056 61.2728 83.056H63.1505L64.5497 82.2112C63.0218 82.528 60.8339 79.8784 61.2728 77.6512C61.7117 75.424 63.9128 76.5904 64.5497 77.5456C65.1866 78.5008 65.7179 77.44 66.4472 75.6256C67.1765 73.8112 66.2987 72.3424 66.2987 70.6432C66.2987 68.944 68.8496 65.8768 70.3808 65.7712C70.7493 65.7792 71.1151 65.6796 71.4566 65.4784C70.9915 63.9688 70.1334 62.7896 69.0707 62.2Z" fill="#263238" stroke="#263238" stroke-linecap="round" stroke-linejoin="round"/>
<path d="M83.6897 25.24L79.9343 30.2848L81.4556 37.3792L76.466 39.0112L75.3473 46.264L70.4666 44.056L66.9983 49.5136L63.5333 44.056L58.6526 46.264L57.5339 39.0112L52.5443 37.3792L54.0656 30.2848L50.3102 25.24L54.0656 20.1952L52.5443 13.1008L57.5339 11.4688L58.6526 4.216L63.5333 6.424L66.9983 0.9664L70.4666 6.424L75.3473 4.216L76.466 11.4688L81.4556 13.1008L79.9343 20.1952L83.6897 25.24Z" stroke="#263238" stroke-linecap="round" stroke-linejoin="round"/>
<path d="M66.9983 42.5632C73.5759 42.5632 78.908 34.8073 78.908 25.24C78.908 15.6727 73.5759 7.9168 66.9983 7.9168C60.4208 7.9168 55.0886 15.6727 55.0886 25.24C55.0886 34.8073 60.4208 42.5632 66.9983 42.5632Z" stroke="#263238" stroke-linecap="round" stroke-linejoin="round"/>
<path d="M127.095 105.285C127.095 105.285 127.131 99.2128 122.996 94.7776C118.861 90.3424 114.657 89.6128 111.34 93.184C108.024 96.7552 106.1 100.638 106.519 106.216C106.938 111.794 109.664 117.827 112.888 120.89C116.112 123.952 121.27 123.578 123.94 119.397C126.609 115.216 127.662 111.069 127.095 105.285Z" stroke="#263238" stroke-linecap="round" stroke-linejoin="round"/>
<path d="M126.586 105.357C126.586 105.357 126.623 99.5968 122.696 95.3824C118.769 91.168 114.776 90.4768 111.631 93.8704C108.486 97.264 106.681 100.95 107.05 106.245C107.42 111.539 110.037 117.285 113.099 120.165C116.162 123.045 121.059 122.718 123.593 118.725C126.128 114.731 127.128 110.853 126.586 105.357Z" stroke="#263238" stroke-linecap="round" stroke-linejoin="round"/>
<path d="M117.327 95.584L116.865 100.624" stroke="#263238" stroke-linecap="round" stroke-linejoin="round"/>
<path d="M115.465 96.5296L116.092 99.928" stroke="#263238" stroke-linecap="round" stroke-linejoin="round"/>
<path d="M113.796 96.9952L115.281 100.619" stroke="#263238" stroke-linecap="round" stroke-linejoin="round"/>
<path d="M112.568 97.8784C112.736 98.0944 114.838 101.354 114.838 101.354" stroke="#263238" stroke-linecap="round" stroke-linejoin="round"/>
<path d="M112 99.3136L114.036 102.347" stroke="#263238" stroke-linecap="round" stroke-linejoin="round"/>
<path d="M113.819 103.37L111.443 101.056" stroke="#263238" stroke-linecap="round" stroke-linejoin="round"/>
<path d="M113.69 104.07L111.182 102.314" stroke="#263238" stroke-linecap="round" stroke-linejoin="round"/>
<path d="M113.409 104.867L110.74 104.195" stroke="#263238" stroke-linecap="round" stroke-linejoin="round"/>
<path d="M114.083 105.726L111.142 106.154" stroke="#263238" stroke-linecap="round" stroke-linejoin="round"/>
<path d="M114.004 106.346L111.38 107.901" stroke="#263238" stroke-linecap="round" stroke-linejoin="round"/>
<path d="M114.528 107.45L111.954 108.923" stroke="#263238" stroke-linecap="round" stroke-linejoin="round"/>
<path d="M114.786 108.501L111.981 110.685" stroke="#263238" stroke-linecap="round" stroke-linejoin="round"/>
<path d="M115.086 109.317L112.35 111.88" stroke="#263238" stroke-linecap="round" stroke-linejoin="round"/>
<path d="M115.29 110.296L113.099 113.267" stroke="#263238" stroke-linecap="round" stroke-linejoin="round"/>
<path d="M115.99 110.613L114.858 114.794" stroke="#263238" stroke-linecap="round" stroke-linejoin="round"/>
<path d="M116.782 110.613L116.033 115.139" stroke="#263238" stroke-linecap="round" stroke-linejoin="round"/>
<path d="M117.601 111.227L117.498 116.003" stroke="#263238" stroke-linecap="round" stroke-linejoin="round"/>
<path d="M118.561 111.443L119.679 116.334" stroke="#263238" stroke-linecap="round" stroke-linejoin="round"/>
<path d="M119.326 110.834L121.567 114.846" stroke="#263238" stroke-linecap="round" stroke-linejoin="round"/>
<path d="M120.042 110.306L123.012 114.098" stroke="#263238" stroke-linecap="round" stroke-linejoin="round"/>
<path d="M120.254 109.134L124.191 112.144" stroke="#263238" stroke-linecap="round" stroke-linejoin="round"/>
<path d="M120.689 108.246L123.976 109.706" stroke="#263238" stroke-linecap="round" stroke-linejoin="round"/>
<path d="M120.277 107.291L123.25 106.47" stroke="#263238" stroke-linecap="round" stroke-linejoin="round"/>
<path d="M120.287 106.288L123.273 104.622" stroke="#263238" stroke-linecap="round" stroke-linejoin="round"/>
<path d="M122.884 102.971L119.514 105.592" stroke="#263238" stroke-linecap="round" stroke-linejoin="round"/>
<path d="M122.583 101.003L119.825 104.258" stroke="#263238" stroke-linecap="round" stroke-linejoin="round"/>
<path d="M121.739 99.7792L119.828 103.106" stroke="#263238" stroke-linecap="round" stroke-linejoin="round"/>
<path d="M120.877 98.2432L119.125 102.789" stroke="#263238" stroke-linecap="round" stroke-linejoin="round"/>
<path d="M119.775 98.4256L118.719 101.982" stroke="#263238" stroke-linecap="round" stroke-linejoin="round"/>
<path d="M119 97.576L118.175 101.574" stroke="#263238" stroke-linecap="round" stroke-linejoin="round"/>
<path d="M118.34 97.024L117.495 101.714" stroke="#263238" stroke-linecap="round" stroke-linejoin="round"/>
<path d="M114.451 103.619C114.586 103.317 114.527 102.913 114.319 102.716C114.111 102.52 113.833 102.606 113.698 102.908C113.563 103.211 113.622 103.615 113.83 103.811C114.038 104.008 114.316 103.922 114.451 103.619Z" fill="#263238"/>
<path d="M114.838 101.354C114.78 101.451 114.703 101.521 114.617 101.554C114.532 101.588 114.441 101.584 114.357 101.543C114.273 101.501 114.199 101.425 114.145 101.322C114.091 101.22 114.059 101.097 114.053 100.968C114.047 100.839 114.067 100.711 114.111 100.599C114.155 100.487 114.221 100.397 114.301 100.339C114.38 100.282 114.47 100.26 114.558 100.277C114.646 100.293 114.729 100.347 114.795 100.432C114.884 100.547 114.939 100.708 114.947 100.88C114.955 101.052 114.916 101.223 114.838 101.354Z" fill="#263238"/>
<path d="M116.429 100.355C116.37 100.453 116.293 100.523 116.207 100.556C116.122 100.59 116.031 100.586 115.947 100.544C115.862 100.502 115.788 100.425 115.734 100.323C115.68 100.22 115.649 100.096 115.643 99.9668C115.637 99.8377 115.658 99.7091 115.703 99.5973C115.748 99.4855 115.814 99.3955 115.894 99.3389C115.974 99.2823 116.064 99.2615 116.152 99.2792C116.24 99.2969 116.323 99.3523 116.389 99.4384C116.478 99.5528 116.531 99.7133 116.539 99.885C116.546 100.057 116.507 100.226 116.429 100.355Z" fill="#263238"/>
<path d="M118.511 102.002C118.453 102.099 118.376 102.17 118.29 102.204C118.205 102.238 118.114 102.235 118.029 102.194C117.945 102.153 117.871 102.076 117.817 101.974C117.762 101.872 117.73 101.748 117.724 101.619C117.718 101.49 117.738 101.361 117.783 101.249C117.827 101.137 117.893 101.047 117.973 100.989C118.053 100.932 118.143 100.911 118.231 100.928C118.319 100.945 118.402 100.999 118.468 101.085C118.556 101.199 118.61 101.359 118.618 101.531C118.626 101.702 118.588 101.871 118.511 102.002Z" fill="#263238"/>
<path d="M120.409 101.978C120.35 102.073 120.274 102.142 120.189 102.175C120.104 102.207 120.014 102.202 119.931 102.161C119.847 102.119 119.774 102.042 119.721 101.941C119.668 101.839 119.636 101.716 119.631 101.588C119.625 101.461 119.646 101.333 119.69 101.223C119.734 101.112 119.8 101.023 119.879 100.966C119.958 100.91 120.047 100.889 120.134 100.905C120.221 100.922 120.303 100.976 120.369 101.061C120.413 101.117 120.449 101.186 120.475 101.262C120.501 101.339 120.516 101.422 120.52 101.507C120.524 101.592 120.516 101.678 120.497 101.759C120.478 101.839 120.448 101.914 120.409 101.978Z" fill="#263238"/>
<path d="M120.072 103.85C120.014 103.946 119.938 104.015 119.853 104.048C119.768 104.081 119.678 104.077 119.595 104.036C119.511 103.995 119.438 103.919 119.384 103.818C119.331 103.716 119.299 103.594 119.293 103.466C119.287 103.339 119.307 103.211 119.351 103.1C119.394 102.989 119.46 102.899 119.539 102.842C119.617 102.785 119.706 102.763 119.793 102.779C119.881 102.796 119.963 102.849 120.029 102.933C120.118 103.047 120.172 103.207 120.18 103.378C120.188 103.55 120.149 103.719 120.072 103.85Z" fill="#263238"/>
<path d="M120.425 105.88C120.367 105.975 120.29 106.043 120.205 106.075C120.12 106.107 120.03 106.102 119.947 106.06C119.864 106.018 119.792 105.941 119.739 105.84C119.686 105.738 119.654 105.615 119.649 105.488C119.643 105.361 119.664 105.233 119.708 105.123C119.752 105.012 119.817 104.923 119.896 104.867C119.975 104.81 120.063 104.789 120.15 104.805C120.237 104.821 120.319 104.875 120.386 104.958C120.43 105.015 120.466 105.084 120.492 105.161C120.518 105.238 120.533 105.322 120.537 105.407C120.54 105.493 120.532 105.579 120.513 105.66C120.494 105.741 120.464 105.816 120.425 105.88Z" fill="#263238"/>
<path d="M121.013 108.371C120.955 108.469 120.878 108.54 120.792 108.574C120.706 108.608 120.615 108.604 120.531 108.563C120.447 108.522 120.373 108.446 120.318 108.344C120.264 108.241 120.231 108.118 120.225 107.989C120.219 107.86 120.24 107.731 120.284 107.619C120.329 107.507 120.395 107.416 120.475 107.359C120.554 107.302 120.644 107.28 120.732 107.297C120.82 107.314 120.903 107.369 120.97 107.454C121.014 107.51 121.05 107.579 121.077 107.655C121.103 107.731 121.118 107.815 121.122 107.9C121.126 107.985 121.119 108.071 121.1 108.151C121.081 108.232 121.051 108.307 121.013 108.371Z" fill="#263238"/>
<path d="M120.95 110.45C120.892 110.545 120.815 110.614 120.73 110.647C120.645 110.679 120.555 110.674 120.472 110.633C120.388 110.591 120.316 110.514 120.262 110.413C120.209 110.311 120.177 110.188 120.172 110.061C120.166 109.933 120.187 109.805 120.231 109.695C120.275 109.584 120.341 109.495 120.42 109.438C120.499 109.382 120.588 109.361 120.675 109.378C120.762 109.394 120.844 109.448 120.91 109.533C120.954 109.589 120.99 109.658 121.016 109.734C121.042 109.811 121.057 109.894 121.061 109.979C121.065 110.064 121.057 110.15 121.038 110.231C121.019 110.311 120.989 110.386 120.95 110.45Z" fill="#263238"/>
<path d="M120.019 112.154C119.961 112.251 119.884 112.321 119.798 112.355C119.712 112.388 119.621 112.384 119.537 112.342C119.453 112.301 119.379 112.224 119.325 112.121C119.271 112.018 119.239 111.894 119.233 111.765C119.228 111.636 119.249 111.507 119.293 111.396C119.338 111.284 119.405 111.194 119.485 111.137C119.565 111.081 119.655 111.06 119.743 111.078C119.831 111.095 119.913 111.151 119.98 111.237C120.024 111.293 120.06 111.362 120.086 111.438C120.112 111.515 120.127 111.598 120.131 111.683C120.134 111.768 120.126 111.854 120.107 111.935C120.088 112.015 120.058 112.09 120.019 112.154Z" fill="#263238"/>
<path d="M119.016 113.325C118.958 113.422 118.881 113.492 118.795 113.525C118.71 113.559 118.619 113.555 118.535 113.514C118.451 113.472 118.377 113.396 118.323 113.294C118.269 113.191 118.237 113.068 118.231 112.939C118.225 112.81 118.245 112.682 118.289 112.57C118.333 112.458 118.399 112.368 118.479 112.31C118.558 112.253 118.648 112.231 118.736 112.248C118.824 112.264 118.906 112.318 118.973 112.403C119.018 112.46 119.054 112.528 119.08 112.605C119.107 112.682 119.122 112.765 119.126 112.851C119.13 112.937 119.122 113.023 119.104 113.104C119.085 113.185 119.055 113.26 119.016 113.325Z" fill="#263238"/>
<path d="M117.894 113.046C117.835 113.143 117.758 113.212 117.672 113.245C117.587 113.279 117.496 113.274 117.412 113.232C117.328 113.19 117.255 113.113 117.201 113.01C117.147 112.908 117.115 112.784 117.11 112.655C117.104 112.526 117.125 112.398 117.17 112.286C117.214 112.175 117.281 112.085 117.36 112.028C117.44 111.971 117.53 111.95 117.618 111.967C117.706 111.985 117.788 112.039 117.855 112.125C117.899 112.182 117.935 112.25 117.961 112.327C117.987 112.404 118.002 112.488 118.006 112.574C118.009 112.659 118.001 112.745 117.982 112.826C117.963 112.907 117.933 112.982 117.894 113.046Z" fill="#263238"/>
<path d="M116.828 112.84C116.77 112.935 116.693 113.003 116.608 113.035C116.523 113.067 116.433 113.062 116.35 113.02C116.267 112.978 116.195 112.901 116.142 112.8C116.089 112.698 116.057 112.575 116.052 112.448C116.046 112.321 116.067 112.194 116.111 112.083C116.155 111.972 116.22 111.883 116.299 111.827C116.378 111.77 116.466 111.749 116.554 111.765C116.641 111.781 116.722 111.835 116.789 111.918C116.833 111.975 116.869 112.044 116.895 112.121C116.921 112.198 116.936 112.282 116.94 112.367C116.944 112.453 116.936 112.539 116.916 112.62C116.897 112.701 116.867 112.776 116.828 112.84Z" fill="#263238"/>
<path d="M114.776 111.803C114.717 111.901 114.64 111.971 114.554 112.004C114.468 112.038 114.377 112.034 114.293 111.992C114.209 111.95 114.135 111.873 114.081 111.771C114.027 111.668 113.995 111.544 113.99 111.415C113.984 111.286 114.005 111.157 114.05 111.045C114.095 110.933 114.161 110.844 114.241 110.787C114.321 110.73 114.411 110.71 114.499 110.727C114.587 110.745 114.67 110.8 114.736 110.886C114.78 110.943 114.816 111.011 114.842 111.088C114.868 111.164 114.883 111.248 114.887 111.333C114.891 111.418 114.883 111.503 114.864 111.584C114.844 111.665 114.815 111.739 114.776 111.803Z" fill="#263238"/>
<path d="M115.01 109.787C114.952 109.884 114.875 109.954 114.789 109.988C114.703 110.021 114.613 110.017 114.529 109.976C114.445 109.935 114.371 109.858 114.317 109.756C114.262 109.654 114.23 109.53 114.224 109.402C114.218 109.273 114.239 109.144 114.283 109.032C114.327 108.921 114.393 108.83 114.473 108.773C114.552 108.715 114.641 108.694 114.73 108.71C114.818 108.727 114.9 108.781 114.967 108.866C115.012 108.922 115.048 108.991 115.074 109.067C115.1 109.144 115.116 109.228 115.12 109.313C115.124 109.399 115.116 109.485 115.097 109.566C115.078 109.648 115.049 109.723 115.01 109.787Z" fill="#263238"/>
<path d="M114.046 107.262C113.987 107.359 113.91 107.427 113.824 107.459C113.738 107.491 113.648 107.485 113.564 107.441C113.481 107.398 113.408 107.319 113.355 107.215C113.303 107.112 113.273 106.987 113.269 106.859C113.265 106.73 113.288 106.602 113.334 106.492C113.381 106.382 113.448 106.295 113.529 106.241C113.61 106.188 113.699 106.171 113.787 106.192C113.874 106.213 113.955 106.271 114.02 106.36C114.103 106.476 114.153 106.635 114.158 106.804C114.163 106.972 114.123 107.136 114.046 107.262Z" fill="#263238"/>
<path d="M112.984 104.752C112.926 104.85 112.849 104.92 112.763 104.955C112.677 104.989 112.586 104.985 112.502 104.944C112.418 104.903 112.344 104.827 112.289 104.724C112.235 104.622 112.203 104.499 112.196 104.369C112.19 104.24 112.211 104.112 112.255 103.999C112.3 103.887 112.366 103.797 112.446 103.74C112.525 103.682 112.615 103.661 112.703 103.678C112.791 103.695 112.874 103.75 112.941 103.835C113.029 103.95 113.083 104.11 113.091 104.281C113.099 104.452 113.06 104.621 112.984 104.752Z" fill="#263238"/>
<path d="M119.125 102.789C119.067 102.885 118.99 102.953 118.905 102.986C118.82 103.018 118.73 103.013 118.647 102.972C118.564 102.93 118.491 102.854 118.437 102.752C118.384 102.65 118.353 102.527 118.347 102.4C118.342 102.272 118.362 102.145 118.406 102.034C118.451 101.923 118.516 101.834 118.595 101.777C118.674 101.721 118.763 101.7 118.85 101.717C118.937 101.734 119.019 101.788 119.086 101.872C119.174 101.986 119.228 102.147 119.235 102.319C119.242 102.49 119.203 102.659 119.125 102.789Z" fill="#263238"/>
<path d="M115.208 102.544C115.15 102.64 115.074 102.709 114.989 102.742C114.904 102.776 114.814 102.771 114.73 102.73C114.647 102.689 114.574 102.613 114.52 102.512C114.466 102.411 114.435 102.288 114.429 102.161C114.423 102.033 114.443 101.905 114.487 101.794C114.53 101.683 114.596 101.594 114.675 101.537C114.753 101.48 114.842 101.458 114.929 101.474C115.017 101.49 115.099 101.543 115.165 101.627C115.209 101.683 115.246 101.751 115.272 101.828C115.298 101.904 115.314 101.987 115.318 102.073C115.322 102.158 115.314 102.243 115.295 102.324C115.276 102.405 115.247 102.48 115.208 102.544Z" fill="#263238"/>
<path d="M106.836 70.3264C112.989 70.3264 117.977 63.0713 117.977 54.1216C117.977 45.1719 112.989 37.9168 106.836 37.9168C100.683 37.9168 95.6951 45.1719 95.6951 54.1216C95.6951 63.0713 100.683 70.3264 106.836 70.3264Z" stroke="#263238" stroke-linecap="round" stroke-linejoin="round"/>
<path d="M106.836 69.0832C112.517 69.0832 117.122 62.3847 117.122 54.1216C117.122 45.8585 112.517 39.16 106.836 39.16C101.155 39.16 96.5498 45.8585 96.5498 54.1216C96.5498 62.3847 101.155 69.0832 106.836 69.0832Z" stroke="#263238" stroke-linecap="round" stroke-linejoin="round"/>
<path d="M105.285 42.7408L106.536 52.4272C106.546 52.5196 106.538 52.6146 106.513 52.7004C106.487 52.7862 106.444 52.8592 106.39 52.9102C106.336 52.9613 106.273 52.9882 106.208 52.9876C106.144 52.9871 106.081 52.9591 106.027 52.9072L100.292 47.32C100.098 47.1249 99.94 46.8632 99.832 46.558C99.724 46.2529 99.6694 45.9138 99.673 45.5707C99.6766 45.2276 99.7383 44.891 99.8526 44.5908C99.9669 44.2907 100.13 44.0361 100.328 43.8496L103.097 41.4496C103.291 41.2656 103.513 41.1527 103.744 41.1205C103.975 41.0883 104.208 41.1376 104.423 41.2645C104.638 41.3913 104.828 41.5917 104.978 41.8488C105.128 42.1058 105.234 42.4119 105.285 42.7408Z" stroke="#263238" stroke-linecap="round" stroke-linejoin="round"/>
<path d="M100.209 47.6704L105.8 53.2336C105.854 53.2868 105.896 53.3621 105.92 53.4499C105.945 53.5378 105.951 53.6343 105.938 53.7273C105.925 53.8203 105.893 53.9055 105.847 53.9723C105.8 54.0391 105.742 54.0843 105.677 54.1024L98.9026 56.0224C98.6715 56.0797 98.4343 56.0539 98.2116 55.9474C97.9889 55.8409 97.7874 55.6569 97.6248 55.4113C97.4621 55.1657 97.3432 54.8661 97.2783 54.5384C97.2135 54.2107 97.2046 53.865 97.2526 53.5312L98.0347 48.9712C98.0859 48.6444 98.1904 48.3403 98.3393 48.0844C98.4882 47.8286 98.6771 47.6285 98.8903 47.501C99.1034 47.3735 99.3345 47.3223 99.564 47.3518C99.7936 47.3813 100.015 47.4906 100.209 47.6704V47.6704Z" stroke="#263238" stroke-linecap="round" stroke-linejoin="round"/>
<path d="M99.0148 56.3728L105.671 54.5584C105.734 54.5427 105.8 54.5544 105.859 54.592C105.918 54.6296 105.968 54.6916 106.003 54.7702C106.038 54.8488 106.057 54.9406 106.056 55.0343C106.056 55.1281 106.037 55.2196 106.001 55.2976L102.163 63.64C102.028 63.9223 101.848 64.152 101.638 64.309C101.428 64.466 101.195 64.5454 100.959 64.5402C100.723 64.5349 100.491 64.4453 100.284 64.2791C100.078 64.1129 99.9024 63.8753 99.7738 63.5872L98.1238 59.56C97.9966 59.2769 97.9185 58.9531 97.8962 58.6165C97.8738 58.2798 97.9079 57.9403 97.9955 57.627C98.0831 57.3137 98.2216 57.0359 98.3991 56.8175C98.5766 56.5991 98.7879 56.4465 99.0148 56.3728V56.3728Z" stroke="#263238" stroke-linecap="round" stroke-linejoin="round"/>
<path d="M102.401 63.76L106.225 55.6288C106.262 55.5502 106.314 55.4891 106.374 55.4533C106.435 55.4175 106.501 55.4085 106.565 55.4275C106.629 55.4465 106.687 55.4926 106.733 55.5601C106.779 55.6275 106.81 55.7132 106.823 55.8064L108.159 65.6608C108.199 65.9972 108.182 66.3427 108.109 66.6672C108.036 66.9917 107.91 67.2853 107.741 67.5221C107.572 67.759 107.365 67.932 107.14 68.0259C106.914 68.1198 106.676 68.1318 106.446 68.0608L103.311 66.928C103.085 66.8569 102.873 66.7071 102.695 66.4915C102.517 66.2759 102.377 66.0008 102.288 65.6897C102.198 65.3786 102.162 65.0407 102.181 64.7047C102.201 64.3687 102.276 64.0446 102.401 63.76V63.76Z" stroke="#263238" stroke-linecap="round" stroke-linejoin="round"/>
<path d="M108.387 65.4976L107.136 55.8112C107.125 55.7181 107.133 55.6221 107.159 55.5354C107.185 55.4487 107.228 55.375 107.282 55.3237C107.337 55.2725 107.401 55.2458 107.466 55.2471C107.531 55.2485 107.594 55.2777 107.648 55.3312L113.38 60.9232C113.574 61.1179 113.732 61.3793 113.841 61.6842C113.949 61.9891 114.004 62.3281 114 62.6712C113.997 63.0143 113.936 63.351 113.822 63.6514C113.708 63.9518 113.545 64.2067 113.347 64.3936L110.575 66.8176C110.379 67.0027 110.156 67.1157 109.923 67.1469C109.691 67.178 109.457 67.1264 109.242 66.9964C109.026 66.8664 108.836 66.662 108.687 66.4008C108.538 66.1397 108.435 65.8296 108.387 65.4976Z" stroke="#263238" stroke-linecap="round" stroke-linejoin="round"/>
<path d="M113.462 60.5728L107.872 55C107.818 54.9468 107.776 54.8715 107.751 54.7837C107.727 54.6958 107.721 54.5993 107.734 54.5063C107.747 54.4133 107.778 54.3281 107.825 54.2613C107.871 54.1945 107.93 54.1493 107.994 54.1312L114.769 52.2112C115 52.1539 115.237 52.1797 115.46 52.2862C115.683 52.3927 115.884 52.5767 116.047 52.8223C116.209 53.0679 116.328 53.3675 116.393 53.6952C116.458 54.0229 116.467 54.3686 116.419 54.7024L115.637 59.2624C115.587 59.59 115.483 59.8952 115.334 60.1522C115.186 60.4092 114.997 60.6104 114.783 60.7389C114.57 60.8674 114.339 60.9194 114.109 60.8905C113.879 60.8616 113.657 60.7526 113.462 60.5728V60.5728Z" stroke="#263238" stroke-linecap="round" stroke-linejoin="round"/>
<path d="M114.657 51.8656L108.001 53.68C107.937 53.6957 107.872 53.684 107.813 53.6464C107.754 53.6088 107.704 53.5468 107.669 53.4682C107.634 53.3896 107.615 53.2978 107.615 53.2041C107.616 53.1103 107.635 53.0188 107.671 52.9408L111.519 44.5984C111.653 44.3171 111.833 44.0883 112.043 43.932C112.253 43.7756 112.486 43.6966 112.721 43.7018C112.957 43.707 113.188 43.7963 113.394 43.9619C113.601 44.1274 113.776 44.3641 113.904 44.6512L115.554 48.6784C115.682 48.9622 115.76 49.2866 115.782 49.6239C115.803 49.9611 115.769 50.3011 115.681 50.6145C115.592 50.928 115.453 51.2056 115.275 51.4235C115.096 51.6415 114.884 51.7932 114.657 51.8656V51.8656Z" stroke="#263238" stroke-linecap="round" stroke-linejoin="round"/>
<path d="M111.271 44.4832L107.446 52.6C107.41 52.6786 107.358 52.7396 107.297 52.7752C107.236 52.8107 107.17 52.8193 107.106 52.7998C107.042 52.7802 106.983 52.7335 106.938 52.6654C106.892 52.5974 106.861 52.5111 106.849 52.4176L105.529 42.568C105.49 42.2319 105.507 41.8868 105.581 41.5629C105.654 41.239 105.78 40.946 105.949 40.7094C106.118 40.4728 106.324 40.2998 106.549 40.2055C106.775 40.1111 107.012 40.0982 107.242 40.168L110.38 41.3008C110.607 41.3748 110.817 41.5273 110.994 41.7455C111.172 41.9636 111.31 42.2408 111.397 42.5534C111.485 42.866 111.519 43.2048 111.497 43.5408C111.475 43.8769 111.398 44.2002 111.271 44.4832Z" stroke="#263238" stroke-linecap="round" stroke-linejoin="round"/>
<path d="M101.401 38.8672C99.8555 36.4246 97.8692 34.6632 95.6687 33.784C92.0387 32.344 89.6561 35.224 88.1183 37.4416C87.0425 38.9222 85.8186 40.157 84.4883 41.104C86.5049 42.1449 88.6703 42.424 90.7814 41.9152C94.4114 41.104 96.1043 38.104 97.0712 37.648C99.5 36.496 101.401 38.8672 101.401 38.8672Z" stroke="#263238" stroke-linecap="round" stroke-linejoin="round"/>
<path d="M7.91837 65.7184C7.91837 65.7184 5.73047 67.1968 5.82617 69.7792C5.92187 72.3616 6.19577 73.0432 6.02087 81.184C5.84597 89.3248 5.47637 94.5232 7.77977 99.3616C10.0832 104.2 15.5942 109.634 17.3795 109.922C19.1648 110.21 20.9369 108.962 21.4781 108.088C22.0193 107.214 22.7981 105.837 23.5439 106.12C24.2897 106.403 26.1311 104.68 26.6195 101.8C27.1079 98.92 27.89 91.96 25.4249 84.6832C22.9598 77.4064 19.1846 72.0208 16.7756 67.5136C14.3666 63.0064 12.2909 63.4576 11.6243 63.8272L10.3703 64.5136C10.3703 64.5136 9.34727 64.24 7.91837 65.7184Z" stroke="#263238" stroke-linecap="round" stroke-linejoin="round"/>
<path d="M12.8123 75.0304C12.8566 75.2079 12.8639 75.4005 12.8333 75.584C12.8027 75.7675 12.7356 75.9338 12.6403 76.0621C12.5451 76.1904 12.426 76.275 12.2978 76.3053C12.1697 76.3356 12.0383 76.3103 11.92 76.2325C11.8017 76.1548 11.7018 76.028 11.6328 75.868C11.5638 75.7081 11.5288 75.5221 11.5321 75.3333C11.5354 75.1445 11.5769 74.9614 11.6514 74.8068C11.7259 74.6521 11.8301 74.5329 11.951 74.464C12.033 74.4173 12.1206 74.3948 12.2087 74.3981C12.2968 74.4014 12.3835 74.4303 12.4638 74.483C12.544 74.5358 12.6162 74.6115 12.6761 74.7055C12.7359 74.7995 12.7823 74.91 12.8123 75.0304Z" fill="#263238"/>
<path d="M13.3337 77.032C13.3779 77.2095 13.3852 77.402 13.3546 77.5856C13.3241 77.7691 13.2569 77.9354 13.1617 78.0637C13.0665 78.192 12.9473 78.2766 12.8192 78.3069C12.6911 78.3372 12.5596 78.3119 12.4413 78.2341C12.323 78.1563 12.2231 78.0295 12.1542 77.8696C12.0852 77.7096 12.0501 77.5237 12.0534 77.3349C12.0567 77.1461 12.0983 76.963 12.1728 76.8083C12.2473 76.6537 12.3515 76.5345 12.4724 76.4656C12.5544 76.4188 12.642 76.3964 12.7301 76.3997C12.8181 76.4029 12.9048 76.4318 12.9851 76.4846C13.0654 76.5374 13.1376 76.613 13.1974 76.707C13.2573 76.801 13.3036 76.9115 13.3337 77.032Z" fill="#263238"/>
<path d="M17.8481 82.3072C17.8923 82.4847 17.8996 82.6773 17.8691 82.8608C17.8385 83.0443 17.7714 83.2106 17.6761 83.3389C17.5809 83.4672 17.4617 83.5518 17.3336 83.5822C17.2055 83.6125 17.074 83.5871 16.9557 83.5094C16.8374 83.4316 16.7376 83.3048 16.6686 83.1448C16.5996 82.9849 16.5645 82.7989 16.5678 82.6101C16.5712 82.4213 16.6127 82.2382 16.6872 82.0836C16.7617 81.9289 16.8659 81.8097 16.9868 81.7408C17.0688 81.694 17.1564 81.6716 17.2445 81.6749C17.3325 81.6782 17.4193 81.707 17.4995 81.7598C17.5798 81.8126 17.652 81.8883 17.7119 81.9823C17.7717 82.0763 17.818 82.1868 17.8481 82.3072Z" fill="#263238"/>
<path d="M17.3299 84.8416C17.3748 85.0189 17.3827 85.2116 17.3526 85.3954C17.3226 85.5792 17.2559 85.746 17.1609 85.8749C17.066 86.0039 16.947 86.0892 16.8188 86.1202C16.6907 86.1512 16.5591 86.1265 16.4406 86.0492C16.322 85.9719 16.2218 85.8455 16.1525 85.6857C16.0831 85.5259 16.0477 85.34 16.0507 85.1511C16.0537 84.9622 16.095 84.7788 16.1693 84.6238C16.2436 84.4689 16.3478 84.3493 16.4686 84.28C16.5504 84.2331 16.6379 84.2105 16.7258 84.2135C16.8137 84.2164 16.9003 84.2449 16.9805 84.2972C17.0608 84.3495 17.133 84.4246 17.193 84.5181C17.253 84.6116 17.2996 84.7216 17.3299 84.8416Z" fill="#263238"/>
<path d="M18.442 89.8336C18.3868 90.0046 18.298 90.148 18.1869 90.2459C18.0759 90.3439 17.9474 90.392 17.8176 90.3842C17.6878 90.3764 17.5625 90.313 17.4573 90.2021C17.3522 90.0912 17.2719 89.9376 17.2265 89.7606C17.1811 89.5836 17.1726 89.391 17.2021 89.207C17.2315 89.023 17.2977 88.8557 17.3923 88.7262C17.4868 88.5966 17.6056 88.5105 17.7336 88.4787C17.8616 88.4469 17.9933 88.4707 18.112 88.5472C18.1925 88.599 18.2649 88.6736 18.3252 88.7667C18.3855 88.8598 18.4324 88.9695 18.4632 89.0894C18.4939 89.2092 18.5079 89.3368 18.5043 89.4646C18.5006 89.5924 18.4795 89.7178 18.442 89.8336Z" fill="#263238"/>
<path d="M17.3531 95.0848C17.2978 95.2558 17.209 95.3992 17.0979 95.4971C16.9869 95.5951 16.8584 95.6432 16.7286 95.6354C16.5988 95.6276 16.4735 95.5643 16.3683 95.4533C16.2632 95.3424 16.1829 95.1888 16.1375 95.0118C16.0921 94.8348 16.0836 94.6422 16.1131 94.4582C16.1426 94.2742 16.2087 94.1069 16.3033 93.9774C16.3978 93.8478 16.5166 93.7618 16.6446 93.7299C16.7726 93.6981 16.9043 93.7219 17.0231 93.7984C17.1035 93.8502 17.1759 93.9248 17.2362 94.0179C17.2965 94.111 17.3434 94.2207 17.3742 94.3406C17.4049 94.4604 17.4189 94.588 17.4153 94.7158C17.4116 94.8436 17.3905 94.9691 17.3531 95.0848Z" fill="#263238"/>
<path d="M18.7621 96.4048C18.7068 96.5758 18.6181 96.7192 18.507 96.8171C18.3959 96.9151 18.2674 96.9632 18.1377 96.9554C18.0079 96.9476 17.8826 96.8843 17.7774 96.7733C17.6723 96.6624 17.5919 96.5088 17.5465 96.3318C17.5011 96.1548 17.4926 95.9622 17.5221 95.7782C17.5516 95.5942 17.6178 95.427 17.7123 95.2974C17.8069 95.1679 17.9256 95.0818 18.0537 95.0499C18.1817 95.0181 18.3133 95.0419 18.4321 95.1184C18.5125 95.1702 18.585 95.2448 18.6453 95.3379C18.7056 95.431 18.7525 95.5407 18.7832 95.6606C18.814 95.7804 18.828 95.908 18.8243 96.0358C18.8207 96.1636 18.7995 96.2891 18.7621 96.4048Z" fill="#263238"/>
<path d="M17.7523 92.92C17.6971 93.091 17.6083 93.2344 17.4972 93.3323C17.3862 93.4303 17.2577 93.4784 17.1279 93.4706C16.9981 93.4628 16.8728 93.3994 16.7676 93.2885C16.6625 93.1776 16.5822 93.024 16.5368 92.847C16.4914 92.67 16.4829 92.4774 16.5124 92.2934C16.5419 92.1094 16.608 91.9422 16.7026 91.8126C16.7971 91.683 16.9158 91.597 17.0439 91.5651C17.1719 91.5333 17.3036 91.5571 17.4223 91.6336C17.5027 91.6854 17.5752 91.76 17.6355 91.8531C17.6958 91.9462 17.7427 92.0559 17.7735 92.1758C17.8042 92.2956 17.8182 92.4232 17.8145 92.551C17.8109 92.6788 17.7898 92.8043 17.7523 92.92Z" fill="#263238"/>
<path d="M18.089 94.216C18.0337 94.387 17.945 94.5304 17.8339 94.6284C17.7228 94.7263 17.5943 94.7744 17.4646 94.7666C17.3348 94.7588 17.2095 94.6955 17.1043 94.5845C16.9992 94.4736 16.9188 94.32 16.8734 94.143C16.828 93.966 16.8195 93.7734 16.849 93.5894C16.8785 93.4054 16.9447 93.2381 17.0392 93.1086C17.1338 92.979 17.2525 92.893 17.3806 92.8611C17.5086 92.8293 17.6403 92.8531 17.759 92.9296C17.8394 92.9814 17.9119 93.056 17.9722 93.1491C18.0325 93.2422 18.0794 93.3519 18.1101 93.4718C18.1409 93.5916 18.1549 93.7192 18.1512 93.847C18.1476 93.9748 18.1265 94.1003 18.089 94.216Z" fill="#263238"/>
<path d="M13.2578 91.8256C13.2026 91.9966 13.1138 92.14 13.0027 92.2379C12.8916 92.3359 12.7632 92.384 12.6334 92.3762C12.5036 92.3684 12.3783 92.3051 12.2731 92.1941C12.168 92.0832 12.0877 91.9296 12.0423 91.7526C11.9968 91.5756 11.9884 91.383 12.0178 91.199C12.0473 91.015 12.1135 90.8477 12.2081 90.7182C12.3026 90.5886 12.4213 90.5025 12.5494 90.4707C12.6774 90.4389 12.8091 90.4627 12.9278 90.5392C13.0082 90.591 13.0807 90.6656 13.141 90.7587C13.2013 90.8518 13.2482 90.9615 13.279 91.0814C13.3097 91.2012 13.3237 91.3288 13.32 91.4566C13.3164 91.5844 13.2953 91.7099 13.2578 91.8256Z" fill="#263238"/>
<path d="M16.67 80.4688C16.7142 80.6463 16.7215 80.8389 16.6909 81.0224C16.6604 81.2059 16.5932 81.3722 16.498 81.5005C16.4028 81.6288 16.2836 81.7134 16.1555 81.7437C16.0274 81.774 15.8959 81.7487 15.7776 81.6709C15.6593 81.5931 15.5595 81.4664 15.4905 81.3064C15.4215 81.1465 15.3864 80.9605 15.3897 80.7717C15.3931 80.5829 15.4346 80.3998 15.5091 80.2452C15.5836 80.0905 15.6878 79.9713 15.8087 79.9024C15.8907 79.8556 15.9783 79.8332 16.0664 79.8365C16.1544 79.8398 16.2411 79.8686 16.3214 79.9214C16.4017 79.9742 16.4739 80.0498 16.5337 80.1438C16.5936 80.2379 16.6399 80.3483 16.67 80.4688Z" fill="#263238"/>
<path d="M17.1253 87.7456C17.1672 87.9238 17.1721 88.116 17.1395 88.2982C17.1068 88.4805 17.038 88.6447 16.9417 88.7705C16.8453 88.8963 16.7256 88.9781 16.5976 89.0057C16.4695 89.0333 16.3386 89.0055 16.2213 88.9258C16.104 88.846 16.0055 88.7179 15.9379 88.5572C15.8703 88.3966 15.8367 88.2106 15.8412 88.0223C15.8458 87.8341 15.8883 87.652 15.9635 87.4987C16.0387 87.3453 16.1432 87.2276 16.264 87.16C16.3469 87.1137 16.4353 87.0921 16.524 87.0967C16.6127 87.1012 16.6999 87.1317 16.7803 87.1864C16.8607 87.2411 16.9327 87.3188 16.992 87.4149C17.0513 87.5109 17.0966 87.6234 17.1253 87.7456Z" fill="#263238"/>
<path d="M15.6139 85.0096C15.6582 85.1871 15.6655 85.3797 15.6349 85.5632C15.6043 85.7467 15.5372 85.913 15.442 86.0413C15.3467 86.1696 15.2276 86.2542 15.0995 86.2846C14.9713 86.3149 14.8399 86.2895 14.7216 86.2118C14.6033 86.134 14.5034 86.0072 14.4344 85.8472C14.3654 85.6873 14.3304 85.5013 14.3337 85.3125C14.337 85.1238 14.3785 84.9406 14.453 84.786C14.5276 84.6314 14.6318 84.5121 14.7526 84.4432C14.8346 84.3965 14.9223 84.3741 15.0103 84.3773C15.0984 84.3806 15.1851 84.4095 15.2654 84.4623C15.3457 84.515 15.4179 84.5907 15.4777 84.6847C15.5376 84.7787 15.5839 84.8892 15.6139 85.0096Z" fill="#263238"/>
<path d="M19.8512 86.9488C19.8951 87.1262 19.9022 87.3184 19.8716 87.5017C19.8409 87.6849 19.7738 87.8509 19.6787 87.979C19.5836 88.1071 19.4646 88.1916 19.3367 88.222C19.2087 88.2524 19.0775 88.2273 18.9593 88.1498C18.8411 88.0724 18.7412 87.9461 18.672 87.7866C18.6029 87.6271 18.5676 87.4415 18.5705 87.253C18.5734 87.0645 18.6144 86.8814 18.6884 86.7265C18.7624 86.5717 18.8661 86.452 18.9866 86.3824C19.0688 86.3349 19.1567 86.3119 19.2451 86.3148C19.3336 86.3176 19.4207 86.3464 19.5013 86.3992C19.582 86.452 19.6545 86.5279 19.7146 86.6223C19.7747 86.7167 19.8211 86.8278 19.8512 86.9488Z" fill="#263238"/>
<path d="M20.4122 93.232C20.4559 93.4097 20.4626 93.6022 20.4315 93.7854C20.4004 93.9686 20.3328 94.1344 20.2373 94.262C20.1418 94.3897 20.0225 94.4736 19.8944 94.5033C19.7663 94.5329 19.635 94.507 19.5169 94.4287C19.3989 94.3504 19.2993 94.2232 19.2307 94.0631C19.162 93.903 19.1274 93.717 19.131 93.5283C19.1346 93.3397 19.1764 93.1568 19.2511 93.0025C19.3258 92.8482 19.43 92.7294 19.5509 92.6608C19.6331 92.6141 19.721 92.592 19.8092 92.5955C19.8974 92.5991 19.9842 92.6284 20.0645 92.6817C20.1448 92.7349 20.217 92.8111 20.2767 92.9056C20.3364 93.0001 20.3825 93.1111 20.4122 93.232Z" fill="#263238"/>
<path d="M21.95 100.806C21.994 100.984 22.0011 101.176 21.9705 101.359C21.9398 101.542 21.8727 101.708 21.7776 101.837C21.6824 101.965 21.5635 102.049 21.4356 102.08C21.3076 102.11 21.1764 102.085 21.0582 102.007C20.94 101.93 20.8401 101.804 20.7709 101.644C20.7018 101.485 20.6664 101.299 20.6694 101.111C20.6723 100.922 20.7133 100.739 20.7873 100.584C20.8613 100.429 20.965 100.31 21.0854 100.24C21.1676 100.192 21.2556 100.169 21.344 100.172C21.4324 100.175 21.5196 100.204 21.6002 100.257C21.6809 100.31 21.7534 100.386 21.8135 100.48C21.8736 100.574 21.92 100.685 21.95 100.806Z" fill="#263238"/>
<path d="M20.356 91.48C20.4 91.6574 20.4071 91.8497 20.3765 92.0329C20.3458 92.2161 20.2787 92.3821 20.1836 92.5102C20.0885 92.6383 19.9695 92.7228 19.8416 92.7532C19.7136 92.7836 19.5824 92.7585 19.4642 92.6811C19.346 92.6036 19.2461 92.4773 19.1769 92.3178C19.1078 92.1583 19.0725 91.9727 19.0754 91.7842C19.0783 91.5957 19.1193 91.4126 19.1933 91.2578C19.2673 91.1029 19.371 90.9832 19.4914 90.9136C19.5736 90.8661 19.6616 90.8431 19.75 90.846C19.8384 90.8488 19.9256 90.8776 20.0062 90.9304C20.0869 90.9832 20.1594 91.0591 20.2195 91.1535C20.2796 91.2479 20.326 91.359 20.356 91.48Z" fill="#263238"/>
<path d="M18.8183 91.3936C18.8626 91.5711 18.8699 91.7637 18.8393 91.9472C18.8087 92.1307 18.7416 92.297 18.6463 92.4253C18.5511 92.5536 18.4319 92.6382 18.3038 92.6685C18.1757 92.6988 18.0442 92.6735 17.9259 92.5957C17.8077 92.518 17.7078 92.3911 17.6388 92.2312C17.5698 92.0713 17.5347 91.8853 17.5381 91.6965C17.5414 91.5077 17.5829 91.3246 17.6574 91.17C17.7319 91.0153 17.8361 90.8961 17.957 90.8272C18.039 90.7804 18.1266 90.758 18.2147 90.7613C18.3027 90.7646 18.3895 90.7935 18.4697 90.8462C18.55 90.899 18.6222 90.9746 18.6821 91.0687C18.7419 91.1627 18.7882 91.2732 18.8183 91.3936Z" fill="#263238"/>
<path d="M19.795 96.592C19.839 96.7694 19.8461 96.9617 19.8154 97.1449C19.7848 97.3281 19.7177 97.4941 19.6225 97.6222C19.5274 97.7503 19.4085 97.8348 19.2805 97.8652C19.1526 97.8956 19.0213 97.8705 18.9031 97.7931C18.7849 97.7156 18.685 97.5893 18.6159 97.4298C18.5467 97.2703 18.5114 97.0847 18.5143 96.8962C18.5172 96.7077 18.5582 96.5246 18.6322 96.3698C18.7062 96.2149 18.8099 96.0952 18.9304 96.0256C19.0126 95.9781 19.1005 95.9551 19.189 95.958C19.2774 95.9608 19.3645 95.9896 19.4452 96.0424C19.5258 96.0952 19.5984 96.1711 19.6585 96.2655C19.7186 96.3599 19.765 96.471 19.795 96.592Z" fill="#263238"/>
<path d="M20.8709 89.6464C20.9149 89.8238 20.922 90.016 20.8913 90.1993C20.8607 90.3825 20.7936 90.5485 20.6985 90.6766C20.6033 90.8047 20.4844 90.8892 20.3565 90.9196C20.2285 90.95 20.0973 90.9249 19.9791 90.8474C19.8609 90.77 19.761 90.6437 19.6918 90.4842C19.6227 90.3247 19.5873 90.1391 19.5903 89.9506C19.5932 89.7621 19.6342 89.579 19.7082 89.4241C19.7822 89.2693 19.8859 89.1496 20.0063 89.08C20.0885 89.0325 20.1765 89.0095 20.2649 89.0124C20.3533 89.0152 20.4405 89.044 20.5211 89.0968C20.6018 89.1496 20.6743 89.2255 20.7344 89.3199C20.7945 89.4143 20.8409 89.5254 20.8709 89.6464Z" fill="#263238"/>
<path d="M19.3958 92.392C19.4401 92.5695 19.4474 92.762 19.4168 92.9456C19.3862 93.1291 19.3191 93.2954 19.2238 93.4237C19.1286 93.552 19.0094 93.6366 18.8813 93.6669C18.7532 93.6972 18.6217 93.6719 18.5035 93.5941C18.3852 93.5163 18.2853 93.3895 18.2163 93.2296C18.1473 93.0696 18.1123 92.8837 18.1156 92.6949C18.1189 92.5061 18.1604 92.323 18.2349 92.1683C18.3094 92.0137 18.4136 91.8945 18.5345 91.8256C18.6165 91.7788 18.7041 91.7564 18.7922 91.7597C18.8803 91.763 18.967 91.7918 19.0472 91.8446C19.1275 91.8974 19.1997 91.973 19.2596 92.067C19.3194 92.161 19.3657 92.2715 19.3958 92.392Z" fill="#263238"/>
<path d="M20.8312 95.8864C20.8755 96.0639 20.8828 96.2565 20.8522 96.44C20.8216 96.6235 20.7545 96.7898 20.6593 96.9181C20.564 97.0464 20.4449 97.131 20.3167 97.1613C20.1886 97.1916 20.0572 97.1663 19.9389 97.0885C19.8206 97.0108 19.7207 96.8839 19.6517 96.724C19.5827 96.5641 19.5477 96.3781 19.551 96.1893C19.5543 96.0005 19.5958 95.8174 19.6703 95.6628C19.7448 95.5081 19.8491 95.3889 19.9699 95.32C20.0519 95.2732 20.1396 95.2508 20.2276 95.2541C20.3157 95.2574 20.4024 95.2862 20.4827 95.339C20.5629 95.3918 20.6351 95.4674 20.695 95.5614C20.7549 95.6555 20.8012 95.7659 20.8312 95.8864Z" fill="#263238"/>
<path d="M21.0424 99.5728C21.0864 99.7502 21.0935 99.9425 21.0629 100.126C21.0322 100.309 20.9651 100.475 20.87 100.603C20.7749 100.731 20.6559 100.816 20.528 100.846C20.4 100.876 20.2688 100.851 20.1506 100.774C20.0324 100.696 19.9325 100.57 19.8633 100.411C19.7942 100.251 19.7589 100.065 19.7618 99.877C19.7647 99.6885 19.8057 99.5054 19.8797 99.3506C19.9537 99.1957 20.0574 99.076 20.1778 99.0064C20.26 98.9589 20.348 98.9359 20.4364 98.9388C20.5248 98.9417 20.612 98.9704 20.6926 99.0232C20.7733 99.0761 20.8458 99.1519 20.9059 99.2463C20.966 99.3408 21.0124 99.4518 21.0424 99.5728Z" fill="#263238"/>
<path d="M20.8412 97.8592C20.8855 98.0367 20.8928 98.2293 20.8622 98.4128C20.8316 98.5963 20.7645 98.7626 20.6693 98.8909C20.574 99.0192 20.4549 99.1038 20.3268 99.1342C20.1986 99.1645 20.0672 99.1392 19.9489 99.0614C19.8306 98.9836 19.7307 98.8568 19.6617 98.6968C19.5927 98.5369 19.5577 98.3509 19.561 98.1621C19.5643 97.9733 19.6058 97.7902 19.6803 97.6356C19.7549 97.4809 19.8591 97.3617 19.9799 97.2928C20.0619 97.246 20.1496 97.2236 20.2376 97.2269C20.3257 97.2302 20.4124 97.2591 20.4927 97.3118C20.573 97.3646 20.6451 97.4403 20.705 97.5343C20.7649 97.6283 20.8112 97.7388 20.8412 97.8592Z" fill="#263238"/>
<path d="M21.4649 102.366C21.5089 102.544 21.516 102.736 21.4853 102.919C21.4547 103.102 21.3876 103.268 21.2925 103.397C21.1973 103.525 21.0784 103.609 20.9504 103.64C20.8225 103.67 20.6912 103.645 20.5731 103.567C20.4549 103.49 20.3549 103.364 20.2858 103.204C20.2167 103.045 20.1813 102.859 20.1842 102.671C20.1872 102.482 20.2282 102.299 20.3022 102.144C20.3762 101.989 20.4799 101.87 20.6003 101.8C20.6825 101.752 20.7705 101.729 20.8589 101.732C20.9473 101.735 21.0345 101.764 21.1151 101.817C21.1958 101.87 21.2683 101.946 21.3284 102.04C21.3885 102.134 21.4349 102.245 21.4649 102.366Z" fill="#263238"/>
<path d="M16.7261 98.0272C16.7704 98.2047 16.7777 98.3973 16.7471 98.5808C16.7165 98.7643 16.6494 98.9306 16.5542 99.0589C16.4589 99.1872 16.3398 99.2718 16.2116 99.3021C16.0835 99.3324 15.9521 99.3071 15.8338 99.2293C15.7155 99.1515 15.6156 99.0248 15.5466 98.8648C15.4776 98.7049 15.4426 98.5189 15.4459 98.3301C15.4492 98.1413 15.4907 97.9582 15.5652 97.8036C15.6397 97.6489 15.7439 97.5297 15.8648 97.4608C15.9468 97.414 16.0345 97.3916 16.1225 97.3949C16.2106 97.3982 16.2973 97.427 16.3776 97.4798C16.4578 97.5326 16.53 97.6082 16.5899 97.7023C16.6498 97.7963 16.6961 97.9067 16.7261 98.0272Z" fill="#263238"/>
<path d="M15.1222 79.6192C15.1665 79.7967 15.1738 79.9893 15.1432 80.1728C15.1126 80.3563 15.0455 80.5226 14.9503 80.6509C14.855 80.7792 14.7359 80.8638 14.6078 80.8941C14.4796 80.9245 14.3482 80.8991 14.2299 80.8213C14.1116 80.7436 14.0117 80.6168 13.9427 80.4568C13.8737 80.2969 13.8387 80.1109 13.842 79.9221C13.8453 79.7333 13.8868 79.5502 13.9613 79.3956C14.0359 79.2409 14.1401 79.1217 14.2609 79.0528C14.343 79.006 14.4306 78.9836 14.5186 78.9869C14.6067 78.9902 14.6934 79.019 14.7737 79.0718C14.854 79.1246 14.9262 79.2002 14.986 79.2942C15.0459 79.3882 15.0922 79.4987 15.1222 79.6192Z" fill="#263238"/>
<path d="M14.3072 83.8672C14.3536 84.0438 14.3631 84.2364 14.3345 84.4208C14.3059 84.6052 14.2405 84.7732 14.1466 84.9038C14.0526 85.0344 13.9342 85.1217 13.8063 85.1548C13.6783 85.1879 13.5465 85.1653 13.4273 85.0899C13.3081 85.0145 13.2069 84.8896 13.1364 84.7308C13.0658 84.5721 13.0291 84.3866 13.0307 84.1976C13.0323 84.0085 13.0723 83.8244 13.1456 83.6683C13.2189 83.5122 13.3222 83.391 13.4426 83.32C13.524 83.272 13.6111 83.2481 13.6989 83.2497C13.7868 83.2513 13.8735 83.2784 13.954 83.3294C14.0345 83.3803 14.1072 83.4541 14.1679 83.5465C14.2285 83.6388 14.2759 83.7479 14.3072 83.8672Z" fill="#263238"/>
<path d="M15.3499 85.984C15.3933 86.1616 15.3998 86.3538 15.3686 86.5367C15.3374 86.7196 15.2699 86.8851 15.1745 87.0125C15.0791 87.14 14.96 87.2238 14.8321 87.2535C14.7041 87.2832 14.573 87.2575 14.4551 87.1796C14.3371 87.1017 14.2375 86.975 14.1687 86.8153C14.0999 86.6556 14.065 86.47 14.0682 86.2817C14.0714 86.0933 14.1127 85.9104 14.1869 85.7559C14.261 85.6014 14.3648 85.4821 14.4853 85.4128C14.5677 85.3654 14.6558 85.3426 14.7444 85.3458C14.833 85.349 14.9202 85.3782 15.0009 85.4315C15.0816 85.4848 15.1541 85.5612 15.2141 85.6561C15.274 85.751 15.3202 85.8625 15.3499 85.984Z" fill="#263238"/>
<path d="M11.7859 84.6304C11.8302 84.8079 11.8375 85.0004 11.8069 85.184C11.7763 85.3675 11.7092 85.5338 11.614 85.6621C11.5187 85.7904 11.3996 85.875 11.2715 85.9053C11.1433 85.9356 11.0119 85.9103 10.8936 85.8325C10.7753 85.7547 10.6754 85.6279 10.6064 85.468C10.5374 85.308 10.5024 85.122 10.5057 84.9333C10.509 84.7445 10.5505 84.5614 10.625 84.4067C10.6996 84.2521 10.8038 84.1329 10.9246 84.064C11.0066 84.0172 11.0943 83.9948 11.1823 83.9981C11.2704 84.0014 11.3571 84.0302 11.4374 84.083C11.5177 84.1358 11.5898 84.2114 11.6497 84.3054C11.7096 84.3994 11.7559 84.5099 11.7859 84.6304Z" fill="#263238"/>
<path d="M11.2745 87.3904C11.3176 87.5674 11.3241 87.7588 11.2932 87.9411C11.2623 88.1234 11.1952 88.2885 11.1005 88.4159C11.0057 88.5434 10.8873 88.6276 10.7599 88.6582C10.6326 88.6888 10.5019 88.6644 10.384 88.588C10.266 88.5117 10.1661 88.3867 10.0965 88.2285C10.027 88.0704 9.99078 87.886 9.99249 87.6983C9.9942 87.5106 10.0337 87.3277 10.1062 87.1723C10.1786 87.0169 10.2808 86.8958 10.4 86.824C10.4828 86.7742 10.5716 86.7494 10.6612 86.7511C10.7507 86.7528 10.8391 86.7811 10.9209 86.8341C11.0027 86.887 11.0763 86.9637 11.137 87.0593C11.1978 87.155 11.2446 87.2676 11.2745 87.3904Z" fill="#263238"/>
<path d="M11.8486 88.7824C11.8923 88.9601 11.899 89.1526 11.8679 89.3358C11.8368 89.519 11.7692 89.6848 11.6737 89.8124C11.5782 89.9401 11.4589 90.024 11.3308 90.0537C11.2027 90.0833 11.0714 90.0574 10.9533 89.9791C10.8353 89.9008 10.7357 89.7736 10.6671 89.6135C10.5984 89.4534 10.5638 89.2674 10.5674 89.0787C10.571 88.8901 10.6128 88.7072 10.6875 88.5529C10.7622 88.3986 10.8665 88.2798 10.9873 88.2112C11.0695 88.1645 11.1574 88.1424 11.2456 88.1459C11.3338 88.1495 11.4206 88.1788 11.5009 88.2321C11.5812 88.2853 11.6534 88.3615 11.7131 88.456C11.7728 88.5505 11.8189 88.6615 11.8486 88.7824Z" fill="#263238"/>
<path d="M13.3369 88.9696C13.3812 89.1471 13.3885 89.3397 13.3579 89.5232C13.3273 89.7067 13.2602 89.873 13.165 90.0013C13.0698 90.1296 12.9506 90.2142 12.8225 90.2446C12.6943 90.2749 12.5629 90.2495 12.4446 90.1718C12.3263 90.094 12.2264 89.9672 12.1574 89.8072C12.0885 89.6473 12.0534 89.4613 12.0567 89.2725C12.06 89.0837 12.1016 88.9006 12.1761 88.746C12.2506 88.5914 12.3548 88.4721 12.4757 88.4032C12.5577 88.3565 12.6453 88.334 12.7334 88.3373C12.8214 88.3406 12.9081 88.3695 12.9884 88.4222C13.0687 88.475 13.1409 88.5507 13.2007 88.6447C13.2606 88.7387 13.3069 88.8492 13.3369 88.9696Z" fill="#263238"/>
<path d="M15.6403 93.5248C15.6843 93.7022 15.6914 93.8945 15.6608 94.0777C15.6301 94.2609 15.563 94.4269 15.4679 94.555C15.3728 94.6831 15.2538 94.7676 15.1259 94.798C14.9979 94.8284 14.8667 94.8033 14.7485 94.7258C14.6303 94.6484 14.5304 94.5221 14.4612 94.3626C14.3921 94.2031 14.3568 94.0175 14.3597 93.829C14.3626 93.6405 14.4036 93.4574 14.4776 93.3026C14.5516 93.1477 14.6553 93.028 14.7757 92.9584C14.8579 92.9109 14.9459 92.8879 15.0343 92.8908C15.1227 92.8937 15.2099 92.9224 15.2905 92.9752C15.3712 93.0281 15.4437 93.1039 15.5038 93.1983C15.5639 93.2928 15.6103 93.4038 15.6403 93.5248Z" fill="#263238"/>
<path d="M11.8685 92.2432C11.9127 92.4207 11.92 92.6133 11.8894 92.7968C11.8589 92.9803 11.7917 93.1466 11.6965 93.2749C11.6013 93.4032 11.4821 93.4878 11.354 93.5181C11.2258 93.5484 11.0944 93.5231 10.9761 93.4453C10.8578 93.3675 10.7579 93.2407 10.6889 93.0808C10.6199 92.9208 10.5849 92.7349 10.5882 92.5461C10.5915 92.3573 10.6331 92.1742 10.7076 92.0196C10.7821 91.8649 10.8863 91.7457 11.0071 91.6768C11.0892 91.63 11.1768 91.6076 11.2649 91.6109C11.3529 91.6142 11.4396 91.643 11.5199 91.6958C11.6002 91.7486 11.6724 91.8242 11.7322 91.9182C11.7921 92.0123 11.8384 92.1227 11.8685 92.2432Z" fill="#263238"/>
<path d="M12.7925 94.4656C12.8343 94.6438 12.8393 94.836 12.8066 95.0182C12.7739 95.2005 12.7051 95.3647 12.6088 95.4905C12.5124 95.6163 12.3927 95.6981 12.2647 95.7257C12.1366 95.7533 12.0058 95.7255 11.8885 95.6458C11.7712 95.566 11.6726 95.4378 11.605 95.2772C11.5374 95.1166 11.5038 94.9306 11.5083 94.7423C11.5129 94.5541 11.5554 94.372 11.6306 94.2187C11.7058 94.0653 11.8103 93.9476 11.9312 93.88C12.014 93.8337 12.1024 93.8122 12.1911 93.8167C12.2798 93.8212 12.367 93.8518 12.4474 93.9064C12.5278 93.9611 12.5998 94.0388 12.6591 94.1349C12.7184 94.231 12.7638 94.3434 12.7925 94.4656Z" fill="#263238"/>
<path d="M14.0036 94.7152C14.0476 94.8926 14.0547 95.0849 14.024 95.2681C13.9934 95.4513 13.9263 95.6173 13.8312 95.7454C13.736 95.8735 13.6171 95.958 13.4891 95.9884C13.3612 96.0188 13.2299 95.9937 13.1117 95.9163C12.9935 95.8388 12.8936 95.7125 12.8245 95.553C12.7554 95.3935 12.72 95.2079 12.7229 95.0194C12.7259 94.8309 12.7669 94.6478 12.8409 94.493C12.9149 94.3381 13.0186 94.2184 13.139 94.1488C13.2212 94.1013 13.3092 94.0783 13.3976 94.0812C13.486 94.0841 13.5732 94.1128 13.6538 94.1656C13.7345 94.2184 13.807 94.2943 13.8671 94.3887C13.9272 94.4832 13.9736 94.5942 14.0036 94.7152Z" fill="#263238"/>
<path d="M14.1059 78.7792C14.1501 78.9567 14.1574 79.1493 14.1269 79.3328C14.0963 79.5163 14.0292 79.6826 13.9339 79.8109C13.8387 79.9392 13.7195 80.0238 13.5914 80.0541C13.4633 80.0844 13.3318 80.0591 13.2135 79.9813C13.0953 79.9035 12.9954 79.7767 12.9264 79.6168C12.8574 79.4568 12.8223 79.2709 12.8257 79.0821C12.829 78.8933 12.8705 78.7102 12.945 78.5556C13.0195 78.4009 13.1237 78.2817 13.2446 78.2128C13.3266 78.166 13.4142 78.1436 13.5023 78.1469C13.5903 78.1502 13.6771 78.179 13.7573 78.2318C13.8376 78.2846 13.9098 78.3602 13.9697 78.4542C14.0295 78.5483 14.0758 78.6587 14.1059 78.7792Z" fill="#263238"/>
<path d="M15.3896 82.4944C15.4338 82.6719 15.4411 82.8645 15.4105 83.048C15.38 83.2315 15.3128 83.3978 15.2176 83.5261C15.1224 83.6544 15.0032 83.739 14.8751 83.7693C14.747 83.7996 14.6155 83.7743 14.4972 83.6965C14.3789 83.6187 14.2791 83.4919 14.2101 83.332C14.1411 83.172 14.106 82.986 14.1093 82.7973C14.1127 82.6085 14.1542 82.4254 14.2287 82.2708C14.3032 82.1161 14.4074 81.9969 14.5283 81.928C14.6103 81.8812 14.6979 81.8588 14.786 81.8621C14.874 81.8654 14.9608 81.8942 15.041 81.947C15.1213 81.9998 15.1935 82.0754 15.2533 82.1695C15.3132 82.2635 15.3595 82.3739 15.3896 82.4944Z" fill="#263238"/>
<path d="M14.5679 81.688C14.6116 81.8652 14.6185 82.0572 14.5877 82.2401C14.557 82.423 14.4899 82.5887 14.3949 82.7166C14.2999 82.8445 14.1811 82.9289 14.0534 82.9594C13.9256 82.9899 13.7946 82.965 13.6764 82.8879C13.5583 82.8108 13.4584 82.6849 13.3891 82.5259C13.3198 82.3669 13.2842 82.1817 13.2867 81.9934C13.2893 81.8052 13.3298 81.6222 13.4032 81.4671C13.4767 81.3121 13.5799 81.1919 13.7 81.1216C13.7824 81.0733 13.8706 81.0497 13.9594 81.0522C14.0482 81.0547 14.1358 81.0833 14.2168 81.1361C14.2978 81.189 14.3707 81.2652 14.431 81.36C14.4914 81.4548 14.5379 81.5664 14.5679 81.688Z" fill="#263238"/>
<path d="M13.6999 86.2864C13.7447 86.4642 13.7524 86.6573 13.722 86.8414C13.6916 87.0255 13.6244 87.1924 13.5289 87.3211C13.4335 87.4499 13.3139 87.5346 13.1854 87.5648C13.0569 87.595 12.9251 87.5692 12.8067 87.4907C12.6882 87.4121 12.5883 87.2844 12.5196 87.1236C12.451 86.9627 12.4165 86.7759 12.4206 86.5867C12.4247 86.3974 12.4672 86.2141 12.5428 86.0599C12.6183 85.9057 12.7236 85.7875 12.8452 85.72C12.9269 85.6747 13.0139 85.6535 13.1012 85.6575C13.1885 85.6615 13.2744 85.6908 13.3539 85.7434C13.4334 85.7961 13.505 85.8713 13.5643 85.9645C13.6237 86.0577 13.6698 86.1671 13.6999 86.2864Z" fill="#263238"/>
<path d="M12.2314 81.8272C12.2751 82.0049 12.2818 82.1974 12.2507 82.3806C12.2196 82.5638 12.1521 82.7296 12.0565 82.8572C11.961 82.9849 11.8417 83.0688 11.7136 83.0985C11.5855 83.1281 11.4542 83.1022 11.3361 83.0239C11.2181 82.9456 11.1185 82.8184 11.0499 82.6583C10.9813 82.4982 10.9466 82.3122 10.9502 82.1235C10.9538 81.9349 10.9956 81.752 11.0703 81.5977C11.145 81.4434 11.2493 81.3246 11.3701 81.256C11.4524 81.2093 11.5402 81.1872 11.6284 81.1907C11.7166 81.1943 11.8035 81.2236 11.8838 81.2769C11.9641 81.3301 12.0362 81.4063 12.0959 81.5008C12.1556 81.5953 12.2017 81.7063 12.2314 81.8272Z" fill="#263238"/>
<path d="M15.3698 89.4064C15.4141 89.5839 15.4214 89.7765 15.3908 89.96C15.3602 90.1435 15.2931 90.3098 15.1978 90.4381C15.1026 90.5664 14.9835 90.651 14.8553 90.6813C14.7272 90.7116 14.5958 90.6863 14.4775 90.6085C14.3592 90.5308 14.2593 90.4039 14.1903 90.244C14.1213 90.084 14.0863 89.8981 14.0896 89.7093C14.0929 89.5205 14.1344 89.3374 14.2089 89.1828C14.2834 89.0281 14.3876 88.9089 14.5085 88.84C14.5905 88.7932 14.6781 88.7708 14.7662 88.7741C14.8543 88.7774 14.941 88.8062 15.0212 88.859C15.1015 88.9118 15.1737 88.9874 15.2336 89.0814C15.2934 89.1754 15.3397 89.2859 15.3698 89.4064Z" fill="#263238"/>
<path d="M16.4126 91.1632C16.4563 91.3409 16.463 91.5334 16.4319 91.7166C16.4007 91.8998 16.3332 92.0656 16.2377 92.1932C16.1422 92.3209 16.0229 92.4048 15.8948 92.4345C15.7666 92.4641 15.6353 92.4382 15.5173 92.3599C15.3993 92.2816 15.2997 92.1544 15.2311 91.9943C15.1624 91.8342 15.1277 91.6482 15.1314 91.4596C15.135 91.2709 15.1768 91.088 15.2514 90.9337C15.3261 90.7794 15.4304 90.6606 15.5513 90.592C15.6335 90.5454 15.7213 90.5232 15.8095 90.5268C15.8978 90.5303 15.9846 90.5596 16.0649 90.6129C16.1452 90.6661 16.2174 90.7423 16.2771 90.8368C16.3368 90.9313 16.3829 91.0423 16.4126 91.1632Z" fill="#263238"/>
<path d="M16.67 92.3392C16.7142 92.5167 16.7215 92.7093 16.6909 92.8928C16.6604 93.0763 16.5932 93.2426 16.498 93.3709C16.4028 93.4992 16.2836 93.5838 16.1555 93.6141C16.0274 93.6445 15.8959 93.6191 15.7776 93.5414C15.6593 93.4636 15.5595 93.3368 15.4905 93.1768C15.4215 93.0169 15.3864 92.8309 15.3897 92.6421C15.3931 92.4533 15.4346 92.2702 15.5091 92.1156C15.5836 91.9609 15.6878 91.8417 15.8087 91.7728C15.8907 91.726 15.9783 91.7036 16.0664 91.7069C16.1544 91.7102 16.2411 91.739 16.3214 91.7918C16.4017 91.8446 16.4739 91.9202 16.5337 92.0142C16.5936 92.1083 16.6399 92.2187 16.67 92.3392Z" fill="#263238"/>
<path d="M11.5484 90.52C11.5927 90.6975 11.6 90.8901 11.5694 91.0736C11.5388 91.2571 11.4717 91.4234 11.3764 91.5517C11.2812 91.68 11.162 91.7646 11.0339 91.7949C10.9058 91.8252 10.7743 91.7999 10.656 91.7221C10.5378 91.6443 10.4379 91.5175 10.3689 91.3576C10.2999 91.1976 10.2648 91.0117 10.2682 90.8229C10.2715 90.6341 10.313 90.451 10.3875 90.2964C10.462 90.1417 10.5662 90.0225 10.6871 89.9536C10.7691 89.9068 10.8567 89.8844 10.9448 89.8877C11.0328 89.891 11.1196 89.9198 11.1998 89.9726C11.2801 90.0254 11.3523 90.101 11.4122 90.1951C11.472 90.2891 11.5183 90.3995 11.5484 90.52Z" fill="#263238"/>
<path d="M13.139 92.7232C13.1832 92.9007 13.1905 93.0933 13.1599 93.2768C13.1294 93.4603 13.0622 93.6266 12.967 93.7549C12.8718 93.8832 12.7526 93.9678 12.6245 93.9981C12.4964 94.0285 12.3649 94.0031 12.2466 93.9253C12.1283 93.8476 12.0284 93.7208 11.9595 93.5608C11.8905 93.4009 11.8554 93.2149 11.8587 93.0261C11.862 92.8373 11.9036 92.6542 11.9781 92.4996C12.0526 92.3449 12.1568 92.2257 12.2777 92.1568C12.3597 92.11 12.4473 92.0876 12.5354 92.0909C12.6234 92.0942 12.7101 92.123 12.7904 92.1758C12.8707 92.2286 12.9429 92.3042 13.0027 92.3982C13.0626 92.4923 13.1089 92.6027 13.139 92.7232Z" fill="#263238"/>
<path d="M15.4688 96.5632C15.5131 96.7407 15.5204 96.9333 15.4898 97.1168C15.4592 97.3003 15.3921 97.4666 15.2968 97.5949C15.2016 97.7232 15.0825 97.8078 14.9543 97.8381C14.8262 97.8685 14.6948 97.8431 14.5765 97.7653C14.4582 97.6876 14.3583 97.5608 14.2893 97.4008C14.2203 97.2409 14.1853 97.0549 14.1886 96.8661C14.1919 96.6773 14.2334 96.4942 14.3079 96.3396C14.3824 96.1849 14.4866 96.0657 14.6075 95.9968C14.6895 95.95 14.7771 95.9276 14.8652 95.9309C14.9533 95.9342 15.04 95.963 15.1203 96.0158C15.2005 96.0686 15.2727 96.1442 15.3326 96.2382C15.3924 96.3322 15.4387 96.4427 15.4688 96.5632Z" fill="#263238"/>
<path d="M16.3894 95.5936C16.4337 95.7711 16.441 95.9637 16.4104 96.1472C16.3798 96.3307 16.3127 96.497 16.2175 96.6253C16.1222 96.7536 16.0031 96.8382 15.875 96.8685C15.7468 96.8989 15.6154 96.8735 15.4971 96.7958C15.3788 96.718 15.2789 96.5912 15.2099 96.4312C15.1409 96.2713 15.1059 96.0853 15.1092 95.8965C15.1125 95.7077 15.154 95.5246 15.2286 95.37C15.3031 95.2153 15.4073 95.0961 15.5281 95.0272C15.6102 94.9804 15.6978 94.958 15.7858 94.9613C15.8739 94.9646 15.9606 94.9934 16.0409 95.0462C16.1212 95.099 16.1934 95.1746 16.2532 95.2687C16.3131 95.3627 16.3594 95.4732 16.3894 95.5936Z" fill="#263238"/>
<path d="M14.0299 97.1008C14.0742 97.2783 14.0815 97.4708 14.0509 97.6544C14.0203 97.8379 13.9532 98.0042 13.858 98.1325C13.7627 98.2608 13.6436 98.3454 13.5155 98.3757C13.3873 98.406 13.2559 98.3807 13.1376 98.3029C13.0193 98.2251 12.9194 98.0983 12.8504 97.9384C12.7814 97.7784 12.7464 97.5924 12.7497 97.4037C12.753 97.2149 12.7945 97.0318 12.8691 96.8771C12.9436 96.7225 13.0478 96.6033 13.1686 96.5344C13.2507 96.4876 13.3383 96.4652 13.4264 96.4685C13.5144 96.4718 13.6011 96.5006 13.6814 96.5534C13.7617 96.6062 13.8339 96.6818 13.8937 96.7758C13.9536 96.8698 13.9999 96.9803 14.0299 97.1008Z" fill="#263238"/>
<path d="M15.3499 98.728C15.3942 98.9055 15.4015 99.0981 15.3709 99.2816C15.3403 99.4651 15.2732 99.6314 15.1779 99.7597C15.0827 99.888 14.9636 99.9726 14.8354 100.003C14.7073 100.033 14.5759 100.008 14.4576 99.9301C14.3393 99.8524 14.2394 99.7255 14.1704 99.5656C14.1014 99.4057 14.0664 99.2197 14.0697 99.0309C14.073 98.8421 14.1145 98.659 14.189 98.5044C14.2635 98.3497 14.3677 98.2305 14.4886 98.1616C14.5706 98.1148 14.6582 98.0924 14.7463 98.0957C14.8344 98.099 14.9211 98.1279 15.0014 98.1806C15.0816 98.2334 15.1538 98.3091 15.2137 98.4031C15.2735 98.4971 15.3199 98.6076 15.3499 98.728Z" fill="#263238"/>
<path d="M18.9799 93.9952C19.0242 94.1727 19.0315 94.3653 19.0009 94.5488C18.9703 94.7323 18.9032 94.8986 18.8079 95.0269C18.7127 95.1552 18.5936 95.2398 18.4654 95.2701C18.3373 95.3005 18.2059 95.2751 18.0876 95.1973C17.9693 95.1196 17.8694 94.9928 17.8004 94.8328C17.7314 94.6729 17.6964 94.4869 17.6997 94.2981C17.703 94.1093 17.7445 93.9262 17.819 93.7716C17.8935 93.6169 17.9977 93.4977 18.1186 93.4288C18.2006 93.382 18.2882 93.3596 18.3763 93.3629C18.4644 93.3662 18.5511 93.3951 18.6314 93.4478C18.7116 93.5006 18.7838 93.5763 18.8437 93.6703C18.9035 93.7643 18.9499 93.8748 18.9799 93.9952Z" fill="#263238"/>
<path d="M20.234 101.829C20.2783 102.006 20.2856 102.199 20.255 102.382C20.2244 102.566 20.1573 102.732 20.0621 102.861C19.9668 102.989 19.8477 103.073 19.7196 103.104C19.5914 103.134 19.46 103.109 19.3417 103.031C19.2234 102.953 19.1235 102.826 19.0545 102.666C18.9855 102.506 18.9505 102.32 18.9538 102.132C18.9571 101.943 18.9986 101.76 19.0732 101.605C19.1477 101.451 19.2519 101.331 19.3727 101.262C19.4548 101.216 19.5424 101.193 19.6304 101.196C19.7185 101.2 19.8052 101.229 19.8855 101.281C19.9658 101.334 20.038 101.41 20.0978 101.504C20.1577 101.598 20.204 101.708 20.234 101.829Z" fill="#263238"/>
<path d="M19.343 99.0736C19.3867 99.2513 19.3934 99.4438 19.3623 99.627C19.3312 99.8102 19.2636 99.976 19.1681 100.104C19.0726 100.231 18.9533 100.315 18.8252 100.345C18.6971 100.375 18.5658 100.349 18.4477 100.27C18.3297 100.192 18.2301 100.065 18.1615 99.9047C18.0928 99.7446 18.0582 99.5586 18.0618 99.37C18.0654 99.1813 18.1072 98.9984 18.1819 98.8441C18.2565 98.6898 18.3608 98.571 18.4817 98.5024C18.5639 98.4558 18.6517 98.4336 18.74 98.4372C18.8282 98.4408 18.915 98.47 18.9953 98.5233C19.0756 98.5766 19.1478 98.6527 19.2075 98.7472C19.2672 98.8417 19.3133 98.9527 19.343 99.0736Z" fill="#263238"/>
<path d="M17.7953 98.4496C17.8396 98.6271 17.8469 98.8196 17.8163 99.0032C17.7857 99.1867 17.7186 99.353 17.6234 99.4813C17.5281 99.6096 17.409 99.6942 17.2809 99.7245C17.1527 99.7548 17.0213 99.7295 16.903 99.6517C16.7847 99.5739 16.6848 99.4471 16.6158 99.2872C16.5468 99.1272 16.5118 98.9412 16.5151 98.7525C16.5184 98.5637 16.5599 98.3806 16.6344 98.226C16.709 98.0713 16.8132 97.9521 16.934 97.8832C17.016 97.8364 17.1037 97.814 17.1917 97.8173C17.2798 97.8206 17.3665 97.8494 17.4468 97.9022C17.5271 97.955 17.5992 98.0306 17.6591 98.1247C17.719 98.2187 17.7653 98.3291 17.7953 98.4496Z" fill="#263238"/>
<path d="M18.2704 100.278C18.3147 100.456 18.322 100.648 18.2914 100.832C18.2608 101.015 18.1937 101.182 18.0985 101.31C18.0032 101.438 17.8841 101.523 17.756 101.553C17.6278 101.584 17.4964 101.558 17.3781 101.481C17.2598 101.403 17.1599 101.276 17.0909 101.116C17.0219 100.956 16.9869 100.77 16.9902 100.581C16.9935 100.393 17.035 100.209 17.1095 100.055C17.1841 99.9001 17.2883 99.7809 17.4091 99.712C17.4911 99.6652 17.5788 99.6428 17.6668 99.6461C17.7549 99.6494 17.8416 99.6782 17.9219 99.731C18.0022 99.7838 18.0743 99.8594 18.1342 99.9534C18.1941 100.047 18.2404 100.158 18.2704 100.278Z" fill="#263238"/>
<path d="M18.4288 96.784C18.4725 96.9617 18.4792 97.1542 18.4481 97.3374C18.417 97.5206 18.3494 97.6864 18.2539 97.8141C18.1584 97.9417 18.0391 98.0257 17.911 98.0553C17.7829 98.0849 17.6516 98.059 17.5335 97.9807C17.4155 97.9024 17.3159 97.7753 17.2473 97.6151C17.1786 97.455 17.144 97.269 17.1476 97.0804C17.1512 96.8917 17.193 96.7088 17.2677 96.5545C17.3424 96.4002 17.4466 96.2814 17.5675 96.2128C17.6497 96.1662 17.7376 96.144 17.8258 96.1476C17.914 96.1511 18.0008 96.1804 18.0811 96.2337C18.1614 96.287 18.2336 96.3631 18.2933 96.4576C18.353 96.5521 18.3991 96.6631 18.4288 96.784Z" fill="#263238"/>
<path d="M20.2308 99.8224C20.275 99.9999 20.2823 100.192 20.2517 100.376C20.2212 100.559 20.154 100.726 20.0588 100.854C19.9636 100.982 19.8444 101.067 19.7163 101.097C19.5881 101.128 19.4567 101.102 19.3384 101.025C19.2201 100.947 19.1202 100.82 19.0512 100.66C18.9823 100.5 18.9472 100.314 18.9505 100.125C18.9538 99.9365 18.9954 99.7534 19.0699 99.5988C19.1444 99.4441 19.2486 99.3249 19.3695 99.256C19.4515 99.2092 19.5391 99.1868 19.6272 99.1901C19.7152 99.1934 19.8019 99.2222 19.8822 99.275C19.9625 99.3278 20.0347 99.4034 20.0945 99.4975C20.1544 99.5915 20.2007 99.7019 20.2308 99.8224Z" fill="#263238"/>
<path d="M18.6038 84.6064C18.6481 84.7839 18.6554 84.9764 18.6248 85.16C18.5942 85.3435 18.5271 85.5098 18.4318 85.6381C18.3366 85.7664 18.2175 85.851 18.0893 85.8813C17.9612 85.9116 17.8298 85.8863 17.7115 85.8085C17.5932 85.7307 17.4933 85.6039 17.4243 85.444C17.3553 85.284 17.3203 85.098 17.3236 84.9093C17.3269 84.7205 17.3684 84.5374 17.4429 84.3827C17.5174 84.2281 17.6216 84.1089 17.7425 84.04C17.8245 83.9932 17.9121 83.9708 18.0002 83.9741C18.0883 83.9773 18.175 84.0062 18.2553 84.059C18.3355 84.1118 18.4077 84.1874 18.4676 84.2814C18.5274 84.3754 18.5738 84.4859 18.6038 84.6064Z" fill="#263238"/>
<path d="M17.5709 84.2272C17.5023 84.0667 17.4678 83.8803 17.4717 83.6914C17.4757 83.5024 17.5178 83.3194 17.593 83.1652C17.6681 83.011 17.7729 82.8925 17.8942 82.8245C18.0154 82.7566 18.1478 82.7422 18.2746 82.7832C18.4015 82.8242 18.5172 82.9188 18.6072 83.055C18.6973 83.1913 18.7577 83.3632 18.7809 83.5492C18.804 83.7351 18.7889 83.9269 18.7375 84.1005C18.686 84.274 18.6005 84.4217 18.4916 84.5248C18.418 84.5945 18.3356 84.6422 18.2491 84.665C18.1627 84.6878 18.074 84.6852 17.9883 84.6575C17.9025 84.6298 17.8214 84.5775 17.7498 84.5036C17.6781 84.4297 17.6173 84.3357 17.5709 84.2272Z" fill="#263238"/>
<path d="M11.489 64.9408C11.489 64.9408 10.8092 66.088 11.258 68.1664C11.7068 70.2448 13.3601 73.864 14.228 75.8464C15.0959 77.8288 19.178 80.8816 20.5541 86.2" stroke="#263238" stroke-linecap="round" stroke-linejoin="round"/>
<path d="M20.96 87.7792C21.4282 90.3971 21.6502 93.0953 21.62 95.8" stroke="#263238" stroke-linecap="round" stroke-linejoin="round"/>
<path d="M11.3042 71.7616C10.9866 74.0441 10.7847 76.3576 10.7003 78.6832C10.6079 82.0912 9.38029 84.9568 10.2284 90.568" stroke="#263238" stroke-linecap="round" stroke-linejoin="round"/>
<path d="M15.4391 101.406C15.4391 101.406 17.3597 102.294 18.6038 102.645" stroke="#263238" stroke-linecap="round" stroke-linejoin="round"/>
<path d="M22.1447 38.32C21.7323 38.5865 21.3773 39.0107 21.1175 39.5475C20.8577 40.0842 20.7029 40.7134 20.6696 41.368C20.62 42.0141 20.6586 42.6681 20.7832 43.2925C20.9078 43.9168 21.1159 44.4993 21.3956 45.0064C21.3956 45.0064 19.8941 46.9024 20.2934 49.144C20.5051 50.4409 21.0601 51.5638 21.8378 52.2688C21.8378 52.2688 21.7025 55.1104 23.8178 56.5888C25.9331 58.0672 27.2696 56.7904 27.7778 55.6864C28.286 54.5824 28.5005 53.9968 28.5005 53.9968C28.5005 53.9968 30.9623 52.984 31.3814 51.04C31.8005 49.096 30.8039 47.1664 29.6555 46.2832C29.6555 46.2832 30.8369 45.0544 30.9755 43.7392C30.9755 43.7392 32.279 46.192 33.7607 45.4864C35.2424 44.7808 36.1532 43.0864 35.1665 41.0608C35.1665 41.0608 36.5459 41.0896 37.3808 40.4656C37.8532 40.1432 38.2428 39.6102 38.4929 38.944C39.0915 39.1523 39.722 39.0291 40.2617 38.5984C41.1131 37.8688 42.0635 36.4096 41.5817 34.4176C41.0999 32.4256 40.2617 31.7968 40.2617 31.7968C40.2617 31.7968 38.9714 29.2432 37.8395 28.2544C36.7076 27.2656 36.074 27.5104 36.074 27.5104C36.074 27.5104 34.193 25.7056 32.114 26.176C30.035 26.6464 29.7512 27.544 29.7512 27.544C28.2574 27.5213 26.7831 28.0392 25.4612 29.0512C23.3558 30.712 23.1512 33.4336 23.1512 33.4336C22.6199 33.952 22.2291 34.7229 22.0454 35.6143C21.8618 36.5056 21.8969 37.4621 22.1447 38.32V38.32Z" stroke="#263238" stroke-linecap="round" stroke-linejoin="round"/>
<path d="M32.5397 31.9264C29.4179 32.0368 28.2167 36.3616 28.2167 36.3616C28.2167 36.3616 27.8867 36.3184 27.1508 36.208C26.6183 36.1804 26.088 36.3213 25.5965 36.6208C20.5277 40.2352 23.3162 47.0464 23.3162 47.0464C23.3162 47.0464 21.488 48.6256 21.7817 51.5968" stroke="#263238" stroke-linecap="round" stroke-linejoin="round"/>
<path d="M29.6588 53.3296C29.6588 53.3296 32.7938 52.8496 34.5131 54.9856C36.2324 57.1216 36.1994 60.0544 36.3875 60.328C36.5756 60.6016 38.7173 59.1664 39.8855 58.0432C41.0537 56.92 42.1493 55.2304 42.1229 54.6256C42.0965 54.0208 39.7172 49.6144 39.9878 44.4688C40.2584 39.3232 40.2452 38.6176 40.2452 38.6176" stroke="#263238" stroke-linecap="round" stroke-linejoin="round"/>
<path d="M33.7441 45.5056C34.1248 47.1465 34.7451 48.648 35.5624 49.9072" stroke="#263238" stroke-linecap="round" stroke-linejoin="round"/>
<path d="M36.4304 41.0224C36.4304 41.0224 36.6218 45.8224 37.4534 46.8208C38.285 47.8192 39.4598 43.4608 38.4764 38.9632" stroke="#263238" stroke-linecap="round" stroke-linejoin="round"/>
<path d="M37.1498 46.24C37.1498 46.24 37.5062 47.7616 39.2024 48.4816" stroke="#263238" stroke-linecap="round" stroke-linejoin="round"/>
<path d="M30.9491 47.9968C30.9491 47.9968 32.0084 47.9296 33.7145 50.7232" stroke="#263238" stroke-linecap="round" stroke-linejoin="round"/>
<path d="M31.3517 49.3552C31.3517 49.3552 32.0315 48.7024 32.6222 49.1632" stroke="#263238" stroke-linecap="round" stroke-linejoin="round"/>
<path d="M116.455 150.798C116.184 150.494 116.004 150.047 115.955 149.554C115.906 149.06 115.991 148.558 116.191 148.154C116.904 146.584 119.303 144.755 120.264 144.846C121.224 144.938 121.62 145.398 121.914 145.053C122.207 144.707 122.643 143.858 121.89 143.459C121.138 143.061 119.475 142.854 117.442 144.39C115.409 145.926 114.518 147.947 113.914 147.798C113.31 147.65 112.855 146.291 111.789 145.024C110.723 143.757 108.014 143.867 106.456 146.291C104.899 148.715 103.14 154.955 102.064 158.872C100.988 162.789 101.361 166.614 102.724 167.776C104.087 168.938 104.536 168.227 104.536 168.227C104.778 168.995 105.149 169.661 105.615 170.165C106.081 170.668 106.627 170.992 107.202 171.107C109.149 171.434 109.539 170.675 109.539 170.675C110.546 169.985 111.421 168.945 112.086 167.646C113.215 165.462 114.492 162.074 116.007 160.581C117.521 159.088 119.046 155.915 118.485 153.381C117.924 150.846 116.455 150.798 116.455 150.798Z" stroke="#263238" stroke-linecap="round" stroke-linejoin="round"/>
<path d="M117.201 157.84C117.201 157.84 116.132 159.467 113.984 162.112C111.835 164.757 111.815 168.126 110.416 169.96" stroke="#263238" stroke-linecap="round" stroke-linejoin="round"/>
<path d="M110.624 146.08C110.624 146.08 113.693 146.512 113.693 150.021" stroke="#263238" stroke-linecap="round" stroke-linejoin="round"/>
<path d="M112.542 150.611C112.542 150.611 114.01 149.44 115.31 150.549C116.61 151.658 116.914 152.762 116.914 152.762" stroke="#263238" stroke-linecap="round" stroke-linejoin="round"/>
<path d="M105.229 165.309C105.074 165.701 104.936 166.106 104.816 166.523" stroke="#263238" stroke-linecap="round" stroke-linejoin="round"/>
<path d="M112.02 151.48C112.02 151.48 110.7 152.661 108.984 156.76C107.865 159.414 106.674 161.901 105.823 163.859" stroke="#263238" stroke-linecap="round" stroke-linejoin="round"/>
<path d="M12.8518 127.13C12.5218 127.187 12.1918 127.264 11.8816 127.355C7.34083 128.618 5.16943 134.219 4.71073 140.075C4.35332 144.196 4.939 148.372 6.37723 151.96C7.94473 155.762 10.522 157.869 12.8485 160.701C15.1057 163.446 16.8811 168.275 20.4385 167.728C26.2597 166.83 24.3655 157.346 24.5503 152.114C24.9199 141.496 23.5141 125.123 12.8518 127.13Z" stroke="#263238" stroke-linecap="round" stroke-linejoin="round"/>
<path d="M13.04 129.304C12.7562 129.357 12.4658 129.424 12.1754 129.506C8.1263 130.629 6.18921 135.64 5.78001 140.858C5.46321 144.529 5.985 148.249 7.26501 151.446C8.66751 154.845 10.9643 156.726 13.0433 159.251C15.0596 161.699 16.6403 166.01 19.8149 165.525C25.0091 164.723 23.3195 156.256 23.4845 151.605C23.8178 142.125 22.5638 127.514 13.04 129.304Z" stroke="#263238" stroke-linecap="round" stroke-linejoin="round"/>
<path d="M17.8338 151.263C20.0886 149.448 20.7812 144.992 19.3807 141.311C17.9802 137.63 15.017 136.117 12.7622 137.932C10.5073 139.747 9.81476 144.203 11.2152 147.884C12.6157 151.565 15.5789 153.078 17.8338 151.263Z" stroke="#263238" stroke-linecap="round" stroke-linejoin="round"/>
<path d="M6.30137 46.9408C5.28895 47.1694 4.3429 47.8157 3.57557 48.8032C2.51627 50.176 1.71437 51.9184 0.721069 53.3968C2.10047 53.7856 3.41057 54.5632 4.76357 55.1056C6.11657 55.648 7.57187 55.9504 8.91827 55.3696C10.2647 54.7888 11.4659 53.1472 11.5979 51.112L13.4525 50.7184V49.9264L11.357 50.4544C11.357 50.4544 10.1723 48.4192 10.0106 48.2368C9.48425 47.6684 8.88436 47.2606 8.24696 47.0378C7.60955 46.8151 6.94777 46.7821 6.30137 46.9408Z" stroke="#263238" stroke-linecap="round" stroke-linejoin="round"/>
<path d="M11.5978 51.112C11.5978 51.112 10.1689 50.9872 6.61484 51.9136C4.8695 52.4074 3.10685 52.7615 1.33484 52.9744" stroke="#263238" stroke-linecap="round" stroke-linejoin="round"/>
<path d="M2.96838 51.1168L4.61178 52.576L3.79008 54.0352" stroke="#263238" stroke-linecap="round" stroke-linejoin="round"/>
<path d="M5.52258 49.528L6.98118 52.048C6.98118 52.048 5.79648 54.1696 5.79648 54.5632" stroke="#263238" stroke-linecap="round" stroke-linejoin="round"/>
<path d="M8.16587 48.4672L9.35056 51.2512L7.89197 54.2992" stroke="#263238" stroke-linecap="round" stroke-linejoin="round"/>
<path d="M42.697 15.9088C42.0693 14.7318 41.223 13.8407 40.2583 13.3408C38.9185 12.6496 37.483 12.472 36.1135 11.9008C36.5458 13.8208 36.7075 15.8896 37.0375 17.8768C37.3675 19.864 37.8856 21.88 38.8855 23.32C39.8854 24.76 41.4529 25.4944 42.7399 24.6784L43.8751 26.8528L44.3536 26.4688L43.0336 24.0688C43.0336 24.0688 43.6936 21.5776 43.72 21.2848C43.8087 20.3346 43.7637 19.3682 43.5878 18.4441C43.412 17.52 43.1089 16.6574 42.697 15.9088V15.9088Z" stroke="#263238" stroke-linecap="round" stroke-linejoin="round"/>
<path d="M42.74 24.6688C42.74 24.6688 42.1295 22.792 39.8525 18.712C38.711 16.7185 37.6457 14.6354 36.6614 12.472" stroke="#263238" stroke-linecap="round" stroke-linejoin="round"/>
<path d="M38.5721 13.6864L38.4863 16.48L37.2125 16.1392" stroke="#263238" stroke-linecap="round" stroke-linejoin="round"/>
<path d="M40.76 16.168L39.9482 19.24C39.9482 19.24 38.0969 18.76 37.8593 18.9472" stroke="#263238" stroke-linecap="round" stroke-linejoin="round"/>
<path d="M42.6773 19.024L41.5718 21.8752L39.0341 21.4912" stroke="#263238" stroke-linecap="round" stroke-linejoin="round"/>
<path d="M95.2099 23.9824C95.88 22.8569 96.3151 21.4763 96.4639 20.0032C96.6685 17.9584 96.5101 15.8752 96.6124 13.816C95.3848 14.8096 94.0384 15.4432 92.7646 16.2976C91.4908 17.152 90.2467 18.2848 89.4646 19.9936C88.6825 21.7024 88.4977 24.0784 89.2996 25.7536L88.0555 27.7936L88.4086 28.3984L89.7748 26.0272C89.7748 26.0272 91.5832 26.4784 91.7878 26.464C92.4437 26.4067 93.0849 26.1574 93.6729 25.731C94.261 25.3045 94.7837 24.7098 95.2099 23.9824V23.9824Z" stroke="#263238" stroke-linecap="round" stroke-linejoin="round"/>
<path d="M89.3228 25.7584C89.3228 25.7584 90.4712 24.5152 92.7779 20.4784C93.8942 18.4642 95.0862 16.5413 96.3485 14.7184" stroke="#263238" stroke-linecap="round" stroke-linejoin="round"/>
<path d="M95.9162 17.6656L94.0154 18.088L93.9956 16.2016" stroke="#263238" stroke-linecap="round" stroke-linejoin="round"/>
<path d="M94.6721 21.2752L92.438 20.7136C92.438 20.7136 92.405 17.9824 92.2301 17.68" stroke="#263238" stroke-linecap="round" stroke-linejoin="round"/>
<path d="M93.1212 24.5632L90.9794 23.5456L90.7418 19.8496" stroke="#263238" stroke-linecap="round" stroke-linejoin="round"/>
<path d="M121.151 78.352C122.152 78.6719 123.194 78.567 124.154 78.0496C125.474 77.3296 126.669 76.1296 127.959 75.2752C126.774 74.1856 125.745 72.7696 124.62 71.5504C123.494 70.3312 122.214 69.2848 120.815 69.1168C119.415 68.9488 117.884 69.8416 117.257 71.6704L115.429 71.0608L115.231 71.8L117.317 72.4096C117.3 72.4096 117.911 74.9344 118.016 75.1888C118.366 75.9958 118.823 76.6919 119.362 77.2355C119.901 77.779 120.509 78.1588 121.151 78.352Z" stroke="#263238" stroke-linecap="round" stroke-linejoin="round"/>
<path d="M117.257 71.6704C117.257 71.6704 118.554 72.5392 122.098 73.552C123.85 74.0113 125.583 74.6106 127.289 75.3472" stroke="#263238" stroke-linecap="round" stroke-linejoin="round"/>
<path d="M125.296 76.2112L124.131 73.9888L125.26 73.0624" stroke="#263238" stroke-linecap="round" stroke-linejoin="round"/>
<path d="M122.521 76.3504L121.792 73.24C121.792 73.24 123.425 71.8864 123.524 71.5168" stroke="#263238" stroke-linecap="round" stroke-linejoin="round"/>
<path d="M119.795 75.9472L119.383 72.7264L121.504 70.6528" stroke="#263238" stroke-linecap="round" stroke-linejoin="round"/>
<path d="M128.16 136.202C129.161 136.521 130.203 136.416 131.163 135.899C132.483 135.179 133.675 133.979 134.968 133.125C133.78 132.035 132.754 130.619 131.625 129.4C130.497 128.181 129.22 127.134 127.821 126.966C126.421 126.798 124.89 127.691 124.263 129.52L122.435 128.92L122.237 129.664L124.323 130.274C124.323 130.274 124.92 132.798 125.025 133.048C125.375 133.854 125.833 134.549 126.371 135.091C126.91 135.633 127.519 136.011 128.16 136.202Z" stroke="#263238" stroke-linecap="round" stroke-linejoin="round"/>
<path d="M124.25 129.52C124.25 129.52 125.547 130.389 129.091 131.402C130.843 131.861 132.576 132.46 134.282 133.197" stroke="#263238" stroke-linecap="round" stroke-linejoin="round"/>
<path d="M132.305 134.061L131.14 131.838L132.269 130.912" stroke="#263238" stroke-linecap="round" stroke-linejoin="round"/>
<path d="M129.53 134.2L128.797 131.085C128.797 131.085 130.447 129.731 130.53 129.362" stroke="#263238" stroke-linecap="round" stroke-linejoin="round"/>
<path d="M126.801 133.797L126.392 130.576L128.51 128.502" stroke="#263238" stroke-linecap="round" stroke-linejoin="round"/>
<path d="M97.0546 186.573C98.0545 186.894 99.0969 186.791 100.058 186.275C101.378 185.555 102.569 184.355 103.863 183.496C102.675 182.406 101.648 180.99 100.523 179.771C99.3976 178.552 98.1139 177.51 96.7147 177.338C95.3155 177.165 93.7876 178.067 93.1573 179.891L91.3324 179.282L91.1344 180.021L93.22 180.63C93.2035 180.63 93.814 183.155 93.9196 183.41C94.2686 184.217 94.7262 184.913 95.265 185.457C95.8037 186.001 96.4125 186.38 97.0546 186.573Z" stroke="#263238" stroke-linecap="round" stroke-linejoin="round"/>
<path d="M93.1573 179.891C93.1573 179.891 94.4543 180.765 97.9984 181.773C99.7515 182.232 101.486 182.833 103.193 183.573" stroke="#263238" stroke-linecap="round" stroke-linejoin="round"/>
<path d="M101.199 184.437L100.035 182.21L101.163 181.283" stroke="#263238" stroke-linecap="round" stroke-linejoin="round"/>
<path d="M98.4241 184.571L97.6915 181.456C97.6915 181.456 99.3415 180.102 99.424 179.733" stroke="#263238" stroke-linecap="round" stroke-linejoin="round"/>
<path d="M95.6984 184.168L95.2859 180.947L97.4045 178.874" stroke="#263238" stroke-linecap="round" stroke-linejoin="round"/>
<path d="M35.6317 172.557C34.681 172.003 33.641 171.858 32.6353 172.139C31.2394 172.533 29.9392 173.435 28.5664 173.968C29.6158 175.326 30.4705 176.968 31.444 178.442C32.4175 179.915 33.5626 181.245 34.9255 181.749C36.2884 182.253 37.8955 181.749 38.7205 180.078L40.4563 181.115L40.7335 180.434L38.7535 179.33C38.7535 179.33 38.4499 176.699 38.374 176.45C38.1214 175.565 37.7482 174.764 37.2769 174.095C36.8056 173.426 36.2459 172.903 35.6317 172.557V172.557Z" stroke="#263238" stroke-linecap="round" stroke-linejoin="round"/>
<path d="M38.7205 180.078C38.7205 180.078 37.5391 178.907 34.1566 177.069C32.4805 176.199 30.839 175.194 29.2396 174.059" stroke="#263238" stroke-linecap="round" stroke-linejoin="round"/>
<path d="M31.3022 173.68L32.1998 176.152L30.9854 176.795" stroke="#263238" stroke-linecap="round" stroke-linejoin="round"/>
<path d="M34.0544 174.203L34.424 177.453C34.424 177.453 32.6618 178.413 32.5232 178.739" stroke="#263238" stroke-linecap="round" stroke-linejoin="round"/>
<path d="M36.701 175.254L36.7406 178.528L34.4174 180.069" stroke="#263238" stroke-linecap="round" stroke-linejoin="round"/>
<path d="M12.7892 110.901C11.8388 110.346 10.7988 110.199 9.79277 110.478C8.40017 110.872 7.09667 111.779 5.72717 112.312C6.77327 113.67 7.62797 115.312 8.60147 116.781C9.57497 118.25 10.73 119.589 12.083 120.088C13.436 120.587 15.053 120.088 15.8813 118.418L17.6138 119.459L17.8943 118.773L15.9143 117.674C15.9143 117.674 15.6107 115.043 15.5348 114.794C15.2823 113.908 14.9088 113.106 14.4368 112.437C13.9648 111.768 13.4043 111.245 12.7892 110.901V110.901Z" stroke="#263238" stroke-linecap="round" stroke-linejoin="round"/>
<path d="M15.8813 118.418C15.8813 118.418 14.6999 117.251 11.3174 115.413C9.64029 114.541 7.99767 113.535 6.39709 112.398" stroke="#263238" stroke-linecap="round" stroke-linejoin="round"/>
<path d="M8.45962 112.019L9.35721 114.491L8.14282 115.139" stroke="#263238" stroke-linecap="round" stroke-linejoin="round"/>
<path d="M11.2117 112.547L11.5813 115.797C11.5813 115.797 9.81914 116.757 9.68054 117.083" stroke="#263238" stroke-linecap="round" stroke-linejoin="round"/>
<path d="M13.8583 113.594L13.9012 116.872L11.5747 118.413" stroke="#263238" stroke-linecap="round" stroke-linejoin="round"/>
<path d="M92.2399 84.0256C93.2391 84.3454 94.2804 84.2404 95.2396 83.7232C96.5596 83.0032 97.7542 81.8032 99.0478 80.9488C97.8598 79.8592 96.8335 78.4432 95.7049 77.224C94.5763 76.0048 93.2992 74.9584 91.9 74.7904C90.5008 74.6224 88.9696 75.5152 88.3426 77.344L86.5144 76.7296L86.3164 77.4736L88.402 78.0832C88.402 78.0832 88.996 80.608 89.1049 80.8576C89.4533 81.6662 89.9107 82.3638 90.4495 82.9083C90.9883 83.4528 91.5974 83.8329 92.2399 84.0256V84.0256Z" stroke="#263238" stroke-linecap="round" stroke-linejoin="round"/>
<path d="M88.3262 77.344C88.3262 77.344 89.6231 78.2128 93.1673 79.2208C94.9188 79.6827 96.6517 80.2836 98.3582 81.0208" stroke="#263238" stroke-linecap="round" stroke-linejoin="round"/>
<path d="M96.3683 81.8848L95.2034 79.6624L96.3287 78.736" stroke="#263238" stroke-linecap="round" stroke-linejoin="round"/>
<path d="M93.5929 82.024L92.8604 78.9088C92.8604 78.9088 94.4938 77.5552 94.5928 77.1856" stroke="#263238" stroke-linecap="round" stroke-linejoin="round"/>
<path d="M90.8638 81.6208L90.4546 78.4L92.5732 76.3264" stroke="#263238" stroke-linecap="round" stroke-linejoin="round"/>
<path d="M36.3281 72.4528C35.6993 71.2774 34.8535 70.3867 33.8894 69.8848C32.5496 69.1984 31.1141 69.016 29.7446 68.4688C30.1769 70.4128 30.3386 72.4576 30.6686 74.44C30.9986 76.4224 31.5167 78.424 32.5166 79.8592C33.5165 81.2944 35.084 82.0336 36.371 81.2176L37.5029 83.3872C37.6646 83.2624 37.8329 83.1328 37.9814 83.0032L36.6614 80.6032C36.6614 80.6032 37.3214 78.1168 37.3478 77.8192C37.4351 76.8709 37.3897 75.9068 37.2145 74.9847C37.0393 74.0625 36.7378 73.2013 36.3281 72.4528V72.4528Z" stroke="#263238" stroke-linecap="round" stroke-linejoin="round"/>
<path d="M36.371 81.2176C36.371 81.2176 35.7605 79.336 33.4835 75.2608C32.3414 73.268 31.2761 71.1848 30.2924 69.0208" stroke="#263238" stroke-linecap="round" stroke-linejoin="round"/>
<path d="M32.2031 70.2304L32.1173 73.024L30.8435 72.6832" stroke="#263238" stroke-linecap="round" stroke-linejoin="round"/>
<path d="M34.3909 72.712L33.5791 75.7888C33.5791 75.7888 31.7311 75.3088 31.4902 75.496" stroke="#263238" stroke-linecap="round" stroke-linejoin="round"/>
<path d="M36.3083 75.568L35.2027 78.4192L32.665 78.0352" stroke="#263238" stroke-linecap="round" stroke-linejoin="round"/>
</svg>
