<svg width="166" height="191" viewBox="0 0 166 191" fill="none" xmlns="http://www.w3.org/2000/svg">
<path d="M129.351 190.998C129.558 186.487 129.618 176.098 126.624 166.406C122.672 153.558 114.729 136.231 112.945 133.386C111.162 130.541 112.945 127.29 112.945 127.29C115.304 120.09 116.834 112.631 117.505 105.065C117.505 105.065 118.493 105.476 121.269 108.113C124.045 110.749 149.012 126.523 152.974 127.341C156.936 128.158 162.829 126.187 164.217 123.332C165.606 120.477 138.124 90.7848 130.788 83.4442C123.453 76.1036 105.594 77.3482 102.631 75.494C99.6665 73.6398 99.4541 71.2116 101.44 63.4646C103.426 55.7176 109.966 48.5802 110.757 42.2607C111.547 35.9412 106.993 23.7085 96.6827 17.3687C86.373 11.0288 79.042 14.7169 79.042 14.7169C79.042 14.7169 73.2918 19.7969 72.4965 23.6882C71.7012 27.5795 72.1013 28.9866 69.5325 30.6173C66.9637 32.248 62.9919 31.6333 63.3871 33.0659C63.7823 34.4984 64.7753 37.9579 66.7562 38.1459C66.7562 38.1459 63.9799 40.7976 64.5777 42.0219C64.9385 42.7851 65.1404 43.6173 65.1705 44.4654C65.1705 44.4654 64.5777 46.0961 65.1705 47.3204C65.5501 48.1141 65.8801 48.9319 66.1585 49.7689C66.1585 49.7689 66.7513 53.8329 69.7252 54.6609C72.699 55.489 78.054 55.108 78.054 55.108C78.054 55.108 77.4563 61.839 76.2707 68.5649C75.0851 75.2908 72.1062 74.478 64.1726 74.0716C56.239 73.6652 47.7175 76.7234 44.3484 79.5733C40.9793 82.4232 23.714 87.9096 23.714 87.9096C23.714 87.9096 19.9448 71.8009 19.5496 70.1702C19.1544 68.5395 18.774 61.6104 18.774 57.5312C18.774 53.4519 20.1622 46.3145 20.5574 42.85C20.9526 39.3854 11.6357 38.3643 11.2356 39.995C10.8354 41.6257 8.46424 62.6264 6.67596 70.983C4.88768 79.3396 5.88556 89.9416 5.68796 97.6886C5.49036 105.436 8.0641 108.905 11.2356 108.499C14.4071 108.092 24.7218 107.071 34.834 106.253C44.9461 105.436 54.263 100.157 54.263 100.157L55.6511 100.361C55.6511 100.361 50.2912 108.504 50.884 113.802C51.4768 119.101 55.246 122.774 56.4366 124.201C57.4238 125.543 58.2871 126.977 59.0153 128.484C59.0153 128.484 60.0033 134.58 58.2199 136.84C56.4366 139.101 50.3159 150.094 47.3173 162.748C44.9906 172.634 45.697 185.761 46.1169 191.013" fill="#CCCCCC"/>
<g opacity="0.2">
<path opacity="0.2" d="M46.0675 89.2253C42.565 88.6716 34.2115 96.4287 26.9398 100.305C19.6681 104.181 13.1967 103.078 8.88906 102.525C7.84614 102.391 6.8267 102.107 5.86084 101.681C6.49316 106.629 8.66676 108.829 11.2306 108.504C14.407 108.092 24.7168 107.076 34.829 106.259C44.9412 105.441 54.258 100.163 54.258 100.163L55.6462 100.366C55.6462 100.366 54.8162 101.631 53.848 103.48C55.824 102.642 57.385 101.991 57.385 101.991C57.385 101.991 49.57 89.779 46.0675 89.2253Z" fill="black"/>
<path opacity="0.2" d="M130.788 83.4239C127.261 79.8984 121.319 78.3439 115.756 77.4905C109.739 76.5557 104.177 76.4287 102.63 75.4585C99.6665 73.6246 99.4541 71.176 101.44 63.429C103.426 55.682 109.966 48.5446 110.757 42.2251C111.547 35.9056 106.993 23.673 96.6827 17.3331C86.3729 10.9933 79.042 14.7169 79.042 14.7169C79.042 14.7169 78.2318 15.4332 77.1796 16.5305C78.6616 20.2287 83.9227 33.1167 87.8303 37.1349C92.4146 41.8441 91.066 47.9401 87.5635 50.155C84.061 52.3699 69.7202 54.6762 69.7202 54.6762L89.1789 54.5898L95.3736 69.5504C95.3736 69.5504 87.025 83.1293 91.8712 89.4996C96.7173 95.8699 112.891 102.245 122.05 91.7195C123.229 90.2802 124.194 88.6693 124.915 86.9393C130.991 93.2232 138.539 101.051 144.141 106.954C152.841 116.098 158.527 121.844 160.557 126.299C162.251 125.552 163.635 124.516 164.217 123.312C165.606 120.462 138.124 90.7645 130.788 83.4239Z" fill="black"/>
<path opacity="0.2" d="M112.945 133.376C111.157 130.521 112.945 127.28 112.945 127.28C115.304 120.08 116.834 112.621 117.505 105.055C117.608 105.104 117.709 105.16 117.806 105.222C113.904 102.037 108.035 97.4701 107.501 98.3896C106.691 99.7714 107.768 105.314 108.307 112.796C108.845 120.279 102.379 130.526 106.153 138.009C109.927 145.491 122.321 154.356 127.439 169.596L127.617 170.104C127.331 168.87 127 167.635 126.629 166.411C122.657 153.558 114.729 136.231 112.945 133.376Z" fill="black"/>
</g>
<path d="M129.351 190.998C129.558 186.487 129.618 176.098 126.624 166.406C122.672 153.558 114.729 136.231 112.945 133.386C111.162 130.541 112.945 127.29 112.945 127.29C115.304 120.09 116.834 112.631 117.505 105.065C117.505 105.065 118.493 105.476 121.269 108.113C124.045 110.749 149.012 126.523 152.974 127.341C156.936 128.158 162.829 126.187 164.217 123.332C165.606 120.477 138.124 90.7848 130.788 83.4442C123.453 76.1036 105.594 77.3482 102.63 75.494C99.6665 73.6398 99.4541 71.2116 101.44 63.4646C103.426 55.7176 109.966 48.5802 110.757 42.2607C111.547 35.9412 106.993 23.7085 96.6827 17.3687C86.373 11.0288 79.042 14.7169 79.042 14.7169C79.042 14.7169 73.2918 19.7969 72.4965 23.6882C71.7012 27.5795 72.1013 28.9866 69.5325 30.6173C66.9637 32.248 62.9919 31.6333 63.3871 33.0659C63.7823 34.4984 64.7753 37.9579 66.7562 38.1459C66.7562 38.1459 63.9799 40.7976 64.5777 42.0219C64.9385 42.7851 65.1404 43.6173 65.1705 44.4654C65.1705 44.4654 64.5777 46.0961 65.1705 47.3203C65.5501 48.1141 65.8801 48.9319 66.1585 49.7689C66.1585 49.7689 66.7513 53.8329 69.7252 54.6609C72.699 55.489 78.054 55.108 78.054 55.108C78.054 55.108 77.4563 61.839 76.2707 68.5649C75.0851 75.2908 72.1062 74.478 64.1726 74.0716C56.239 73.6652 47.7175 76.7234 44.3484 79.5733C40.9793 82.4232 23.714 87.9096 23.714 87.9096C23.714 87.9096 19.9448 71.8009 19.5496 70.1702C19.1544 68.5395 18.774 61.6104 18.774 57.5312C18.774 53.4519 20.1622 46.3145 20.5574 42.8499C20.9526 39.3854 11.6357 38.3643 11.2356 39.995C10.8354 41.6257 8.46424 62.6264 6.67596 70.983C4.88768 79.3396 5.88556 89.9416 5.68796 97.6886C5.49036 105.436 8.0641 108.905 11.2356 108.499C14.4071 108.092 24.7218 107.071 34.834 106.253C44.9461 105.436 54.263 100.157 54.263 100.157L55.6511 100.361C55.6511 100.361 50.2912 108.504 50.884 113.802C51.4768 119.101 55.246 122.774 56.4366 124.201C57.4238 125.543 58.2871 126.977 59.0153 128.484C59.0153 128.484 60.0033 134.58 58.2199 136.84C56.4366 139.101 50.3159 150.094 47.3173 162.748C44.9906 172.634 45.697 185.761 46.1169 191.013" stroke="#263238" stroke-linecap="round" stroke-linejoin="round"/>
<path d="M75.2678 30.4598L74.0032 31.4352C74.0032 31.4352 75.584 34.6813 79.8423 31.2726C79.8423 31.2726 76.8437 31.4352 75.2678 30.4598Z" fill="#263238" stroke="#263238" stroke-linecap="round" stroke-linejoin="round"/>
<path d="M75.7421 24.628C75.7421 24.628 78.4245 21.8695 81.7392 26.4111" stroke="#263238" stroke-width="2" stroke-linecap="round" stroke-linejoin="round"/>
<path d="M74.6355 35.3316C76.2255 34.8493 77.9091 34.7933 79.5261 35.169" stroke="#263238" stroke-width="0.5" stroke-linecap="round" stroke-linejoin="round"/>
<path d="M75.584 36.1393C77.0963 35.8556 78.6461 35.8556 80.1584 36.1393" stroke="#263238" stroke-width="0.5" stroke-linecap="round" stroke-linejoin="round"/>
<path d="M65.0569 77.8969L79.3779 80.6248" stroke="#263238" stroke-linecap="round" stroke-linejoin="round"/>
<path d="M97.4138 79.5326L85.7406 80.6248" stroke="#263238" stroke-linecap="round" stroke-linejoin="round"/>
<path d="M110.411 99.9898L117.505 105.034L109.349 102.443" stroke="#263238" stroke-linecap="round" stroke-linejoin="round"/>
<path d="M54.258 100.142L47.0209 94.5339" stroke="#263238" stroke-linecap="round" stroke-linejoin="round"/>
<path d="M23.714 87.9095C23.714 87.9095 21.2835 92.8981 16.7733 95.0825" stroke="#263238" stroke-linecap="round" stroke-linejoin="round"/>
<path d="M65.7759 38.0324L59.8845 37.1928L59.0409 43.4525L64.9323 44.2921L65.7759 38.0324Z" fill="white" stroke="#263238" stroke-linecap="round" stroke-linejoin="round"/>
<path d="M57.0442 30.0992L46.8826 28.6513C46.7627 28.5737 46.6279 28.5234 46.4874 28.504C46.2143 28.4649 45.9373 28.5386 45.7169 28.709C45.4966 28.8794 45.3509 29.1327 45.3117 29.4133L45.2277 30.0687H45.1289L45.2178 29.4133C45.2363 29.2743 45.228 29.1328 45.1933 28.997C45.1586 28.8612 45.0983 28.7338 45.0157 28.622C44.9331 28.5102 44.83 28.4162 44.7121 28.3454C44.5942 28.2746 44.4639 28.2284 44.3286 28.2094C44.1934 28.1904 44.0558 28.1989 43.9238 28.2346C43.7917 28.2703 43.6678 28.3323 43.5591 28.4172C43.4504 28.5021 43.359 28.6083 43.2901 28.7295C43.2213 28.8507 43.1763 28.9847 43.1579 29.1238L43.0689 29.7791H42.9751L43.0591 29.1238C43.0779 28.985 43.0699 28.8438 43.0357 28.7082C43.0014 28.5726 42.9415 28.4453 42.8594 28.3335C42.7773 28.2217 42.6746 28.1276 42.5571 28.0566C42.4396 27.9857 42.3097 27.9392 42.1748 27.9198C42.0327 27.8991 41.8879 27.9094 41.7499 27.9503L26.8064 25.8218C26.685 25.7434 26.5485 25.6931 26.4063 25.6745C26.2714 25.6551 26.134 25.6633 26.0022 25.6985C25.8703 25.7337 25.7465 25.7953 25.6378 25.8798C25.529 25.9642 25.4376 26.0698 25.3685 26.1906C25.2995 26.3114 25.2543 26.445 25.2355 26.5838L25.1466 27.2391H25.0478L25.1367 26.5838C25.1587 26.4434 25.1531 26.2999 25.1204 26.1618C25.0876 26.0237 25.0283 25.8937 24.946 25.7794C24.8637 25.6652 24.7601 25.569 24.6411 25.4966C24.5221 25.4241 24.3903 25.3769 24.2533 25.3576C24.1163 25.3383 23.977 25.3473 23.8434 25.3842C23.7099 25.421 23.5849 25.485 23.4757 25.5723C23.3666 25.6595 23.2755 25.7683 23.2078 25.8923C23.1402 26.0163 23.0973 26.153 23.0817 26.2942L22.9928 26.9445H22.894L22.9829 26.2892C23.0195 26.0084 22.9465 25.7241 22.7798 25.4985C22.6132 25.2729 22.3665 25.1243 22.0937 25.0852C21.9532 25.0642 21.81 25.0746 21.6738 25.1157L6.7698 22.9363C6.27998 22.8661 5.78151 22.8958 5.30287 23.0238C4.82422 23.1518 4.37479 23.3754 3.98025 23.6821C3.58571 23.9887 3.2538 24.3723 3.00348 24.8109C2.75316 25.2496 2.58935 25.7346 2.5214 26.2383L0.940598 37.9528C0.8041 38.9706 1.06616 40.0026 1.66919 40.8218C2.27223 41.641 3.16688 42.1804 4.15654 42.3216L18.9271 44.4298C19.077 44.5575 19.2582 44.6401 19.4508 44.6686C19.5857 44.6879 19.723 44.6798 19.8549 44.6446C19.9868 44.6093 20.1106 44.5477 20.2193 44.4633C20.328 44.3789 20.4195 44.2732 20.4885 44.1524C20.5576 44.0316 20.6028 43.898 20.6216 43.7593L20.75 42.7992H20.8488L20.7204 43.7593C20.6984 43.8997 20.704 44.0431 20.7367 44.1812C20.7695 44.3194 20.8287 44.4494 20.911 44.5636C20.9934 44.6779 21.097 44.774 21.216 44.8465C21.335 44.9189 21.4668 44.9662 21.6038 44.9855C21.7408 45.0048 21.8801 44.9958 22.0136 44.9589C22.1472 44.922 22.2722 44.8581 22.3813 44.7708C22.4905 44.6835 22.5816 44.5747 22.6493 44.4507C22.7169 44.3267 22.7598 44.1901 22.7754 44.0488L22.9038 43.0938H23.0026L22.8742 44.0488C22.8554 44.1876 22.8633 44.3288 22.8976 44.4644C22.9318 44.6 22.9917 44.7274 23.0738 44.8392C23.1559 44.951 23.2587 45.045 23.3761 45.116C23.4936 45.187 23.6235 45.2335 23.7585 45.2528C23.952 45.2825 24.1497 45.2524 24.3266 45.1664L39.028 47.2899C39.1685 47.4142 39.3393 47.4968 39.522 47.5286C39.657 47.5487 39.7946 47.541 39.9267 47.5061C40.0588 47.4711 40.1829 47.4096 40.2918 47.325C40.4007 47.2405 40.4922 47.1346 40.561 47.0134C40.6298 46.8923 40.6746 46.7584 40.6928 46.6193L40.8262 45.6643H40.92L40.7916 46.6244C40.7731 46.7635 40.7814 46.905 40.8161 47.0407C40.8508 47.1765 40.9111 47.304 40.9937 47.4157C41.0763 47.5275 41.1795 47.6215 41.2973 47.6923C41.4152 47.7631 41.5455 47.8093 41.6808 47.8284C41.816 47.8474 41.9536 47.8388 42.0857 47.8031C42.2177 47.7675 42.3416 47.7054 42.4503 47.6205C42.5591 47.5356 42.6504 47.4295 42.7193 47.3083C42.7881 47.187 42.8331 47.053 42.8516 46.9139L42.98 45.964H43.0788L42.9454 46.919C42.9088 47.1998 42.9818 47.4841 43.1485 47.7097C43.3151 47.9353 43.5618 48.0839 43.8346 48.123C44.0281 48.1527 44.2259 48.1226 44.4027 48.0366L54.426 49.4641C54.9158 49.5343 55.4143 49.5046 55.8929 49.3767C56.3716 49.2487 56.821 49.025 57.2155 48.7184C57.6101 48.4117 57.942 48.0281 58.1923 47.5895C58.4426 47.1509 58.6064 46.6659 58.6744 46.1621L60.2552 34.4476C60.3848 33.434 60.1203 32.4088 59.519 31.5946C58.9178 30.7804 58.0285 30.243 57.0442 30.0992Z" fill="white"/>
<path d="M1.53833 37.1053L36.6123 28.2966L54.8903 30.8366C55.96 30.9845 56.9293 31.5618 57.5864 32.4422C58.2436 33.3226 58.5353 34.4347 58.3977 35.5356L57.2615 44.5526C57.192 45.1068 57.0155 45.6412 56.7424 46.1244C56.4693 46.6076 56.1051 47.0298 55.6712 47.3662C55.2372 47.7026 54.7423 47.9466 54.2155 48.0836C53.6886 48.2207 53.1404 48.2482 52.6031 48.1644L6.09795 40.9102C5.07742 40.7507 4.1168 40.3139 3.31525 39.645C2.51371 38.9761 1.90029 38.0994 1.53833 37.1053Z" fill="#08915C"/>
<path d="M11.2158 38.8926C11.2158 38.8926 13.6018 37.5312 15.1678 36.7133C16.7338 35.8954 22.8594 35.6211 22.8594 35.6211L28.1649 28.2551" stroke="#263238" stroke-linecap="round" stroke-linejoin="round"/>
<path d="M38.2672 31.5317L34.2905 41.077" stroke="#263238" stroke-linecap="round" stroke-linejoin="round"/>
<path d="M57.0442 30.0992L46.8826 28.6513C46.7627 28.5737 46.6279 28.5234 46.4874 28.504C46.2143 28.4649 45.9373 28.5386 45.7169 28.709C45.4966 28.8794 45.3509 29.1327 45.3117 29.4133L45.2277 30.0687H45.1289L45.2178 29.4133C45.2363 29.2743 45.228 29.1328 45.1933 28.997C45.1586 28.8612 45.0983 28.7338 45.0157 28.622C44.9331 28.5102 44.83 28.4162 44.7121 28.3454C44.5942 28.2746 44.4639 28.2284 44.3286 28.2094C44.1934 28.1904 44.0558 28.1989 43.9238 28.2346C43.7917 28.2703 43.6678 28.3323 43.5591 28.4172C43.4504 28.5021 43.359 28.6083 43.2901 28.7295C43.2213 28.8507 43.1763 28.9847 43.1579 29.1238L43.0689 29.7791H42.9751L43.0591 29.1238C43.0779 28.985 43.0699 28.8438 43.0357 28.7082C43.0014 28.5726 42.9415 28.4453 42.8594 28.3335C42.7773 28.2217 42.6746 28.1276 42.5571 28.0566C42.4396 27.9857 42.3097 27.9392 42.1748 27.9198C42.0327 27.8991 41.8879 27.9094 41.7499 27.9503L26.8064 25.8218C26.685 25.7434 26.5485 25.6931 26.4063 25.6745C26.2714 25.6551 26.134 25.6633 26.0022 25.6985C25.8703 25.7337 25.7465 25.7953 25.6378 25.8798C25.529 25.9642 25.4376 26.0698 25.3685 26.1906C25.2995 26.3114 25.2543 26.445 25.2355 26.5838L25.1466 27.2391H25.0478L25.1367 26.5838C25.1587 26.4434 25.1531 26.2999 25.1204 26.1618C25.0876 26.0237 25.0283 25.8937 24.946 25.7794C24.8637 25.6652 24.7601 25.569 24.6411 25.4966C24.5221 25.4241 24.3903 25.3769 24.2533 25.3576C24.1163 25.3383 23.977 25.3473 23.8434 25.3842C23.7099 25.421 23.5849 25.485 23.4757 25.5723C23.3666 25.6595 23.2755 25.7683 23.2078 25.8923C23.1402 26.0163 23.0973 26.153 23.0817 26.2942L22.9928 26.9445H22.894L22.9829 26.2892C23.0195 26.0084 22.9465 25.7241 22.7798 25.4985C22.6132 25.2729 22.3665 25.1243 22.0937 25.0852V25.0852C21.9532 25.0642 21.81 25.0746 21.6738 25.1157L6.7698 22.9363C6.27998 22.8661 5.78151 22.8958 5.30287 23.0238C4.82422 23.1518 4.37479 23.3754 3.98025 23.6821C3.58571 23.9887 3.2538 24.3723 3.00348 24.8109C2.75316 25.2496 2.58935 25.7346 2.5214 26.2383L0.940598 37.9528C0.8041 38.9706 1.06616 40.0026 1.66919 40.8218C2.27223 41.641 3.16688 42.1804 4.15654 42.3216L18.9271 44.4298C19.077 44.5575 19.2582 44.6401 19.4508 44.6686V44.6686C19.5857 44.6879 19.723 44.6798 19.8549 44.6446C19.9868 44.6093 20.1106 44.5477 20.2193 44.4633C20.328 44.3789 20.4195 44.2732 20.4885 44.1524C20.5576 44.0316 20.6028 43.898 20.6216 43.7593L20.75 42.7992H20.8488L20.7204 43.7593C20.6984 43.8997 20.704 44.0431 20.7367 44.1812C20.7695 44.3194 20.8287 44.4494 20.911 44.5636C20.9934 44.6779 21.097 44.774 21.216 44.8465C21.335 44.9189 21.4668 44.9662 21.6038 44.9855C21.7408 45.0048 21.8801 44.9958 22.0136 44.9589C22.1472 44.922 22.2722 44.8581 22.3813 44.7708C22.4905 44.6835 22.5816 44.5747 22.6493 44.4507C22.7169 44.3267 22.7598 44.1901 22.7754 44.0488L22.9038 43.0938H23.0026L22.8742 44.0488C22.8554 44.1876 22.8633 44.3288 22.8976 44.4644C22.9318 44.6 22.9917 44.7274 23.0738 44.8392C23.1559 44.951 23.2587 45.045 23.3761 45.116C23.4936 45.187 23.6235 45.2335 23.7585 45.2528C23.952 45.2825 24.1497 45.2524 24.3266 45.1664L39.028 47.2899C39.1685 47.4142 39.3393 47.4968 39.522 47.5286C39.657 47.5487 39.7946 47.541 39.9267 47.5061C40.0588 47.4711 40.1829 47.4096 40.2918 47.325C40.4007 47.2405 40.4922 47.1346 40.561 47.0134C40.6298 46.8923 40.6746 46.7584 40.6928 46.6193L40.8262 45.6643H40.92L40.7916 46.6244C40.7731 46.7635 40.7814 46.905 40.8161 47.0407C40.8508 47.1765 40.9111 47.304 40.9937 47.4157C41.0763 47.5275 41.1795 47.6215 41.2973 47.6923C41.4152 47.7631 41.5455 47.8093 41.6808 47.8284C41.816 47.8474 41.9536 47.8388 42.0857 47.8031C42.2177 47.7675 42.3416 47.7054 42.4503 47.6205C42.5591 47.5356 42.6504 47.4295 42.7193 47.3083C42.7881 47.187 42.8331 47.053 42.8516 46.914L42.98 45.964H43.0788L42.9454 46.919C42.9088 47.1998 42.9818 47.4841 43.1485 47.7097C43.3151 47.9353 43.5618 48.0839 43.8346 48.123C44.0281 48.1527 44.2259 48.1226 44.4027 48.0366L54.426 49.4641C54.9158 49.5343 55.4143 49.5046 55.8929 49.3767C56.3716 49.2487 56.821 49.025 57.2155 48.7184C57.6101 48.4117 57.942 48.0281 58.1923 47.5895C58.4426 47.1509 58.6064 46.6659 58.6744 46.1621L60.2552 34.4476C60.3848 33.434 60.1203 32.4088 59.519 31.5946C58.9178 30.7804 58.0285 30.243 57.0442 30.0992V30.0992Z" stroke="#263238" stroke-linecap="round" stroke-linejoin="round"/>
<path d="M45.1289 30.0534L42.9849 45.9691" stroke="#263238" stroke-linecap="round" stroke-linejoin="round"/>
<path d="M43.0689 29.7639L40.925 45.6744" stroke="#263238" stroke-linecap="round" stroke-linejoin="round"/>
<path d="M25.0478 27.1934L22.9038 43.109" stroke="#263238" stroke-linecap="round" stroke-linejoin="round"/>
<path d="M22.9928 26.8988L20.8488 42.8144" stroke="#263238" stroke-linecap="round" stroke-linejoin="round"/>
<path d="M61.0999 37.4651L60.2749 43.6069" stroke="#263238" stroke-linecap="round" stroke-linejoin="round"/>
<path d="M62.2757 37.6328L61.4457 43.7745" stroke="#263238" stroke-linecap="round" stroke-linejoin="round"/>
<path d="M63.4514 37.8004L62.6215 43.9422" stroke="#263238" stroke-linecap="round" stroke-linejoin="round"/>
<path d="M50.884 113.802C51.4818 119.106 55.246 122.774 56.4366 124.201C57.4238 125.543 58.2871 126.977 59.0153 128.484C59.3056 130.382 59.3538 132.312 59.1585 134.224C61.1839 134.427 64.6419 137.536 83.404 138.288C95.1217 138.75 109.586 135.296 113.276 133.97C113.153 133.741 113.039 133.543 112.945 133.396C111.157 130.541 112.945 127.3 112.945 127.3C114.348 123.109 115.445 118.816 116.225 114.458C113.523 114.392 105.328 113.574 102.038 106.299C98.7032 98.923 104.913 81.7272 106.978 76.4643C104.923 76.2154 103.357 75.9563 102.65 75.5144L102.556 75.4483C101.163 80.3658 97.0483 94.1376 93.3285 98.9586C88.7689 104.872 80.2424 106.299 73.5043 103.444C66.7661 100.589 65.373 94.6761 66.1684 90.602C66.7958 87.3711 71.7802 77.4854 73.8204 73.5179C72.8967 74.1123 71.7061 74.3205 70.1599 74.3459L55.661 100.386C55.661 100.386 50.2912 108.504 50.884 113.802Z" fill="#263238" stroke="#263238" stroke-linecap="round" stroke-linejoin="round"/>
<path d="M77.7626 127.244C84.9369 130.309 92.8384 131.098 100.452 129.51" stroke="#828282" stroke-linecap="round" stroke-linejoin="round"/>
<path d="M71.7061 123.795C72.3562 124.296 73.0359 124.756 73.7414 125.171" stroke="#828282" stroke-linecap="round" stroke-linejoin="round"/>
<path d="M86.6792 2.21502C84.4872 2.34147 82.3445 2.93299 80.3856 3.95239C77.4957 5.51195 74.2996 8.48883 76.0681 13.6958C79.0321 22.4639 88.9516 33.8787 92.3256 34.8998C94.3709 35.5261 96.3553 36.3458 98.2536 37.3483C98.2536 37.3483 101.218 43.0532 97.4583 55.4941C93.6989 67.935 89.332 74.0462 92.8986 82.8143C96.4653 91.5824 108.163 96.8809 121.847 93.6195C135.531 90.3581 139.295 82.1996 136.716 72.822C134.138 63.4443 127.197 62.4232 127.395 56.9165C127.592 51.4098 132.947 52.2276 128.783 45.0953C124.618 37.963 120.143 38.6082 120.143 34.7321C120.143 30.8561 123.235 22.4639 119.466 15.7329C115.919 9.38799 101.499 1.15838 86.6792 2.21502Z" fill="#263238"/>
<path d="M75.7915 5.5526C75.7915 5.5526 82.6186 21.0618 95.0032 28.9206C107.388 36.7794 121.032 34.9404 121.032 34.9404" stroke="#828282" stroke-linecap="round" stroke-linejoin="round"/>
<path d="M83.8882 0.980591C83.8882 0.980591 97.8585 29.388 109.453 32.1616C121.047 34.9353 122.297 33.6348 122.297 33.6348" stroke="#828282" stroke-linecap="round" stroke-linejoin="round"/>
<path d="M100.585 9.64708C103.831 17.0131 108.825 26.7667 113.429 29.2254C121.052 33.2894 124.065 30.5309 124.065 30.5309" stroke="#828282" stroke-linecap="round" stroke-linejoin="round"/>
<path d="M97.0681 0.980591C97.0681 0.980591 97.8832 3.24119 99.2368 6.49239" stroke="#828282" stroke-linecap="round" stroke-linejoin="round"/>
<path d="M102.626 32.817C102.626 32.817 110.88 41.1431 109.927 50.9373C108.973 60.7315 104.236 64.76 102.635 75.4737C101.035 86.1874 107.704 93.8786 115.642 93.5484C123.581 93.2182 122.311 83.8963 117.228 82.6111C112.145 81.3259 111.196 86.3652 113.419 88.001C115.642 89.6367 116.912 87.3457 116.912 86.858" stroke="#828282" stroke-linecap="round" stroke-linejoin="round"/>
<path d="M109.769 34.788C109.769 34.788 115.642 40.0102 115.642 49.967C115.642 59.9238 112.787 61.5596 114.057 67.2746C115.326 72.9896 122.455 71.5215 125.488 78.7046C128.521 85.8877 126.757 91.4401 123.581 93.8887" stroke="#828282" stroke-linecap="round" stroke-linejoin="round"/>
<path d="M115.801 35.2655C115.801 35.2655 123.581 40.9805 125.009 48.6513C126.436 56.3221 117.549 54.5289 123.265 64.8159C128.98 75.1029 141.202 76.7335 135.328 87.3457" stroke="#828282" stroke-linecap="round" stroke-linejoin="round"/>
<path d="M86.6792 2.21502C84.4872 2.34147 82.3445 2.93299 80.3856 3.95239C77.4957 5.51195 74.2996 8.48883 76.0681 13.6958C79.0321 22.4639 88.9516 33.8787 92.3256 34.8998C94.3709 35.5261 96.3553 36.3458 98.2536 37.3483C98.2536 37.3483 101.218 43.0532 97.4583 55.4941C93.6989 67.935 89.332 74.0462 92.8986 82.8143C96.4653 91.5824 108.163 96.8809 121.847 93.6195C135.531 90.3581 139.295 82.1996 136.716 72.822C134.138 63.4443 127.197 62.4232 127.395 56.9165C127.592 51.4098 132.947 52.2276 128.783 45.0953C124.618 37.963 120.143 38.6082 120.143 34.7321C120.143 30.8561 123.235 22.4639 119.466 15.7329C115.919 9.38799 101.499 1.15838 86.6792 2.21502Z" stroke="#263238" stroke-linecap="round" stroke-linejoin="round"/>
<path d="M78.054 55.108C78.054 55.108 77.9404 56.3882 77.7131 58.3897L89.1542 53.6805L78.054 55.108Z" fill="#263238" stroke="#263238" stroke-linecap="round" stroke-linejoin="round"/>
<path d="M129.351 190.998C129.558 186.487 129.618 176.098 126.624 166.406C125.562 162.967 124.218 159.207 122.781 155.489C117.702 157.744 106.108 161.839 86.7731 163.144C67.0625 164.475 54.6631 158.831 49.3477 155.631C48.5869 157.907 47.8953 160.289 47.3173 162.743C44.9906 172.629 45.697 185.755 46.1169 191.008" fill="#08915C"/>
<path d="M129.351 190.998C129.558 186.487 129.618 176.098 126.624 166.406C125.562 162.967 124.218 159.207 122.781 155.489C117.702 157.744 106.108 161.839 86.7731 163.144C67.0625 164.475 54.6631 158.831 49.3477 155.631C48.5869 157.907 47.8953 160.289 47.3173 162.743C44.9906 172.629 45.697 185.755 46.1169 191.008" stroke="#263238" stroke-linecap="round" stroke-linejoin="round"/>
<path d="M99.0293 158.801L84.7329 183.759" stroke="#263238" stroke-linecap="round" stroke-linejoin="round"/>
<path d="M55.824 156.068C55.824 156.068 58.1507 165.298 63.4711 173.162" stroke="#263238" stroke-linecap="round" stroke-linejoin="round"/>
<path d="M147.105 120.071C147.105 120.071 129.815 143.977 126.822 144.181C123.828 144.384 116.512 136.84 115.919 137.252C115.326 137.663 105.412 150.912 103.821 152.949C102.23 154.986 105.797 153.355 105.797 153.355C105.797 153.355 104.606 156.617 105.797 156.82C106.988 157.023 108.968 155.601 108.968 155.601C108.968 155.601 108.573 158.455 109.759 158.044C110.944 157.633 113.331 155.601 113.331 155.601C113.331 155.601 111.147 158.455 112.935 158.044C114.724 157.633 120.666 152.964 120.666 152.964C120.666 152.964 123.043 157.653 128.002 155.819C132.962 153.985 164.86 127.945 165.052 124.887C165.245 121.829 159.52 115.601 159.52 115.601" fill="#CCCCCC"/>
<path opacity="0.2" d="M165.067 124.872C165.27 121.824 158.986 114.889 158.986 114.889L154.382 116.896L153.784 117.221C153.784 117.221 158.695 120.533 155.997 126.076C153.3 131.618 133.634 150.46 129.865 152.395C126.096 154.331 123.398 151.288 121.239 151.562C120.108 151.709 118.073 153.929 116.364 156.134C118.488 154.686 120.676 152.959 120.676 152.959C120.676 152.959 123.052 157.648 128.012 155.814C132.972 153.98 164.87 127.93 165.067 124.872Z" fill="black"/>
<path d="M147.105 120.071C147.105 120.071 129.815 143.977 126.822 144.181C123.828 144.384 116.512 136.84 115.919 137.252C115.326 137.663 105.412 150.912 103.821 152.949C102.23 154.986 105.797 153.355 105.797 153.355C105.797 153.355 104.606 156.617 105.797 156.82C106.988 157.023 108.968 155.601 108.968 155.601C108.968 155.601 108.573 158.455 109.759 158.044C110.944 157.633 113.331 155.601 113.331 155.601C113.331 155.601 111.147 158.455 112.935 158.044C114.724 157.633 120.666 152.964 120.666 152.964C120.666 152.964 123.043 157.653 128.002 155.819C132.962 153.985 164.86 127.945 165.052 124.887C165.245 121.829 159.52 115.601 159.52 115.601" stroke="#263238" stroke-linecap="round" stroke-linejoin="round"/>
<path d="M113.34 155.601L119.486 149.073" stroke="#263238" stroke-linecap="round" stroke-linejoin="round"/>
<path d="M108.978 155.601L116.709 146.629" stroke="#263238" stroke-linecap="round" stroke-linejoin="round"/>
<path d="M105.807 153.355L114.131 143.571" stroke="#263238" stroke-linecap="round" stroke-linejoin="round"/>
<path d="M17.1833 55.2858C17.1833 55.2858 23.1113 49.5809 27.6907 49.5809C32.2701 49.5809 33.8361 49.581 34.6067 47.742C35.3773 45.903 41.1522 42.662 41.9426 40.63C42.733 38.598 38.3759 38.9993 35.7972 40.4268C34.326 41.2126 32.9908 42.2424 31.8452 43.4748C31.8452 43.4748 23.9116 41.2294 20.3449 41.2294C16.7782 41.2294 14.1995 46.1215 13.997 48.57" fill="#CCCCCC"/>
<path d="M17.1833 55.2858C17.1833 55.2858 23.1113 49.5809 27.6907 49.5809C32.2701 49.5809 33.8361 49.581 34.6067 47.742C35.3773 45.903 41.1522 42.662 41.9426 40.63C42.733 38.598 38.3759 38.9993 35.7972 40.4268C34.326 41.2126 32.9908 42.2424 31.8452 43.4748C31.8452 43.4748 23.9116 41.2294 20.3449 41.2294C16.7782 41.2294 14.1995 46.1215 13.997 48.57" stroke="#263238" stroke-linecap="round" stroke-linejoin="round"/>
<path d="M92.9185 38.5675C92.9185 38.5675 95.8825 28.7834 99.2614 31.0237C102.64 33.264 102.038 39.5886 99.459 42.4436C96.8803 45.2985 95.507 44.8921 94.109 43.2563" fill="#A6A6A6"/>
<path d="M92.9185 38.5675C92.9185 38.5675 95.8825 28.7834 99.2614 31.0237C102.64 33.264 102.038 39.5886 99.459 42.4436C96.8803 45.2985 95.507 44.8921 94.109 43.2563" stroke="#263238" stroke-linecap="round" stroke-linejoin="round"/>
<path d="M78.054 141.874C78.0501 142.049 77.9962 142.219 77.8992 142.363C77.8022 142.507 77.6663 142.619 77.5082 142.684C77.3502 142.749 77.177 142.765 77.0102 142.73C76.8434 142.695 76.6904 142.61 76.57 142.486C76.4496 142.362 76.3672 142.205 76.333 142.033C76.2988 141.862 76.3144 141.684 76.3777 141.521C76.4411 141.359 76.5494 141.219 76.6893 141.119C76.8292 141.019 76.9946 140.964 77.1648 140.96C77.2823 140.957 77.3991 140.979 77.5082 141.024C77.6173 141.069 77.7164 141.136 77.7995 141.222C77.8827 141.307 77.9481 141.409 77.9918 141.521C78.0355 141.633 78.0567 141.754 78.054 141.874Z" fill="white" stroke="#263238" stroke-linecap="round" stroke-linejoin="round"/>
</svg>
